<?xml version="1.0" encoding="utf-8" standalone="no"?>
<!DOCTYPE svg PUBLIC "-//W3C//DTD SVG 1.1//EN"
  "http://www.w3.org/Graphics/SVG/1.1/DTD/svg11.dtd">
<svg xmlns:xlink="http://www.w3.org/1999/xlink" width="545.088281pt" height="313.776pt" viewBox="0 0 545.088281 313.776" xmlns="http://www.w3.org/2000/svg" version="1.1">
 <metadata>
  <rdf:RDF xmlns:dc="http://purl.org/dc/elements/1.1/" xmlns:cc="http://creativecommons.org/ns#" xmlns:rdf="http://www.w3.org/1999/02/22-rdf-syntax-ns#">
   <cc:Work>
    <dc:type rdf:resource="http://purl.org/dc/dcmitype/StillImage"/>
    <dc:date>2025-10-25T23:27:50.674261</dc:date>
    <dc:format>image/svg+xml</dc:format>
    <dc:creator>
     <cc:Agent>
      <dc:title>Matplotlib v3.10.7, https://matplotlib.org/</dc:title>
     </cc:Agent>
    </dc:creator>
   </cc:Work>
  </rdf:RDF>
 </metadata>
 <defs>
  <style type="text/css">*{stroke-linejoin: round; stroke-linecap: butt}</style>
 </defs>
 <g id="figure_1">
  <g id="patch_1">
   <path d="M 0 313.776 
L 545.088281 313.776 
L 545.088281 0 
L 0 0 
z
" style="fill: #111217"/>
  </g>
  <g id="axes_1">
   <g id="patch_2">
    <path d="M 80.592141 264.66336 
L 464.496141 264.66336 
L 464.496141 49.11264 
L 80.592141 49.11264 
z
" clip-path="url(#pe8bff60f46)" style="fill: #d8c2a8; stroke: #b79e86; stroke-width: 2.2; stroke-linejoin: miter"/>
   </g>
   <g id="patch_3">
    <path d="M 159.772341 245.503296 
C 161.808591 245.503296 163.761716 244.99859 165.201563 244.100333 
C 166.64141 243.202076 167.450421 241.983607 167.450421 240.71328 
C 167.450421 239.442953 166.64141 238.224484 165.201563 237.326227 
C 163.761716 236.42797 161.808591 235.923264 159.772341 235.923264 
C 157.73609 235.923264 155.782965 236.42797 154.343118 237.326227 
C 152.903272 238.224484 152.094261 239.442953 152.094261 240.71328 
C 152.094261 241.983607 152.903272 243.202076 154.343118 244.100333 
C 155.782965 244.99859 157.73609 245.503296 159.772341 245.503296 
z
" clip-path="url(#pe8bff60f46)" style="fill: #6b4f3a; stroke: #3f2f24; stroke-width: 0.6; stroke-linejoin: miter"/>
   </g>
   <g id="patch_4">
    <path d="M 157.372941 241.671283 
C 158.289253 241.671283 159.16816 241.444165 159.816091 241.03995 
C 160.464022 240.635734 160.828077 240.087423 160.828077 239.515776 
C 160.828077 238.944129 160.464022 238.395818 159.816091 237.991602 
C 159.16816 237.587387 158.289253 237.360269 157.372941 237.360269 
C 156.456628 237.360269 155.577722 237.587387 154.929791 237.991602 
C 154.28186 238.395818 153.917805 238.944129 153.917805 239.515776 
C 153.917805 240.087423 154.28186 240.635734 154.929791 241.03995 
C 155.577722 241.444165 156.456628 241.671283 157.372941 241.671283 
z
" clip-path="url(#pe8bff60f46)" style="fill: #f0e6dc; opacity: 0.35"/>
   </g>
   <g id="patch_5">
    <path d="M 205.360941 245.503296 
C 207.397191 245.503296 209.350316 244.99859 210.790163 244.100333 
C 212.23001 243.202076 213.039021 241.983607 213.039021 240.71328 
C 213.039021 239.442953 212.23001 238.224484 210.790163 237.326227 
C 209.350316 236.42797 207.397191 235.923264 205.360941 235.923264 
C 203.32469 235.923264 201.371565 236.42797 199.931718 237.326227 
C 198.491872 238.224484 197.682861 239.442953 197.682861 240.71328 
C 197.682861 241.983607 198.491872 243.202076 199.931718 244.100333 
C 201.371565 244.99859 203.32469 245.503296 205.360941 245.503296 
z
" clip-path="url(#pe8bff60f46)" style="fill: #6b4f3a; stroke: #3f2f24; stroke-width: 0.6; stroke-linejoin: miter"/>
   </g>
   <g id="patch_6">
    <path d="M 202.961541 241.671283 
C 203.877853 241.671283 204.75676 241.444165 205.404691 241.03995 
C 206.052622 240.635734 206.416677 240.087423 206.416677 239.515776 
C 206.416677 238.944129 206.052622 238.395818 205.404691 237.991602 
C 204.75676 237.587387 203.877853 237.360269 202.961541 237.360269 
C 202.045228 237.360269 201.166322 237.587387 200.518391 237.991602 
C 199.87046 238.395818 199.506405 238.944129 199.506405 239.515776 
C 199.506405 240.087423 199.87046 240.635734 200.518391 241.03995 
C 201.166322 241.444165 202.045228 241.671283 202.961541 241.671283 
z
" clip-path="url(#pe8bff60f46)" style="fill: #f0e6dc; opacity: 0.35"/>
   </g>
   <g id="patch_7">
    <path d="M 296.538141 245.503296 
C 298.574391 245.503296 300.527516 244.99859 301.967363 244.100333 
C 303.40721 243.202076 304.216221 241.983607 304.216221 240.71328 
C 304.216221 239.442953 303.40721 238.224484 301.967363 237.326227 
C 300.527516 236.42797 298.574391 235.923264 296.538141 235.923264 
C 294.50189 235.923264 292.548765 236.42797 291.108918 237.326227 
C 289.669072 238.224484 288.860061 239.442953 288.860061 240.71328 
C 288.860061 241.983607 289.669072 243.202076 291.108918 244.100333 
C 292.548765 244.99859 294.50189 245.503296 296.538141 245.503296 
z
" clip-path="url(#pe8bff60f46)" style="fill: #6b4f3a; stroke: #3f2f24; stroke-width: 0.6; stroke-linejoin: miter"/>
   </g>
   <g id="patch_8">
    <path d="M 294.138741 241.671283 
C 295.055053 241.671283 295.93396 241.444165 296.581891 241.03995 
C 297.229822 240.635734 297.593877 240.087423 297.593877 239.515776 
C 297.593877 238.944129 297.229822 238.395818 296.581891 237.991602 
C 295.93396 237.587387 295.055053 237.360269 294.138741 237.360269 
C 293.222428 237.360269 292.343522 237.587387 291.695591 237.991602 
C 291.04766 238.395818 290.683605 238.944129 290.683605 239.515776 
C 290.683605 240.087423 291.04766 240.635734 291.695591 241.03995 
C 292.343522 241.444165 293.222428 241.671283 294.138741 241.671283 
z
" clip-path="url(#pe8bff60f46)" style="fill: #f0e6dc; opacity: 0.35"/>
   </g>
   <g id="patch_9">
    <path d="M 114.183741 206.584416 
C 116.219991 206.584416 118.173116 206.07971 119.612963 205.181453 
C 121.05281 204.283196 121.861821 203.064727 121.861821 201.7944 
C 121.861821 200.524073 121.05281 199.305604 119.612963 198.407347 
C 118.173116 197.50909 116.219991 197.004384 114.183741 197.004384 
C 112.14749 197.004384 110.194365 197.50909 108.754518 198.407347 
C 107.314672 199.305604 106.505661 200.524073 106.505661 201.7944 
C 106.505661 203.064727 107.314672 204.283196 108.754518 205.181453 
C 110.194365 206.07971 112.14749 206.584416 114.183741 206.584416 
z
" clip-path="url(#pe8bff60f46)" style="fill: #6b4f3a; stroke: #3f2f24; stroke-width: 0.6; stroke-linejoin: miter"/>
   </g>
   <g id="patch_10">
    <path d="M 111.784341 202.752403 
C 112.700653 202.752403 113.57956 202.525285 114.227491 202.12107 
C 114.875422 201.716854 115.239477 201.168543 115.239477 200.596896 
C 115.239477 200.025249 114.875422 199.476938 114.227491 199.072722 
C 113.57956 198.668507 112.700653 198.441389 111.784341 198.441389 
C 110.868028 198.441389 109.989122 198.668507 109.341191 199.072722 
C 108.69326 199.476938 108.329205 200.025249 108.329205 200.596896 
C 108.329205 201.168543 108.69326 201.716854 109.341191 202.12107 
C 109.989122 202.525285 110.868028 202.752403 111.784341 202.752403 
z
" clip-path="url(#pe8bff60f46)" style="fill: #f0e6dc; opacity: 0.35"/>
   </g>
   <g id="patch_11">
    <path d="M 250.949541 206.584416 
C 252.985791 206.584416 254.938916 206.07971 256.378763 205.181453 
C 257.81861 204.283196 258.627621 203.064727 258.627621 201.7944 
C 258.627621 200.524073 257.81861 199.305604 256.378763 198.407347 
C 254.938916 197.50909 252.985791 197.004384 250.949541 197.004384 
C 248.91329 197.004384 246.960165 197.50909 245.520318 198.407347 
C 244.080472 199.305604 243.271461 200.524073 243.271461 201.7944 
C 243.271461 203.064727 244.080472 204.283196 245.520318 205.181453 
C 246.960165 206.07971 248.91329 206.584416 250.949541 206.584416 
z
" clip-path="url(#pe8bff60f46)" style="fill: #6b4f3a; stroke: #3f2f24; stroke-width: 0.6; stroke-linejoin: miter"/>
   </g>
   <g id="patch_12">
    <path d="M 248.550141 202.752403 
C 249.466453 202.752403 250.34536 202.525285 250.993291 202.12107 
C 251.641222 201.716854 252.005277 201.168543 252.005277 200.596896 
C 252.005277 200.025249 251.641222 199.476938 250.993291 199.072722 
C 250.34536 198.668507 249.466453 198.441389 248.550141 198.441389 
C 247.633828 198.441389 246.754922 198.668507 246.106991 199.072722 
C 245.45906 199.476938 245.095005 200.025249 245.095005 200.596896 
C 245.095005 201.168543 245.45906 201.716854 246.106991 202.12107 
C 246.754922 202.525285 247.633828 202.752403 248.550141 202.752403 
z
" clip-path="url(#pe8bff60f46)" style="fill: #f0e6dc; opacity: 0.35"/>
   </g>
   <g id="patch_13">
    <path d="M 387.715341 206.584416 
C 389.751591 206.584416 391.704716 206.07971 393.144563 205.181453 
C 394.58441 204.283196 395.393421 203.064727 395.393421 201.7944 
C 395.393421 200.524073 394.58441 199.305604 393.144563 198.407347 
C 391.704716 197.50909 389.751591 197.004384 387.715341 197.004384 
C 385.67909 197.004384 383.725965 197.50909 382.286118 198.407347 
C 380.846272 199.305604 380.037261 200.524073 380.037261 201.7944 
C 380.037261 203.064727 380.846272 204.283196 382.286118 205.181453 
C 383.725965 206.07971 385.67909 206.584416 387.715341 206.584416 
z
" clip-path="url(#pe8bff60f46)" style="fill: #6b4f3a; stroke: #3f2f24; stroke-width: 0.6; stroke-linejoin: miter"/>
   </g>
   <g id="patch_14">
    <path d="M 385.315941 202.752403 
C 386.232253 202.752403 387.11116 202.525285 387.759091 202.12107 
C 388.407022 201.716854 388.771077 201.168543 388.771077 200.596896 
C 388.771077 200.025249 388.407022 199.476938 387.759091 199.072722 
C 387.11116 198.668507 386.232253 198.441389 385.315941 198.441389 
C 384.399628 198.441389 383.520722 198.668507 382.872791 199.072722 
C 382.22486 199.476938 381.860805 200.025249 381.860805 200.596896 
C 381.860805 201.168543 382.22486 201.716854 382.872791 202.12107 
C 383.520722 202.525285 384.399628 202.752403 385.315941 202.752403 
z
" clip-path="url(#pe8bff60f46)" style="fill: #f0e6dc; opacity: 0.35"/>
   </g>
   <g id="patch_15">
    <path d="M 159.772341 167.665536 
C 161.808591 167.665536 163.761716 167.16083 165.201563 166.262573 
C 166.64141 165.364316 167.450421 164.145847 167.450421 162.87552 
C 167.450421 161.605193 166.64141 160.386724 165.201563 159.488467 
C 163.761716 158.59021 161.808591 158.085504 159.772341 158.085504 
C 157.73609 158.085504 155.782965 158.59021 154.343118 159.488467 
C 152.903272 160.386724 152.094261 161.605193 152.094261 162.87552 
C 152.094261 164.145847 152.903272 165.364316 154.343118 166.262573 
C 155.782965 167.16083 157.73609 167.665536 159.772341 167.665536 
z
" clip-path="url(#pe8bff60f46)" style="fill: #6b4f3a; stroke: #3f2f24; stroke-width: 0.6; stroke-linejoin: miter"/>
   </g>
   <g id="patch_16">
    <path d="M 157.372941 163.833523 
C 158.289253 163.833523 159.16816 163.606405 159.816091 163.20219 
C 160.464022 162.797974 160.828077 162.249663 160.828077 161.678016 
C 160.828077 161.106369 160.464022 160.558058 159.816091 160.153842 
C 159.16816 159.749627 158.289253 159.522509 157.372941 159.522509 
C 156.456628 159.522509 155.577722 159.749627 154.929791 160.153842 
C 154.28186 160.558058 153.917805 161.106369 153.917805 161.678016 
C 153.917805 162.249663 154.28186 162.797974 154.929791 163.20219 
C 155.577722 163.606405 156.456628 163.833523 157.372941 163.833523 
z
" clip-path="url(#pe8bff60f46)" style="fill: #f0e6dc; opacity: 0.35"/>
   </g>
   <g id="patch_17">
    <path d="M 342.126741 167.665536 
C 344.162991 167.665536 346.116116 167.16083 347.555963 166.262573 
C 348.99581 165.364316 349.804821 164.145847 349.804821 162.87552 
C 349.804821 161.605193 348.99581 160.386724 347.555963 159.488467 
C 346.116116 158.59021 344.162991 158.085504 342.126741 158.085504 
C 340.09049 158.085504 338.137365 158.59021 336.697518 159.488467 
C 335.257672 160.386724 334.448661 161.605193 334.448661 162.87552 
C 334.448661 164.145847 335.257672 165.364316 336.697518 166.262573 
C 338.137365 167.16083 340.09049 167.665536 342.126741 167.665536 
z
" clip-path="url(#pe8bff60f46)" style="fill: #6b4f3a; stroke: #3f2f24; stroke-width: 0.6; stroke-linejoin: miter"/>
   </g>
   <g id="patch_18">
    <path d="M 339.727341 163.833523 
C 340.643653 163.833523 341.52256 163.606405 342.170491 163.20219 
C 342.818422 162.797974 343.182477 162.249663 343.182477 161.678016 
C 343.182477 161.106369 342.818422 160.558058 342.170491 160.153842 
C 341.52256 159.749627 340.643653 159.522509 339.727341 159.522509 
C 338.811028 159.522509 337.932122 159.749627 337.284191 160.153842 
C 336.63626 160.558058 336.272205 161.106369 336.272205 161.678016 
C 336.272205 162.249663 336.63626 162.797974 337.284191 163.20219 
C 337.932122 163.606405 338.811028 163.833523 339.727341 163.833523 
z
" clip-path="url(#pe8bff60f46)" style="fill: #f0e6dc; opacity: 0.35"/>
   </g>
   <g id="patch_19">
    <path d="M 205.360941 128.746656 
C 207.397191 128.746656 209.350316 128.24195 210.790163 127.343693 
C 212.23001 126.445436 213.039021 125.226967 213.039021 123.95664 
C 213.039021 122.686313 212.23001 121.467844 210.790163 120.569587 
C 209.350316 119.67133 207.397191 119.166624 205.360941 119.166624 
C 203.32469 119.166624 201.371565 119.67133 199.931718 120.569587 
C 198.491872 121.467844 197.682861 122.686313 197.682861 123.95664 
C 197.682861 125.226967 198.491872 126.445436 199.931718 127.343693 
C 201.371565 128.24195 203.32469 128.746656 205.360941 128.746656 
z
" clip-path="url(#pe8bff60f46)" style="fill: #6b4f3a; stroke: #3f2f24; stroke-width: 0.6; stroke-linejoin: miter"/>
   </g>
   <g id="patch_20">
    <path d="M 202.961541 124.914643 
C 203.877853 124.914643 204.75676 124.687525 205.404691 124.28331 
C 206.052622 123.879094 206.416677 123.330783 206.416677 122.759136 
C 206.416677 122.187489 206.052622 121.639178 205.404691 121.234962 
C 204.75676 120.830747 203.877853 120.603629 202.961541 120.603629 
C 202.045228 120.603629 201.166322 120.830747 200.518391 121.234962 
C 199.87046 121.639178 199.506405 122.187489 199.506405 122.759136 
C 199.506405 123.330783 199.87046 123.879094 200.518391 124.28331 
C 201.166322 124.687525 202.045228 124.914643 202.961541 124.914643 
z
" clip-path="url(#pe8bff60f46)" style="fill: #f0e6dc; opacity: 0.35"/>
   </g>
   <g id="patch_21">
    <path d="M 342.126741 128.746656 
C 344.162991 128.746656 346.116116 128.24195 347.555963 127.343693 
C 348.99581 126.445436 349.804821 125.226967 349.804821 123.95664 
C 349.804821 122.686313 348.99581 121.467844 347.555963 120.569587 
C 346.116116 119.67133 344.162991 119.166624 342.126741 119.166624 
C 340.09049 119.166624 338.137365 119.67133 336.697518 120.569587 
C 335.257672 121.467844 334.448661 122.686313 334.448661 123.95664 
C 334.448661 125.226967 335.257672 126.445436 336.697518 127.343693 
C 338.137365 128.24195 340.09049 128.746656 342.126741 128.746656 
z
" clip-path="url(#pe8bff60f46)" style="fill: #6b4f3a; stroke: #3f2f24; stroke-width: 0.6; stroke-linejoin: miter"/>
   </g>
   <g id="patch_22">
    <path d="M 339.727341 124.914643 
C 340.643653 124.914643 341.52256 124.687525 342.170491 124.28331 
C 342.818422 123.879094 343.182477 123.330783 343.182477 122.759136 
C 343.182477 122.187489 342.818422 121.639178 342.170491 121.234962 
C 341.52256 120.830747 340.643653 120.603629 339.727341 120.603629 
C 338.811028 120.603629 337.932122 120.830747 337.284191 121.234962 
C 336.63626 121.639178 336.272205 122.187489 336.272205 122.759136 
C 336.272205 123.330783 336.63626 123.879094 337.284191 124.28331 
C 337.932122 124.687525 338.811028 124.914643 339.727341 124.914643 
z
" clip-path="url(#pe8bff60f46)" style="fill: #f0e6dc; opacity: 0.35"/>
   </g>
   <g id="patch_23">
    <path d="M 296.538141 89.827776 
C 298.574391 89.827776 300.527516 89.32307 301.967363 88.424813 
C 303.40721 87.526556 304.216221 86.308087 304.216221 85.03776 
C 304.216221 83.767433 303.40721 82.548964 301.967363 81.650707 
C 300.527516 80.75245 298.574391 80.247744 296.538141 80.247744 
C 294.50189 80.247744 292.548765 80.75245 291.108918 81.650707 
C 289.669072 82.548964 288.860061 83.767433 288.860061 85.03776 
C 288.860061 86.308087 289.669072 87.526556 291.108918 88.424813 
C 292.548765 89.32307 294.50189 89.827776 296.538141 89.827776 
z
" clip-path="url(#pe8bff60f46)" style="fill: #6b4f3a; stroke: #3f2f24; stroke-width: 0.6; stroke-linejoin: miter"/>
   </g>
   <g id="patch_24">
    <path d="M 294.138741 85.995763 
C 295.055053 85.995763 295.93396 85.768645 296.581891 85.36443 
C 297.229822 84.960214 297.593877 84.411903 297.593877 83.840256 
C 297.593877 83.268609 297.229822 82.720298 296.581891 82.316082 
C 295.93396 81.911867 295.055053 81.684749 294.138741 81.684749 
C 293.222428 81.684749 292.343522 81.911867 291.695591 82.316082 
C 291.04766 82.720298 290.683605 83.268609 290.683605 83.840256 
C 290.683605 84.411903 291.04766 84.960214 291.695591 85.36443 
C 292.343522 85.768645 293.222428 85.995763 294.138741 85.995763 
z
" clip-path="url(#pe8bff60f46)" style="fill: #f0e6dc; opacity: 0.35"/>
   </g>
   <g id="patch_25">
    <path d="M 387.715341 89.827776 
C 389.751591 89.827776 391.704716 89.32307 393.144563 88.424813 
C 394.58441 87.526556 395.393421 86.308087 395.393421 85.03776 
C 395.393421 83.767433 394.58441 82.548964 393.144563 81.650707 
C 391.704716 80.75245 389.751591 80.247744 387.715341 80.247744 
C 385.67909 80.247744 383.725965 80.75245 382.286118 81.650707 
C 380.846272 82.548964 380.037261 83.767433 380.037261 85.03776 
C 380.037261 86.308087 380.846272 87.526556 382.286118 88.424813 
C 383.725965 89.32307 385.67909 89.827776 387.715341 89.827776 
z
" clip-path="url(#pe8bff60f46)" style="fill: #6b4f3a; stroke: #3f2f24; stroke-width: 0.6; stroke-linejoin: miter"/>
   </g>
   <g id="patch_26">
    <path d="M 385.315941 85.995763 
C 386.232253 85.995763 387.11116 85.768645 387.759091 85.36443 
C 388.407022 84.960214 388.771077 84.411903 388.771077 83.840256 
C 388.771077 83.268609 388.407022 82.720298 387.759091 82.316082 
C 387.11116 81.911867 386.232253 81.684749 385.315941 81.684749 
C 384.399628 81.684749 383.520722 81.911867 382.872791 82.316082 
C 382.22486 82.720298 381.860805 83.268609 381.860805 83.840256 
C 381.860805 84.411903 382.22486 84.960214 382.872791 85.36443 
C 383.520722 85.768645 384.399628 85.995763 385.315941 85.995763 
z
" clip-path="url(#pe8bff60f46)" style="fill: #f0e6dc; opacity: 0.35"/>
   </g>
   <g id="line2d_1">
    <path d="M 114.183741 240.71328 
L 433.303941 240.71328 
" clip-path="url(#pe8bff60f46)" style="fill: none; stroke: #9d7f66; stroke-opacity: 0.9; stroke-width: 6; stroke-linecap: round"/>
   </g>
   <g id="line2d_2">
    <path d="M 114.183741 201.7944 
L 433.303941 201.7944 
" clip-path="url(#pe8bff60f46)" style="fill: none; stroke: #9d7f66; stroke-opacity: 0.9; stroke-width: 6; stroke-linecap: round"/>
   </g>
   <g id="line2d_3">
    <path d="M 114.183741 162.87552 
L 433.303941 162.87552 
" clip-path="url(#pe8bff60f46)" style="fill: none; stroke: #9d7f66; stroke-opacity: 0.9; stroke-width: 6; stroke-linecap: round"/>
   </g>
   <g id="line2d_4">
    <path d="M 114.183741 123.95664 
L 433.303941 123.95664 
" clip-path="url(#pe8bff60f46)" style="fill: none; stroke: #9d7f66; stroke-opacity: 0.9; stroke-width: 6; stroke-linecap: round"/>
   </g>
   <g id="line2d_5">
    <path d="M 114.183741 85.03776 
L 433.303941 85.03776 
" clip-path="url(#pe8bff60f46)" style="fill: none; stroke: #9d7f66; stroke-opacity: 0.9; stroke-width: 6; stroke-linecap: round"/>
   </g>
   <g id="text_1">
    <!-- Ordem 1 -->
    <g style="fill: #f1f1f1" transform="translate(10.752487 243.610624) scale(0.105 -0.105)">
     <defs>
      <path id="DejaVuSans-Bold-4f" d="M 2719 3878 
Q 2169 3878 1866 3472 
Q 1563 3066 1563 2328 
Q 1563 1594 1866 1187 
Q 2169 781 2719 781 
Q 3272 781 3575 1187 
Q 3878 1594 3878 2328 
Q 3878 3066 3575 3472 
Q 3272 3878 2719 3878 
z
M 2719 4750 
Q 3844 4750 4481 4106 
Q 5119 3463 5119 2328 
Q 5119 1197 4481 553 
Q 3844 -91 2719 -91 
Q 1597 -91 958 553 
Q 319 1197 319 2328 
Q 319 3463 958 4106 
Q 1597 4750 2719 4750 
z
" transform="scale(0.015625)"/>
      <path id="DejaVuSans-Bold-72" d="M 3138 2547 
Q 2991 2616 2845 2648 
Q 2700 2681 2553 2681 
Q 2122 2681 1889 2404 
Q 1656 2128 1656 1613 
L 1656 0 
L 538 0 
L 538 3500 
L 1656 3500 
L 1656 2925 
Q 1872 3269 2151 3426 
Q 2431 3584 2822 3584 
Q 2878 3584 2943 3579 
Q 3009 3575 3134 3559 
L 3138 2547 
z
" transform="scale(0.015625)"/>
      <path id="DejaVuSans-Bold-64" d="M 2919 2988 
L 2919 4863 
L 4044 4863 
L 4044 0 
L 2919 0 
L 2919 506 
Q 2688 197 2409 53 
Q 2131 -91 1766 -91 
Q 1119 -91 703 423 
Q 288 938 288 1747 
Q 288 2556 703 3070 
Q 1119 3584 1766 3584 
Q 2128 3584 2408 3439 
Q 2688 3294 2919 2988 
z
M 2181 722 
Q 2541 722 2730 984 
Q 2919 1247 2919 1747 
Q 2919 2247 2730 2509 
Q 2541 2772 2181 2772 
Q 1825 2772 1636 2509 
Q 1447 2247 1447 1747 
Q 1447 1247 1636 984 
Q 1825 722 2181 722 
z
" transform="scale(0.015625)"/>
      <path id="DejaVuSans-Bold-65" d="M 4031 1759 
L 4031 1441 
L 1416 1441 
Q 1456 1047 1700 850 
Q 1944 653 2381 653 
Q 2734 653 3104 758 
Q 3475 863 3866 1075 
L 3866 213 
Q 3469 63 3072 -14 
Q 2675 -91 2278 -91 
Q 1328 -91 801 392 
Q 275 875 275 1747 
Q 275 2603 792 3093 
Q 1309 3584 2216 3584 
Q 3041 3584 3536 3087 
Q 4031 2591 4031 1759 
z
M 2881 2131 
Q 2881 2450 2695 2645 
Q 2509 2841 2209 2841 
Q 1884 2841 1681 2658 
Q 1478 2475 1428 2131 
L 2881 2131 
z
" transform="scale(0.015625)"/>
      <path id="DejaVuSans-Bold-6d" d="M 3781 2919 
Q 3994 3244 4286 3414 
Q 4578 3584 4928 3584 
Q 5531 3584 5847 3212 
Q 6163 2841 6163 2131 
L 6163 0 
L 5038 0 
L 5038 1825 
Q 5041 1866 5042 1909 
Q 5044 1953 5044 2034 
Q 5044 2406 4934 2573 
Q 4825 2741 4581 2741 
Q 4263 2741 4089 2478 
Q 3916 2216 3909 1719 
L 3909 0 
L 2784 0 
L 2784 1825 
Q 2784 2406 2684 2573 
Q 2584 2741 2328 2741 
Q 2006 2741 1831 2477 
Q 1656 2213 1656 1722 
L 1656 0 
L 531 0 
L 531 3500 
L 1656 3500 
L 1656 2988 
Q 1863 3284 2130 3434 
Q 2397 3584 2719 3584 
Q 3081 3584 3359 3409 
Q 3638 3234 3781 2919 
z
" transform="scale(0.015625)"/>
      <path id="DejaVuSans-Bold-20" transform="scale(0.015625)"/>
      <path id="DejaVuSans-Bold-31" d="M 750 831 
L 1813 831 
L 1813 3847 
L 722 3622 
L 722 4441 
L 1806 4666 
L 2950 4666 
L 2950 831 
L 4013 831 
L 4013 0 
L 750 0 
L 750 831 
z
" transform="scale(0.015625)"/>
     </defs>
     <use xlink:href="#DejaVuSans-Bold-4f"/>
     <use xlink:href="#DejaVuSans-Bold-72" transform="translate(85.009766 0)"/>
     <use xlink:href="#DejaVuSans-Bold-64" transform="translate(134.326172 0)"/>
     <use xlink:href="#DejaVuSans-Bold-65" transform="translate(205.908203 0)"/>
     <use xlink:href="#DejaVuSans-Bold-6d" transform="translate(273.730469 0)"/>
     <use xlink:href="#DejaVuSans-Bold-20" transform="translate(377.929688 0)"/>
     <use xlink:href="#DejaVuSans-Bold-31" transform="translate(412.744141 0)"/>
    </g>
   </g>
   <g id="text_2">
    <!-- Ordem 2 -->
    <g style="fill: #f1f1f1" transform="translate(10.752487 204.691744) scale(0.105 -0.105)">
     <defs>
      <path id="DejaVuSans-Bold-32" d="M 1844 884 
L 3897 884 
L 3897 0 
L 506 0 
L 506 884 
L 2209 2388 
Q 2438 2594 2547 2791 
Q 2656 2988 2656 3200 
Q 2656 3528 2436 3728 
Q 2216 3928 1850 3928 
Q 1569 3928 1234 3808 
Q 900 3688 519 3450 
L 519 4475 
Q 925 4609 1322 4679 
Q 1719 4750 2100 4750 
Q 2938 4750 3402 4381 
Q 3866 4013 3866 3353 
Q 3866 2972 3669 2642 
Q 3472 2313 2841 1759 
L 1844 884 
z
" transform="scale(0.015625)"/>
     </defs>
     <use xlink:href="#DejaVuSans-Bold-4f"/>
     <use xlink:href="#DejaVuSans-Bold-72" transform="translate(85.009766 0)"/>
     <use xlink:href="#DejaVuSans-Bold-64" transform="translate(134.326172 0)"/>
     <use xlink:href="#DejaVuSans-Bold-65" transform="translate(205.908203 0)"/>
     <use xlink:href="#DejaVuSans-Bold-6d" transform="translate(273.730469 0)"/>
     <use xlink:href="#DejaVuSans-Bold-20" transform="translate(377.929688 0)"/>
     <use xlink:href="#DejaVuSans-Bold-32" transform="translate(412.744141 0)"/>
    </g>
   </g>
   <g id="text_3">
    <!-- Ordem 3 -->
    <g style="fill: #f1f1f1" transform="translate(10.752487 165.772864) scale(0.105 -0.105)">
     <defs>
      <path id="DejaVuSans-Bold-33" d="M 2981 2516 
Q 3453 2394 3698 2092 
Q 3944 1791 3944 1325 
Q 3944 631 3412 270 
Q 2881 -91 1863 -91 
Q 1503 -91 1142 -33 
Q 781 25 428 141 
L 428 1069 
Q 766 900 1098 814 
Q 1431 728 1753 728 
Q 2231 728 2486 893 
Q 2741 1059 2741 1369 
Q 2741 1688 2480 1852 
Q 2219 2016 1709 2016 
L 1228 2016 
L 1228 2791 
L 1734 2791 
Q 2188 2791 2409 2933 
Q 2631 3075 2631 3366 
Q 2631 3634 2415 3781 
Q 2200 3928 1806 3928 
Q 1516 3928 1219 3862 
Q 922 3797 628 3669 
L 628 4550 
Q 984 4650 1334 4700 
Q 1684 4750 2022 4750 
Q 2931 4750 3382 4451 
Q 3834 4153 3834 3553 
Q 3834 3144 3618 2883 
Q 3403 2622 2981 2516 
z
" transform="scale(0.015625)"/>
     </defs>
     <use xlink:href="#DejaVuSans-Bold-4f"/>
     <use xlink:href="#DejaVuSans-Bold-72" transform="translate(85.009766 0)"/>
     <use xlink:href="#DejaVuSans-Bold-64" transform="translate(134.326172 0)"/>
     <use xlink:href="#DejaVuSans-Bold-65" transform="translate(205.908203 0)"/>
     <use xlink:href="#DejaVuSans-Bold-6d" transform="translate(273.730469 0)"/>
     <use xlink:href="#DejaVuSans-Bold-20" transform="translate(377.929688 0)"/>
     <use xlink:href="#DejaVuSans-Bold-33" transform="translate(412.744141 0)"/>
    </g>
   </g>
   <g id="text_4">
    <!-- Ordem 4 -->
    <g style="fill: #f1f1f1" transform="translate(10.752487 126.853984) scale(0.105 -0.105)">
     <defs>
      <path id="DejaVuSans-Bold-34" d="M 2356 3675 
L 1038 1722 
L 2356 1722 
L 2356 3675 
z
M 2156 4666 
L 3494 4666 
L 3494 1722 
L 4159 1722 
L 4159 850 
L 3494 850 
L 3494 0 
L 2356 0 
L 2356 850 
L 288 850 
L 288 1881 
L 2156 4666 
z
" transform="scale(0.015625)"/>
     </defs>
     <use xlink:href="#DejaVuSans-Bold-4f"/>
     <use xlink:href="#DejaVuSans-Bold-72" transform="translate(85.009766 0)"/>
     <use xlink:href="#DejaVuSans-Bold-64" transform="translate(134.326172 0)"/>
     <use xlink:href="#DejaVuSans-Bold-65" transform="translate(205.908203 0)"/>
     <use xlink:href="#DejaVuSans-Bold-6d" transform="translate(273.730469 0)"/>
     <use xlink:href="#DejaVuSans-Bold-20" transform="translate(377.929688 0)"/>
     <use xlink:href="#DejaVuSans-Bold-34" transform="translate(412.744141 0)"/>
    </g>
   </g>
   <g id="text_5">
    <!-- Ordem 5 -->
    <g style="fill: #f1f1f1" transform="translate(10.752487 87.935104) scale(0.105 -0.105)">
     <defs>
      <path id="DejaVuSans-Bold-35" d="M 678 4666 
L 3669 4666 
L 3669 3781 
L 1638 3781 
L 1638 3059 
Q 1775 3097 1914 3117 
Q 2053 3138 2203 3138 
Q 3056 3138 3531 2711 
Q 4006 2284 4006 1522 
Q 4006 766 3489 337 
Q 2972 -91 2053 -91 
Q 1656 -91 1267 -14 
Q 878 63 494 219 
L 494 1166 
Q 875 947 1217 837 
Q 1559 728 1863 728 
Q 2300 728 2551 942 
Q 2803 1156 2803 1522 
Q 2803 1891 2551 2103 
Q 2300 2316 1863 2316 
Q 1603 2316 1309 2248 
Q 1016 2181 678 2041 
L 678 4666 
z
" transform="scale(0.015625)"/>
     </defs>
     <use xlink:href="#DejaVuSans-Bold-4f"/>
     <use xlink:href="#DejaVuSans-Bold-72" transform="translate(85.009766 0)"/>
     <use xlink:href="#DejaVuSans-Bold-64" transform="translate(134.326172 0)"/>
     <use xlink:href="#DejaVuSans-Bold-65" transform="translate(205.908203 0)"/>
     <use xlink:href="#DejaVuSans-Bold-6d" transform="translate(273.730469 0)"/>
     <use xlink:href="#DejaVuSans-Bold-20" transform="translate(377.929688 0)"/>
     <use xlink:href="#DejaVuSans-Bold-35" transform="translate(412.744141 0)"/>
    </g>
   </g>
   <g id="text_6">
    <!-- Ábaco Sumério — Disposição dos Cálculos em Tábuas de Argila -->
    <g style="fill: #f1f1f1" transform="translate(7.2 27.913361) scale(0.15 -0.15)">
     <defs>
      <path id="DejaVuSans-Bold-c1" d="M 3419 850 
L 1538 850 
L 1241 0 
L 31 0 
L 1759 4666 
L 3194 4666 
L 4922 0 
L 3713 0 
L 3419 850 
z
M 1838 1716 
L 3116 1716 
L 2478 3572 
L 1838 1716 
z
M 2559 5921 
L 3444 5921 
L 2553 5096 
L 1941 5096 
L 2559 5921 
z
" transform="scale(0.015625)"/>
      <path id="DejaVuSans-Bold-62" d="M 2400 722 
Q 2759 722 2948 984 
Q 3138 1247 3138 1747 
Q 3138 2247 2948 2509 
Q 2759 2772 2400 2772 
Q 2041 2772 1848 2508 
Q 1656 2244 1656 1747 
Q 1656 1250 1848 986 
Q 2041 722 2400 722 
z
M 1656 2988 
Q 1888 3294 2169 3439 
Q 2450 3584 2816 3584 
Q 3463 3584 3878 3070 
Q 4294 2556 4294 1747 
Q 4294 938 3878 423 
Q 3463 -91 2816 -91 
Q 2450 -91 2169 54 
Q 1888 200 1656 506 
L 1656 0 
L 538 0 
L 538 4863 
L 1656 4863 
L 1656 2988 
z
" transform="scale(0.015625)"/>
      <path id="DejaVuSans-Bold-61" d="M 2106 1575 
Q 1756 1575 1579 1456 
Q 1403 1338 1403 1106 
Q 1403 894 1545 773 
Q 1688 653 1941 653 
Q 2256 653 2472 879 
Q 2688 1106 2688 1447 
L 2688 1575 
L 2106 1575 
z
M 3816 1997 
L 3816 0 
L 2688 0 
L 2688 519 
Q 2463 200 2181 54 
Q 1900 -91 1497 -91 
Q 953 -91 614 226 
Q 275 544 275 1050 
Q 275 1666 698 1953 
Q 1122 2241 2028 2241 
L 2688 2241 
L 2688 2328 
Q 2688 2594 2478 2717 
Q 2269 2841 1825 2841 
Q 1466 2841 1156 2769 
Q 847 2697 581 2553 
L 581 3406 
Q 941 3494 1303 3539 
Q 1666 3584 2028 3584 
Q 2975 3584 3395 3211 
Q 3816 2838 3816 1997 
z
" transform="scale(0.015625)"/>
      <path id="DejaVuSans-Bold-63" d="M 3366 3391 
L 3366 2478 
Q 3138 2634 2908 2709 
Q 2678 2784 2431 2784 
Q 1963 2784 1702 2511 
Q 1441 2238 1441 1747 
Q 1441 1256 1702 982 
Q 1963 709 2431 709 
Q 2694 709 2930 787 
Q 3166 866 3366 1019 
L 3366 103 
Q 3103 6 2833 -42 
Q 2563 -91 2291 -91 
Q 1344 -91 809 395 
Q 275 881 275 1747 
Q 275 2613 809 3098 
Q 1344 3584 2291 3584 
Q 2566 3584 2833 3536 
Q 3100 3488 3366 3391 
z
" transform="scale(0.015625)"/>
      <path id="DejaVuSans-Bold-6f" d="M 2203 2784 
Q 1831 2784 1636 2517 
Q 1441 2250 1441 1747 
Q 1441 1244 1636 976 
Q 1831 709 2203 709 
Q 2569 709 2762 976 
Q 2956 1244 2956 1747 
Q 2956 2250 2762 2517 
Q 2569 2784 2203 2784 
z
M 2203 3584 
Q 3106 3584 3614 3096 
Q 4122 2609 4122 1747 
Q 4122 884 3614 396 
Q 3106 -91 2203 -91 
Q 1297 -91 786 396 
Q 275 884 275 1747 
Q 275 2609 786 3096 
Q 1297 3584 2203 3584 
z
" transform="scale(0.015625)"/>
      <path id="DejaVuSans-Bold-53" d="M 3834 4519 
L 3834 3531 
Q 3450 3703 3084 3790 
Q 2719 3878 2394 3878 
Q 1963 3878 1756 3759 
Q 1550 3641 1550 3391 
Q 1550 3203 1689 3098 
Q 1828 2994 2194 2919 
L 2706 2816 
Q 3484 2659 3812 2340 
Q 4141 2022 4141 1434 
Q 4141 663 3683 286 
Q 3225 -91 2284 -91 
Q 1841 -91 1394 -6 
Q 947 78 500 244 
L 500 1259 
Q 947 1022 1364 901 
Q 1781 781 2169 781 
Q 2563 781 2772 912 
Q 2981 1044 2981 1288 
Q 2981 1506 2839 1625 
Q 2697 1744 2272 1838 
L 1806 1941 
Q 1106 2091 782 2419 
Q 459 2747 459 3303 
Q 459 4000 909 4375 
Q 1359 4750 2203 4750 
Q 2588 4750 2994 4692 
Q 3400 4634 3834 4519 
z
" transform="scale(0.015625)"/>
      <path id="DejaVuSans-Bold-75" d="M 500 1363 
L 500 3500 
L 1625 3500 
L 1625 3150 
Q 1625 2866 1622 2436 
Q 1619 2006 1619 1863 
Q 1619 1441 1641 1255 
Q 1663 1069 1716 984 
Q 1784 875 1895 815 
Q 2006 756 2150 756 
Q 2500 756 2700 1025 
Q 2900 1294 2900 1772 
L 2900 3500 
L 4019 3500 
L 4019 0 
L 2900 0 
L 2900 506 
Q 2647 200 2364 54 
Q 2081 -91 1741 -91 
Q 1134 -91 817 281 
Q 500 653 500 1363 
z
" transform="scale(0.015625)"/>
      <path id="DejaVuSans-Bold-e9" d="M 4031 1759 
L 4031 1441 
L 1416 1441 
Q 1456 1047 1700 850 
Q 1944 653 2381 653 
Q 2734 653 3104 758 
Q 3475 863 3866 1075 
L 3866 213 
Q 3469 63 3072 -14 
Q 2675 -91 2278 -91 
Q 1328 -91 801 392 
Q 275 875 275 1747 
Q 275 2603 792 3093 
Q 1309 3584 2216 3584 
Q 3041 3584 3536 3087 
Q 4031 2591 4031 1759 
z
M 2881 2131 
Q 2881 2450 2695 2645 
Q 2509 2841 2209 2841 
Q 1884 2841 1681 2658 
Q 1478 2475 1428 2131 
L 2881 2131 
z
M 2702 5119 
L 3586 5119 
L 2433 3944 
L 1821 3944 
L 2702 5119 
z
" transform="scale(0.015625)"/>
      <path id="DejaVuSans-Bold-69" d="M 538 3500 
L 1656 3500 
L 1656 0 
L 538 0 
L 538 3500 
z
M 538 4863 
L 1656 4863 
L 1656 3950 
L 538 3950 
L 538 4863 
z
" transform="scale(0.015625)"/>
      <path id="DejaVuSans-Bold-2014" d="M 344 2156 
L 6056 2156 
L 6056 1350 
L 344 1350 
L 344 2156 
z
" transform="scale(0.015625)"/>
      <path id="DejaVuSans-Bold-44" d="M 1791 3756 
L 1791 909 
L 2222 909 
Q 2959 909 3348 1275 
Q 3738 1641 3738 2338 
Q 3738 3031 3350 3393 
Q 2963 3756 2222 3756 
L 1791 3756 
z
M 588 4666 
L 1856 4666 
Q 2919 4666 3439 4514 
Q 3959 4363 4331 4000 
Q 4659 3684 4818 3271 
Q 4978 2859 4978 2338 
Q 4978 1809 4818 1395 
Q 4659 981 4331 666 
Q 3956 303 3431 151 
Q 2906 0 1856 0 
L 588 0 
L 588 4666 
z
" transform="scale(0.015625)"/>
      <path id="DejaVuSans-Bold-73" d="M 3272 3391 
L 3272 2541 
Q 2913 2691 2578 2766 
Q 2244 2841 1947 2841 
Q 1628 2841 1473 2761 
Q 1319 2681 1319 2516 
Q 1319 2381 1436 2309 
Q 1553 2238 1856 2203 
L 2053 2175 
Q 2913 2066 3209 1816 
Q 3506 1566 3506 1031 
Q 3506 472 3093 190 
Q 2681 -91 1863 -91 
Q 1516 -91 1145 -36 
Q 775 19 384 128 
L 384 978 
Q 719 816 1070 734 
Q 1422 653 1784 653 
Q 2113 653 2278 743 
Q 2444 834 2444 1013 
Q 2444 1163 2330 1236 
Q 2216 1309 1875 1350 
L 1678 1375 
Q 931 1469 631 1722 
Q 331 1975 331 2491 
Q 331 3047 712 3315 
Q 1094 3584 1881 3584 
Q 2191 3584 2531 3537 
Q 2872 3491 3272 3391 
z
" transform="scale(0.015625)"/>
      <path id="DejaVuSans-Bold-70" d="M 1656 506 
L 1656 -1331 
L 538 -1331 
L 538 3500 
L 1656 3500 
L 1656 2988 
Q 1888 3294 2169 3439 
Q 2450 3584 2816 3584 
Q 3463 3584 3878 3070 
Q 4294 2556 4294 1747 
Q 4294 938 3878 423 
Q 3463 -91 2816 -91 
Q 2450 -91 2169 54 
Q 1888 200 1656 506 
z
M 2400 2772 
Q 2041 2772 1848 2508 
Q 1656 2244 1656 1747 
Q 1656 1250 1848 986 
Q 2041 722 2400 722 
Q 2759 722 2948 984 
Q 3138 1247 3138 1747 
Q 3138 2247 2948 2509 
Q 2759 2772 2400 2772 
z
" transform="scale(0.015625)"/>
      <path id="DejaVuSans-Bold-e7" d="M 3366 3391 
L 3366 2478 
Q 3138 2634 2908 2709 
Q 2678 2784 2431 2784 
Q 1963 2784 1702 2511 
Q 1441 2238 1441 1747 
Q 1441 1256 1702 982 
Q 1963 709 2431 709 
Q 2694 709 2930 787 
Q 3166 866 3366 1019 
L 3366 103 
Q 3103 6 2833 -42 
Q 2563 -91 2291 -91 
Q 1344 -91 809 395 
Q 275 881 275 1747 
Q 275 2613 809 3098 
Q 1344 3584 2291 3584 
Q 2566 3584 2833 3536 
Q 3100 3488 3366 3391 
z
M 2457 0 
Q 2639 -194 2724 -359 
Q 2810 -525 2810 -672 
Q 2810 -969 2618 -1111 
Q 2426 -1253 2029 -1253 
Q 1879 -1253 1719 -1233 
Q 1560 -1213 1398 -1172 
L 1395 -697 
Q 1551 -747 1680 -770 
Q 1810 -794 1914 -794 
Q 2095 -794 2196 -722 
Q 2298 -650 2298 -525 
Q 2298 -444 2231 -316 
Q 2164 -188 2023 0 
L 2457 0 
z
" transform="scale(0.015625)"/>
      <path id="DejaVuSans-Bold-e3" d="M 2106 1575 
Q 1756 1575 1579 1456 
Q 1403 1338 1403 1106 
Q 1403 894 1545 773 
Q 1688 653 1941 653 
Q 2256 653 2472 879 
Q 2688 1106 2688 1447 
L 2688 1575 
L 2106 1575 
z
M 3816 1997 
L 3816 0 
L 2688 0 
L 2688 519 
Q 2463 200 2181 54 
Q 1900 -91 1497 -91 
Q 953 -91 614 226 
Q 275 544 275 1050 
Q 275 1666 698 1953 
Q 1122 2241 2028 2241 
L 2688 2241 
L 2688 2328 
Q 2688 2594 2478 2717 
Q 2269 2841 1825 2841 
Q 1466 2841 1156 2769 
Q 847 2697 581 2553 
L 581 3406 
Q 941 3494 1303 3539 
Q 1666 3584 2028 3584 
Q 2975 3584 3395 3211 
Q 3816 2838 3816 1997 
z
M 2190 4263 
L 2018 4378 
Q 2006 4384 1987 4397 
Q 1840 4494 1762 4494 
Q 1650 4494 1590 4397 
Q 1531 4300 1531 4116 
L 1531 4091 
L 1097 4091 
Q 1097 4516 1257 4747 
Q 1418 4978 1709 4978 
Q 1822 4978 1936 4936 
Q 2050 4894 2178 4800 
L 2368 4666 
Q 2437 4619 2495 4594 
Q 2553 4569 2600 4569 
Q 2712 4569 2774 4669 
Q 2837 4769 2837 4947 
L 2837 4972 
L 3272 4972 
Q 3272 4547 3111 4315 
Q 2950 4084 2659 4084 
Q 2547 4084 2442 4121 
Q 2337 4159 2190 4263 
z
" transform="scale(0.015625)"/>
      <path id="DejaVuSans-Bold-43" d="M 4288 256 
Q 3956 84 3597 -3 
Q 3238 -91 2847 -91 
Q 1681 -91 1000 561 
Q 319 1213 319 2328 
Q 319 3447 1000 4098 
Q 1681 4750 2847 4750 
Q 3238 4750 3597 4662 
Q 3956 4575 4288 4403 
L 4288 3438 
Q 3953 3666 3628 3772 
Q 3303 3878 2944 3878 
Q 2300 3878 1931 3465 
Q 1563 3053 1563 2328 
Q 1563 1606 1931 1193 
Q 2300 781 2944 781 
Q 3303 781 3628 887 
Q 3953 994 4288 1222 
L 4288 256 
z
" transform="scale(0.015625)"/>
      <path id="DejaVuSans-Bold-e1" d="M 2106 1575 
Q 1756 1575 1579 1456 
Q 1403 1338 1403 1106 
Q 1403 894 1545 773 
Q 1688 653 1941 653 
Q 2256 653 2472 879 
Q 2688 1106 2688 1447 
L 2688 1575 
L 2106 1575 
z
M 3816 1997 
L 3816 0 
L 2688 0 
L 2688 519 
Q 2463 200 2181 54 
Q 1900 -91 1497 -91 
Q 953 -91 614 226 
Q 275 544 275 1050 
Q 275 1666 698 1953 
Q 1122 2241 2028 2241 
L 2688 2241 
L 2688 2328 
Q 2688 2594 2478 2717 
Q 2269 2841 1825 2841 
Q 1466 2841 1156 2769 
Q 847 2697 581 2553 
L 581 3406 
Q 941 3494 1303 3539 
Q 1666 3584 2028 3584 
Q 2975 3584 3395 3211 
Q 3816 2838 3816 1997 
z
M 2606 5119 
L 3490 5119 
L 2337 3944 
L 1725 3944 
L 2606 5119 
z
" transform="scale(0.015625)"/>
      <path id="DejaVuSans-Bold-6c" d="M 538 4863 
L 1656 4863 
L 1656 0 
L 538 0 
L 538 4863 
z
" transform="scale(0.015625)"/>
      <path id="DejaVuSans-Bold-54" d="M 31 4666 
L 4331 4666 
L 4331 3756 
L 2784 3756 
L 2784 0 
L 1581 0 
L 1581 3756 
L 31 3756 
L 31 4666 
z
" transform="scale(0.015625)"/>
      <path id="DejaVuSans-Bold-41" d="M 3419 850 
L 1538 850 
L 1241 0 
L 31 0 
L 1759 4666 
L 3194 4666 
L 4922 0 
L 3713 0 
L 3419 850 
z
M 1838 1716 
L 3116 1716 
L 2478 3572 
L 1838 1716 
z
" transform="scale(0.015625)"/>
      <path id="DejaVuSans-Bold-67" d="M 2919 594 
Q 2688 288 2409 144 
Q 2131 0 1766 0 
Q 1125 0 706 504 
Q 288 1009 288 1791 
Q 288 2575 706 3076 
Q 1125 3578 1766 3578 
Q 2131 3578 2409 3434 
Q 2688 3291 2919 2981 
L 2919 3500 
L 4044 3500 
L 4044 353 
Q 4044 -491 3511 -936 
Q 2978 -1381 1966 -1381 
Q 1638 -1381 1331 -1331 
Q 1025 -1281 716 -1178 
L 716 -306 
Q 1009 -475 1290 -558 
Q 1572 -641 1856 -641 
Q 2406 -641 2662 -400 
Q 2919 -159 2919 353 
L 2919 594 
z
M 2181 2772 
Q 1834 2772 1640 2515 
Q 1447 2259 1447 1791 
Q 1447 1309 1634 1061 
Q 1822 813 2181 813 
Q 2531 813 2725 1069 
Q 2919 1325 2919 1791 
Q 2919 2259 2725 2515 
Q 2531 2772 2181 2772 
z
" transform="scale(0.015625)"/>
     </defs>
     <use xlink:href="#DejaVuSans-Bold-c1"/>
     <use xlink:href="#DejaVuSans-Bold-62" transform="translate(77.392578 0)"/>
     <use xlink:href="#DejaVuSans-Bold-61" transform="translate(148.974609 0)"/>
     <use xlink:href="#DejaVuSans-Bold-63" transform="translate(216.455078 0)"/>
     <use xlink:href="#DejaVuSans-Bold-6f" transform="translate(275.732422 0)"/>
     <use xlink:href="#DejaVuSans-Bold-20" transform="translate(344.433594 0)"/>
     <use xlink:href="#DejaVuSans-Bold-53" transform="translate(379.248047 0)"/>
     <use xlink:href="#DejaVuSans-Bold-75" transform="translate(451.269531 0)"/>
     <use xlink:href="#DejaVuSans-Bold-6d" transform="translate(522.460938 0)"/>
     <use xlink:href="#DejaVuSans-Bold-e9" transform="translate(626.660156 0)"/>
     <use xlink:href="#DejaVuSans-Bold-72" transform="translate(694.482422 0)"/>
     <use xlink:href="#DejaVuSans-Bold-69" transform="translate(743.798828 0)"/>
     <use xlink:href="#DejaVuSans-Bold-6f" transform="translate(778.076172 0)"/>
     <use xlink:href="#DejaVuSans-Bold-20" transform="translate(846.777344 0)"/>
     <use xlink:href="#DejaVuSans-Bold-2014" transform="translate(881.591797 0)"/>
     <use xlink:href="#DejaVuSans-Bold-20" transform="translate(981.591797 0)"/>
     <use xlink:href="#DejaVuSans-Bold-44" transform="translate(1016.40625 0)"/>
     <use xlink:href="#DejaVuSans-Bold-69" transform="translate(1099.414062 0)"/>
     <use xlink:href="#DejaVuSans-Bold-73" transform="translate(1133.691406 0)"/>
     <use xlink:href="#DejaVuSans-Bold-70" transform="translate(1193.212891 0)"/>
     <use xlink:href="#DejaVuSans-Bold-6f" transform="translate(1264.794922 0)"/>
     <use xlink:href="#DejaVuSans-Bold-73" transform="translate(1333.496094 0)"/>
     <use xlink:href="#DejaVuSans-Bold-69" transform="translate(1393.017578 0)"/>
     <use xlink:href="#DejaVuSans-Bold-e7" transform="translate(1427.294922 0)"/>
     <use xlink:href="#DejaVuSans-Bold-e3" transform="translate(1486.572266 0)"/>
     <use xlink:href="#DejaVuSans-Bold-6f" transform="translate(1554.052734 0)"/>
     <use xlink:href="#DejaVuSans-Bold-20" transform="translate(1622.753906 0)"/>
     <use xlink:href="#DejaVuSans-Bold-64" transform="translate(1657.568359 0)"/>
     <use xlink:href="#DejaVuSans-Bold-6f" transform="translate(1729.150391 0)"/>
     <use xlink:href="#DejaVuSans-Bold-73" transform="translate(1797.851562 0)"/>
     <use xlink:href="#DejaVuSans-Bold-20" transform="translate(1857.373047 0)"/>
     <use xlink:href="#DejaVuSans-Bold-43" transform="translate(1892.1875 0)"/>
     <use xlink:href="#DejaVuSans-Bold-e1" transform="translate(1965.576172 0)"/>
     <use xlink:href="#DejaVuSans-Bold-6c" transform="translate(2033.056641 0)"/>
     <use xlink:href="#DejaVuSans-Bold-63" transform="translate(2067.333984 0)"/>
     <use xlink:href="#DejaVuSans-Bold-75" transform="translate(2126.611328 0)"/>
     <use xlink:href="#DejaVuSans-Bold-6c" transform="translate(2197.802734 0)"/>
     <use xlink:href="#DejaVuSans-Bold-6f" transform="translate(2232.080078 0)"/>
     <use xlink:href="#DejaVuSans-Bold-73" transform="translate(2300.78125 0)"/>
     <use xlink:href="#DejaVuSans-Bold-20" transform="translate(2360.302734 0)"/>
     <use xlink:href="#DejaVuSans-Bold-65" transform="translate(2395.117188 0)"/>
     <use xlink:href="#DejaVuSans-Bold-6d" transform="translate(2462.939453 0)"/>
     <use xlink:href="#DejaVuSans-Bold-20" transform="translate(2567.138672 0)"/>
     <use xlink:href="#DejaVuSans-Bold-54" transform="translate(2601.953125 0)"/>
     <use xlink:href="#DejaVuSans-Bold-e1" transform="translate(2657.291016 0)"/>
     <use xlink:href="#DejaVuSans-Bold-62" transform="translate(2724.771484 0)"/>
     <use xlink:href="#DejaVuSans-Bold-75" transform="translate(2796.353516 0)"/>
     <use xlink:href="#DejaVuSans-Bold-61" transform="translate(2867.544922 0)"/>
     <use xlink:href="#DejaVuSans-Bold-73" transform="translate(2935.025391 0)"/>
     <use xlink:href="#DejaVuSans-Bold-20" transform="translate(2994.546875 0)"/>
     <use xlink:href="#DejaVuSans-Bold-64" transform="translate(3029.361328 0)"/>
     <use xlink:href="#DejaVuSans-Bold-65" transform="translate(3100.943359 0)"/>
     <use xlink:href="#DejaVuSans-Bold-20" transform="translate(3168.765625 0)"/>
     <use xlink:href="#DejaVuSans-Bold-41" transform="translate(3203.580078 0)"/>
     <use xlink:href="#DejaVuSans-Bold-72" transform="translate(3280.972656 0)"/>
     <use xlink:href="#DejaVuSans-Bold-67" transform="translate(3330.289062 0)"/>
     <use xlink:href="#DejaVuSans-Bold-69" transform="translate(3401.871094 0)"/>
     <use xlink:href="#DejaVuSans-Bold-6c" transform="translate(3436.148438 0)"/>
     <use xlink:href="#DejaVuSans-Bold-61" transform="translate(3470.425781 0)"/>
    </g>
   </g>
   <g id="text_7">
    <!-- Linhas = ordens; círculos = cálculos móveis (pedrinhas). -->
    <g style="fill: #cfd2d8" transform="translate(123.473672 285.036759) scale(0.105 -0.105)">
     <defs>
      <path id="DejaVuSans-4c" d="M 628 4666 
L 1259 4666 
L 1259 531 
L 3531 531 
L 3531 0 
L 628 0 
L 628 4666 
z
" transform="scale(0.015625)"/>
      <path id="DejaVuSans-69" d="M 603 3500 
L 1178 3500 
L 1178 0 
L 603 0 
L 603 3500 
z
M 603 4863 
L 1178 4863 
L 1178 4134 
L 603 4134 
L 603 4863 
z
" transform="scale(0.015625)"/>
      <path id="DejaVuSans-6e" d="M 3513 2113 
L 3513 0 
L 2938 0 
L 2938 2094 
Q 2938 2591 2744 2837 
Q 2550 3084 2163 3084 
Q 1697 3084 1428 2787 
Q 1159 2491 1159 1978 
L 1159 0 
L 581 0 
L 581 3500 
L 1159 3500 
L 1159 2956 
Q 1366 3272 1645 3428 
Q 1925 3584 2291 3584 
Q 2894 3584 3203 3211 
Q 3513 2838 3513 2113 
z
" transform="scale(0.015625)"/>
      <path id="DejaVuSans-68" d="M 3513 2113 
L 3513 0 
L 2938 0 
L 2938 2094 
Q 2938 2591 2744 2837 
Q 2550 3084 2163 3084 
Q 1697 3084 1428 2787 
Q 1159 2491 1159 1978 
L 1159 0 
L 581 0 
L 581 4863 
L 1159 4863 
L 1159 2956 
Q 1366 3272 1645 3428 
Q 1925 3584 2291 3584 
Q 2894 3584 3203 3211 
Q 3513 2838 3513 2113 
z
" transform="scale(0.015625)"/>
      <path id="DejaVuSans-61" d="M 2194 1759 
Q 1497 1759 1228 1600 
Q 959 1441 959 1056 
Q 959 750 1161 570 
Q 1363 391 1709 391 
Q 2188 391 2477 730 
Q 2766 1069 2766 1631 
L 2766 1759 
L 2194 1759 
z
M 3341 1997 
L 3341 0 
L 2766 0 
L 2766 531 
Q 2569 213 2275 61 
Q 1981 -91 1556 -91 
Q 1019 -91 701 211 
Q 384 513 384 1019 
Q 384 1609 779 1909 
Q 1175 2209 1959 2209 
L 2766 2209 
L 2766 2266 
Q 2766 2663 2505 2880 
Q 2244 3097 1772 3097 
Q 1472 3097 1187 3025 
Q 903 2953 641 2809 
L 641 3341 
Q 956 3463 1253 3523 
Q 1550 3584 1831 3584 
Q 2591 3584 2966 3190 
Q 3341 2797 3341 1997 
z
" transform="scale(0.015625)"/>
      <path id="DejaVuSans-73" d="M 2834 3397 
L 2834 2853 
Q 2591 2978 2328 3040 
Q 2066 3103 1784 3103 
Q 1356 3103 1142 2972 
Q 928 2841 928 2578 
Q 928 2378 1081 2264 
Q 1234 2150 1697 2047 
L 1894 2003 
Q 2506 1872 2764 1633 
Q 3022 1394 3022 966 
Q 3022 478 2636 193 
Q 2250 -91 1575 -91 
Q 1294 -91 989 -36 
Q 684 19 347 128 
L 347 722 
Q 666 556 975 473 
Q 1284 391 1588 391 
Q 1994 391 2212 530 
Q 2431 669 2431 922 
Q 2431 1156 2273 1281 
Q 2116 1406 1581 1522 
L 1381 1569 
Q 847 1681 609 1914 
Q 372 2147 372 2553 
Q 372 3047 722 3315 
Q 1072 3584 1716 3584 
Q 2034 3584 2315 3537 
Q 2597 3491 2834 3397 
z
" transform="scale(0.015625)"/>
      <path id="DejaVuSans-20" transform="scale(0.015625)"/>
      <path id="DejaVuSans-3d" d="M 678 2906 
L 4684 2906 
L 4684 2381 
L 678 2381 
L 678 2906 
z
M 678 1631 
L 4684 1631 
L 4684 1100 
L 678 1100 
L 678 1631 
z
" transform="scale(0.015625)"/>
      <path id="DejaVuSans-6f" d="M 1959 3097 
Q 1497 3097 1228 2736 
Q 959 2375 959 1747 
Q 959 1119 1226 758 
Q 1494 397 1959 397 
Q 2419 397 2687 759 
Q 2956 1122 2956 1747 
Q 2956 2369 2687 2733 
Q 2419 3097 1959 3097 
z
M 1959 3584 
Q 2709 3584 3137 3096 
Q 3566 2609 3566 1747 
Q 3566 888 3137 398 
Q 2709 -91 1959 -91 
Q 1206 -91 779 398 
Q 353 888 353 1747 
Q 353 2609 779 3096 
Q 1206 3584 1959 3584 
z
" transform="scale(0.015625)"/>
      <path id="DejaVuSans-72" d="M 2631 2963 
Q 2534 3019 2420 3045 
Q 2306 3072 2169 3072 
Q 1681 3072 1420 2755 
Q 1159 2438 1159 1844 
L 1159 0 
L 581 0 
L 581 3500 
L 1159 3500 
L 1159 2956 
Q 1341 3275 1631 3429 
Q 1922 3584 2338 3584 
Q 2397 3584 2469 3576 
Q 2541 3569 2628 3553 
L 2631 2963 
z
" transform="scale(0.015625)"/>
      <path id="DejaVuSans-64" d="M 2906 2969 
L 2906 4863 
L 3481 4863 
L 3481 0 
L 2906 0 
L 2906 525 
Q 2725 213 2448 61 
Q 2172 -91 1784 -91 
Q 1150 -91 751 415 
Q 353 922 353 1747 
Q 353 2572 751 3078 
Q 1150 3584 1784 3584 
Q 2172 3584 2448 3432 
Q 2725 3281 2906 2969 
z
M 947 1747 
Q 947 1113 1208 752 
Q 1469 391 1925 391 
Q 2381 391 2643 752 
Q 2906 1113 2906 1747 
Q 2906 2381 2643 2742 
Q 2381 3103 1925 3103 
Q 1469 3103 1208 2742 
Q 947 2381 947 1747 
z
" transform="scale(0.015625)"/>
      <path id="DejaVuSans-65" d="M 3597 1894 
L 3597 1613 
L 953 1613 
Q 991 1019 1311 708 
Q 1631 397 2203 397 
Q 2534 397 2845 478 
Q 3156 559 3463 722 
L 3463 178 
Q 3153 47 2828 -22 
Q 2503 -91 2169 -91 
Q 1331 -91 842 396 
Q 353 884 353 1716 
Q 353 2575 817 3079 
Q 1281 3584 2069 3584 
Q 2775 3584 3186 3129 
Q 3597 2675 3597 1894 
z
M 3022 2063 
Q 3016 2534 2758 2815 
Q 2500 3097 2075 3097 
Q 1594 3097 1305 2825 
Q 1016 2553 972 2059 
L 3022 2063 
z
" transform="scale(0.015625)"/>
      <path id="DejaVuSans-3b" d="M 750 3309 
L 1409 3309 
L 1409 2516 
L 750 2516 
L 750 3309 
z
M 750 794 
L 1409 794 
L 1409 256 
L 897 -744 
L 494 -744 
L 750 256 
L 750 794 
z
" transform="scale(0.015625)"/>
      <path id="DejaVuSans-63" d="M 3122 3366 
L 3122 2828 
Q 2878 2963 2633 3030 
Q 2388 3097 2138 3097 
Q 1578 3097 1268 2742 
Q 959 2388 959 1747 
Q 959 1106 1268 751 
Q 1578 397 2138 397 
Q 2388 397 2633 464 
Q 2878 531 3122 666 
L 3122 134 
Q 2881 22 2623 -34 
Q 2366 -91 2075 -91 
Q 1284 -91 818 406 
Q 353 903 353 1747 
Q 353 2603 823 3093 
Q 1294 3584 2113 3584 
Q 2378 3584 2631 3529 
Q 2884 3475 3122 3366 
z
" transform="scale(0.015625)"/>
      <path id="DejaVuSans-ed" d="M 1322 5119 
L 1944 5119 
L 926 3944 
L 447 3944 
L 1322 5119 
z
M 603 3500 
L 1178 3500 
L 1178 0 
L 603 0 
L 603 3500 
z
M 891 3584 
L 891 3584 
z
" transform="scale(0.015625)"/>
      <path id="DejaVuSans-75" d="M 544 1381 
L 544 3500 
L 1119 3500 
L 1119 1403 
Q 1119 906 1312 657 
Q 1506 409 1894 409 
Q 2359 409 2629 706 
Q 2900 1003 2900 1516 
L 2900 3500 
L 3475 3500 
L 3475 0 
L 2900 0 
L 2900 538 
Q 2691 219 2414 64 
Q 2138 -91 1772 -91 
Q 1169 -91 856 284 
Q 544 659 544 1381 
z
M 1991 3584 
L 1991 3584 
z
" transform="scale(0.015625)"/>
      <path id="DejaVuSans-6c" d="M 603 4863 
L 1178 4863 
L 1178 0 
L 603 0 
L 603 4863 
z
" transform="scale(0.015625)"/>
      <path id="DejaVuSans-e1" d="M 2194 1759 
Q 1497 1759 1228 1600 
Q 959 1441 959 1056 
Q 959 750 1161 570 
Q 1363 391 1709 391 
Q 2188 391 2477 730 
Q 2766 1069 2766 1631 
L 2766 1759 
L 2194 1759 
z
M 3341 1997 
L 3341 0 
L 2766 0 
L 2766 531 
Q 2569 213 2275 61 
Q 1981 -91 1556 -91 
Q 1019 -91 701 211 
Q 384 513 384 1019 
Q 384 1609 779 1909 
Q 1175 2209 1959 2209 
L 2766 2209 
L 2766 2266 
Q 2766 2663 2505 2880 
Q 2244 3097 1772 3097 
Q 1472 3097 1187 3025 
Q 903 2953 641 2809 
L 641 3341 
Q 956 3463 1253 3523 
Q 1550 3584 1831 3584 
Q 2591 3584 2966 3190 
Q 3341 2797 3341 1997 
z
M 2290 5119 
L 2912 5119 
L 1894 3944 
L 1415 3944 
L 2290 5119 
z
" transform="scale(0.015625)"/>
      <path id="DejaVuSans-6d" d="M 3328 2828 
Q 3544 3216 3844 3400 
Q 4144 3584 4550 3584 
Q 5097 3584 5394 3201 
Q 5691 2819 5691 2113 
L 5691 0 
L 5113 0 
L 5113 2094 
Q 5113 2597 4934 2840 
Q 4756 3084 4391 3084 
Q 3944 3084 3684 2787 
Q 3425 2491 3425 1978 
L 3425 0 
L 2847 0 
L 2847 2094 
Q 2847 2600 2669 2842 
Q 2491 3084 2119 3084 
Q 1678 3084 1418 2786 
Q 1159 2488 1159 1978 
L 1159 0 
L 581 0 
L 581 3500 
L 1159 3500 
L 1159 2956 
Q 1356 3278 1631 3431 
Q 1906 3584 2284 3584 
Q 2666 3584 2933 3390 
Q 3200 3197 3328 2828 
z
" transform="scale(0.015625)"/>
      <path id="DejaVuSans-f3" d="M 1959 3097 
Q 1497 3097 1228 2736 
Q 959 2375 959 1747 
Q 959 1119 1226 758 
Q 1494 397 1959 397 
Q 2419 397 2687 759 
Q 2956 1122 2956 1747 
Q 2956 2369 2687 2733 
Q 2419 3097 1959 3097 
z
M 1959 3584 
Q 2709 3584 3137 3096 
Q 3566 2609 3566 1747 
Q 3566 888 3137 398 
Q 2709 -91 1959 -91 
Q 1206 -91 779 398 
Q 353 888 353 1747 
Q 353 2609 779 3096 
Q 1206 3584 1959 3584 
z
M 2394 5119 
L 3016 5119 
L 1998 3944 
L 1519 3944 
L 2394 5119 
z
" transform="scale(0.015625)"/>
      <path id="DejaVuSans-76" d="M 191 3500 
L 800 3500 
L 1894 563 
L 2988 3500 
L 3597 3500 
L 2284 0 
L 1503 0 
L 191 3500 
z
" transform="scale(0.015625)"/>
      <path id="DejaVuSans-28" d="M 1984 4856 
Q 1566 4138 1362 3434 
Q 1159 2731 1159 2009 
Q 1159 1288 1364 580 
Q 1569 -128 1984 -844 
L 1484 -844 
Q 1016 -109 783 600 
Q 550 1309 550 2009 
Q 550 2706 781 3412 
Q 1013 4119 1484 4856 
L 1984 4856 
z
" transform="scale(0.015625)"/>
      <path id="DejaVuSans-70" d="M 1159 525 
L 1159 -1331 
L 581 -1331 
L 581 3500 
L 1159 3500 
L 1159 2969 
Q 1341 3281 1617 3432 
Q 1894 3584 2278 3584 
Q 2916 3584 3314 3078 
Q 3713 2572 3713 1747 
Q 3713 922 3314 415 
Q 2916 -91 2278 -91 
Q 1894 -91 1617 61 
Q 1341 213 1159 525 
z
M 3116 1747 
Q 3116 2381 2855 2742 
Q 2594 3103 2138 3103 
Q 1681 3103 1420 2742 
Q 1159 2381 1159 1747 
Q 1159 1113 1420 752 
Q 1681 391 2138 391 
Q 2594 391 2855 752 
Q 3116 1113 3116 1747 
z
" transform="scale(0.015625)"/>
      <path id="DejaVuSans-29" d="M 513 4856 
L 1013 4856 
Q 1481 4119 1714 3412 
Q 1947 2706 1947 2009 
Q 1947 1309 1714 600 
Q 1481 -109 1013 -844 
L 513 -844 
Q 928 -128 1133 580 
Q 1338 1288 1338 2009 
Q 1338 2731 1133 3434 
Q 928 4138 513 4856 
z
" transform="scale(0.015625)"/>
      <path id="DejaVuSans-2e" d="M 684 794 
L 1344 794 
L 1344 0 
L 684 0 
L 684 794 
z
" transform="scale(0.015625)"/>
     </defs>
     <use xlink:href="#DejaVuSans-4c"/>
     <use xlink:href="#DejaVuSans-69" transform="translate(55.712891 0)"/>
     <use xlink:href="#DejaVuSans-6e" transform="translate(83.496094 0)"/>
     <use xlink:href="#DejaVuSans-68" transform="translate(146.875 0)"/>
     <use xlink:href="#DejaVuSans-61" transform="translate(210.253906 0)"/>
     <use xlink:href="#DejaVuSans-73" transform="translate(271.533203 0)"/>
     <use xlink:href="#DejaVuSans-20" transform="translate(323.632812 0)"/>
     <use xlink:href="#DejaVuSans-3d" transform="translate(355.419922 0)"/>
     <use xlink:href="#DejaVuSans-20" transform="translate(439.208984 0)"/>
     <use xlink:href="#DejaVuSans-6f" transform="translate(470.996094 0)"/>
     <use xlink:href="#DejaVuSans-72" transform="translate(532.177734 0)"/>
     <use xlink:href="#DejaVuSans-64" transform="translate(571.541016 0)"/>
     <use xlink:href="#DejaVuSans-65" transform="translate(635.017578 0)"/>
     <use xlink:href="#DejaVuSans-6e" transform="translate(696.541016 0)"/>
     <use xlink:href="#DejaVuSans-73" transform="translate(759.919922 0)"/>
     <use xlink:href="#DejaVuSans-3b" transform="translate(812.019531 0)"/>
     <use xlink:href="#DejaVuSans-20" transform="translate(845.710938 0)"/>
     <use xlink:href="#DejaVuSans-63" transform="translate(877.498047 0)"/>
     <use xlink:href="#DejaVuSans-ed" transform="translate(932.478516 0)"/>
     <use xlink:href="#DejaVuSans-72" transform="translate(960.261719 0)"/>
     <use xlink:href="#DejaVuSans-63" transform="translate(999.125 0)"/>
     <use xlink:href="#DejaVuSans-75" transform="translate(1054.105469 0)"/>
     <use xlink:href="#DejaVuSans-6c" transform="translate(1117.484375 0)"/>
     <use xlink:href="#DejaVuSans-6f" transform="translate(1145.267578 0)"/>
     <use xlink:href="#DejaVuSans-73" transform="translate(1206.449219 0)"/>
     <use xlink:href="#DejaVuSans-20" transform="translate(1258.548828 0)"/>
     <use xlink:href="#DejaVuSans-3d" transform="translate(1290.335938 0)"/>
     <use xlink:href="#DejaVuSans-20" transform="translate(1374.125 0)"/>
     <use xlink:href="#DejaVuSans-63" transform="translate(1405.912109 0)"/>
     <use xlink:href="#DejaVuSans-e1" transform="translate(1460.892578 0)"/>
     <use xlink:href="#DejaVuSans-6c" transform="translate(1522.171875 0)"/>
     <use xlink:href="#DejaVuSans-63" transform="translate(1549.955078 0)"/>
     <use xlink:href="#DejaVuSans-75" transform="translate(1604.935547 0)"/>
     <use xlink:href="#DejaVuSans-6c" transform="translate(1668.314453 0)"/>
     <use xlink:href="#DejaVuSans-6f" transform="translate(1696.097656 0)"/>
     <use xlink:href="#DejaVuSans-73" transform="translate(1757.279297 0)"/>
     <use xlink:href="#DejaVuSans-20" transform="translate(1809.378906 0)"/>
     <use xlink:href="#DejaVuSans-6d" transform="translate(1841.166016 0)"/>
     <use xlink:href="#DejaVuSans-f3" transform="translate(1938.578125 0)"/>
     <use xlink:href="#DejaVuSans-76" transform="translate(1999.759766 0)"/>
     <use xlink:href="#DejaVuSans-65" transform="translate(2058.939453 0)"/>
     <use xlink:href="#DejaVuSans-69" transform="translate(2120.462891 0)"/>
     <use xlink:href="#DejaVuSans-73" transform="translate(2148.246094 0)"/>
     <use xlink:href="#DejaVuSans-20" transform="translate(2200.345703 0)"/>
     <use xlink:href="#DejaVuSans-28" transform="translate(2232.132812 0)"/>
     <use xlink:href="#DejaVuSans-70" transform="translate(2271.146484 0)"/>
     <use xlink:href="#DejaVuSans-65" transform="translate(2334.623047 0)"/>
     <use xlink:href="#DejaVuSans-64" transform="translate(2396.146484 0)"/>
     <use xlink:href="#DejaVuSans-72" transform="translate(2459.623047 0)"/>
     <use xlink:href="#DejaVuSans-69" transform="translate(2500.736328 0)"/>
     <use xlink:href="#DejaVuSans-6e" transform="translate(2528.519531 0)"/>
     <use xlink:href="#DejaVuSans-68" transform="translate(2591.898438 0)"/>
     <use xlink:href="#DejaVuSans-61" transform="translate(2655.277344 0)"/>
     <use xlink:href="#DejaVuSans-73" transform="translate(2716.556641 0)"/>
     <use xlink:href="#DejaVuSans-29" transform="translate(2768.65625 0)"/>
     <use xlink:href="#DejaVuSans-2e" transform="translate(2807.669922 0)"/>
    </g>
   </g>
  </g>
 </g>
 <defs>
  <clipPath id="pe8bff60f46">
   <rect x="32.604141" y="7.2" width="479.88" height="299.376"/>
  </clipPath>
 </defs>
</svg>
