<?xml version="1.0" encoding="utf-8" standalone="no"?>
<!DOCTYPE svg PUBLIC "-//W3C//DTD SVG 1.1//EN"
  "http://www.w3.org/Graphics/SVG/1.1/DTD/svg11.dtd">
<svg xmlns:xlink="http://www.w3.org/1999/xlink" width="497.022562pt" height="617.072297pt" viewBox="0 0 497.022562 617.072297" xmlns="http://www.w3.org/2000/svg" version="1.1">
 <metadata>
  <rdf:RDF xmlns:dc="http://purl.org/dc/elements/1.1/" xmlns:cc="http://creativecommons.org/ns#" xmlns:rdf="http://www.w3.org/1999/02/22-rdf-syntax-ns#">
   <cc:Work>
    <dc:type rdf:resource="http://purl.org/dc/dcmitype/StillImage"/>
    <dc:date>2025-10-25T20:02:24.952048</dc:date>
    <dc:format>image/svg+xml</dc:format>
    <dc:creator>
     <cc:Agent>
      <dc:title>Matplotlib v3.10.7, https://matplotlib.org/</dc:title>
     </cc:Agent>
    </dc:creator>
   </cc:Work>
  </rdf:RDF>
 </metadata>
 <defs>
  <style type="text/css">*{stroke-linejoin: round; stroke-linecap: butt}</style>
 </defs>
 <g id="figure_1">
  <g id="patch_1">
   <path d="M 0 617.072297 
L 497.022562 617.072297 
L 497.022562 -0 
L 0 -0 
z
" style="fill: #111217"/>
  </g>
  <g id="axes_1">
   <g id="patch_2">
    <path d="M 61.023281 536.913257 
L 435.999281 536.913257 
L 435.999281 41.834057 
L 61.023281 41.834057 
z
" clip-path="url(#pc506181f79)" style="fill: #1d1f25; stroke: #2c313a; stroke-width: 1.2; stroke-linejoin: miter"/>
   </g>
   <g id="LineCollection_1">
    <path d="M 107.895281 521.279177 
L 145.392881 521.279177 
" clip-path="url(#pc506181f79)" style="fill: none; stroke: #6ea8fe; stroke-width: 2.2; stroke-linecap: round"/>
    <path d="M 107.895281 515.025545 
L 145.392881 515.025545 
" clip-path="url(#pc506181f79)" style="fill: none; stroke: #6ea8fe; stroke-width: 2.2; stroke-linecap: round"/>
    <path d="M 107.895281 508.771913 
L 145.392881 508.771913 
" clip-path="url(#pc506181f79)" style="fill: none; stroke: #6ea8fe; stroke-width: 2.2; stroke-linecap: round"/>
    <path d="M 107.895281 502.518281 
L 145.392881 502.518281 
" clip-path="url(#pc506181f79)" style="fill: none; stroke: #6ea8fe; stroke-width: 2.2; stroke-linecap: round"/>
    <path d="M 107.895281 496.264649 
L 145.392881 496.264649 
" clip-path="url(#pc506181f79)" style="fill: none; stroke: #6ea8fe; stroke-width: 2.2; stroke-linecap: round"/>
    <path d="M 107.895281 490.011017 
L 145.392881 490.011017 
" clip-path="url(#pc506181f79)" style="fill: none; stroke: #6ea8fe; stroke-width: 2.2; stroke-linecap: round"/>
    <path d="M 107.895281 483.757385 
L 145.392881 483.757385 
" clip-path="url(#pc506181f79)" style="fill: none; stroke: #6ea8fe; stroke-width: 2.2; stroke-linecap: round"/>
    <path d="M 107.895281 477.503753 
L 145.392881 477.503753 
" clip-path="url(#pc506181f79)" style="fill: none; stroke: #6ea8fe; stroke-width: 2.2; stroke-linecap: round"/>
    <path d="M 107.895281 471.250121 
L 145.392881 471.250121 
" clip-path="url(#pc506181f79)" style="fill: none; stroke: #6ea8fe; stroke-width: 2.2; stroke-linecap: round"/>
    <path d="M 107.895281 464.996489 
L 145.392881 464.996489 
" clip-path="url(#pc506181f79)" style="fill: none; stroke: #6ea8fe; stroke-width: 2.2; stroke-linecap: round"/>
    <path d="M 107.895281 458.742857 
L 145.392881 458.742857 
" clip-path="url(#pc506181f79)" style="fill: none; stroke: #6ea8fe; stroke-width: 2.2; stroke-linecap: round"/>
    <path d="M 107.895281 432.686057 
L 145.392881 432.686057 
" clip-path="url(#pc506181f79)" style="fill: none; stroke: #6ea8fe; stroke-width: 2.2; stroke-linecap: round"/>
    <path d="M 107.895281 426.432425 
L 145.392881 426.432425 
" clip-path="url(#pc506181f79)" style="fill: none; stroke: #6ea8fe; stroke-width: 2.2; stroke-linecap: round"/>
    <path d="M 107.895281 420.178793 
L 145.392881 420.178793 
" clip-path="url(#pc506181f79)" style="fill: none; stroke: #6ea8fe; stroke-width: 2.2; stroke-linecap: round"/>
    <path d="M 107.895281 413.925161 
L 145.392881 413.925161 
" clip-path="url(#pc506181f79)" style="fill: none; stroke: #6ea8fe; stroke-width: 2.2; stroke-linecap: round"/>
    <path d="M 107.895281 407.671529 
L 145.392881 407.671529 
" clip-path="url(#pc506181f79)" style="fill: none; stroke: #6ea8fe; stroke-width: 2.2; stroke-linecap: round"/>
    <path d="M 107.895281 401.417897 
L 145.392881 401.417897 
" clip-path="url(#pc506181f79)" style="fill: none; stroke: #6ea8fe; stroke-width: 2.2; stroke-linecap: round"/>
    <path d="M 107.895281 395.164265 
L 145.392881 395.164265 
" clip-path="url(#pc506181f79)" style="fill: none; stroke: #6ea8fe; stroke-width: 2.2; stroke-linecap: round"/>
    <path d="M 107.895281 388.910633 
L 145.392881 388.910633 
" clip-path="url(#pc506181f79)" style="fill: none; stroke: #6ea8fe; stroke-width: 2.2; stroke-linecap: round"/>
    <path d="M 107.895281 382.657001 
L 145.392881 382.657001 
" clip-path="url(#pc506181f79)" style="fill: none; stroke: #6ea8fe; stroke-width: 2.2; stroke-linecap: round"/>
    <path d="M 107.895281 376.403369 
L 145.392881 376.403369 
" clip-path="url(#pc506181f79)" style="fill: none; stroke: #6ea8fe; stroke-width: 2.2; stroke-linecap: round"/>
    <path d="M 107.895281 370.149737 
L 145.392881 370.149737 
" clip-path="url(#pc506181f79)" style="fill: none; stroke: #6ea8fe; stroke-width: 2.2; stroke-linecap: round"/>
    <path d="M 107.895281 363.896105 
L 145.392881 363.896105 
" clip-path="url(#pc506181f79)" style="fill: none; stroke: #6ea8fe; stroke-width: 2.2; stroke-linecap: round"/>
    <path d="M 107.895281 357.642473 
L 145.392881 357.642473 
" clip-path="url(#pc506181f79)" style="fill: none; stroke: #6ea8fe; stroke-width: 2.2; stroke-linecap: round"/>
    <path d="M 107.895281 331.585673 
L 145.392881 331.585673 
" clip-path="url(#pc506181f79)" style="fill: none; stroke: #6ea8fe; stroke-width: 2.2; stroke-linecap: round"/>
    <path d="M 107.895281 325.332041 
L 145.392881 325.332041 
" clip-path="url(#pc506181f79)" style="fill: none; stroke: #6ea8fe; stroke-width: 2.2; stroke-linecap: round"/>
    <path d="M 107.895281 319.078409 
L 145.392881 319.078409 
" clip-path="url(#pc506181f79)" style="fill: none; stroke: #6ea8fe; stroke-width: 2.2; stroke-linecap: round"/>
    <path d="M 107.895281 312.824777 
L 145.392881 312.824777 
" clip-path="url(#pc506181f79)" style="fill: none; stroke: #6ea8fe; stroke-width: 2.2; stroke-linecap: round"/>
    <path d="M 107.895281 306.571145 
L 145.392881 306.571145 
" clip-path="url(#pc506181f79)" style="fill: none; stroke: #6ea8fe; stroke-width: 2.2; stroke-linecap: round"/>
    <path d="M 107.895281 300.317513 
L 145.392881 300.317513 
" clip-path="url(#pc506181f79)" style="fill: none; stroke: #6ea8fe; stroke-width: 2.2; stroke-linecap: round"/>
    <path d="M 107.895281 294.063881 
L 145.392881 294.063881 
" clip-path="url(#pc506181f79)" style="fill: none; stroke: #6ea8fe; stroke-width: 2.2; stroke-linecap: round"/>
    <path d="M 107.895281 287.810249 
L 145.392881 287.810249 
" clip-path="url(#pc506181f79)" style="fill: none; stroke: #6ea8fe; stroke-width: 2.2; stroke-linecap: round"/>
    <path d="M 107.895281 281.556617 
L 145.392881 281.556617 
" clip-path="url(#pc506181f79)" style="fill: none; stroke: #6ea8fe; stroke-width: 2.2; stroke-linecap: round"/>
    <path d="M 107.895281 275.302985 
L 145.392881 275.302985 
" clip-path="url(#pc506181f79)" style="fill: none; stroke: #6ea8fe; stroke-width: 2.2; stroke-linecap: round"/>
    <path d="M 107.895281 269.049353 
L 145.392881 269.049353 
" clip-path="url(#pc506181f79)" style="fill: none; stroke: #6ea8fe; stroke-width: 2.2; stroke-linecap: round"/>
    <path d="M 107.895281 262.795721 
L 145.392881 262.795721 
" clip-path="url(#pc506181f79)" style="fill: none; stroke: #6ea8fe; stroke-width: 2.2; stroke-linecap: round"/>
    <path d="M 107.895281 256.542089 
L 145.392881 256.542089 
" clip-path="url(#pc506181f79)" style="fill: none; stroke: #6ea8fe; stroke-width: 2.2; stroke-linecap: round"/>
    <path d="M 107.895281 250.288457 
L 145.392881 250.288457 
" clip-path="url(#pc506181f79)" style="fill: none; stroke: #6ea8fe; stroke-width: 2.2; stroke-linecap: round"/>
    <path d="M 107.895281 244.034825 
L 145.392881 244.034825 
" clip-path="url(#pc506181f79)" style="fill: none; stroke: #6ea8fe; stroke-width: 2.2; stroke-linecap: round"/>
    <path d="M 107.895281 237.781193 
L 145.392881 237.781193 
" clip-path="url(#pc506181f79)" style="fill: none; stroke: #6ea8fe; stroke-width: 2.2; stroke-linecap: round"/>
    <path d="M 107.895281 231.527561 
L 145.392881 231.527561 
" clip-path="url(#pc506181f79)" style="fill: none; stroke: #6ea8fe; stroke-width: 2.2; stroke-linecap: round"/>
    <path d="M 107.895281 205.470761 
L 145.392881 205.470761 
" clip-path="url(#pc506181f79)" style="fill: none; stroke: #6ea8fe; stroke-width: 2.2; stroke-linecap: round"/>
    <path d="M 107.895281 199.217129 
L 145.392881 199.217129 
" clip-path="url(#pc506181f79)" style="fill: none; stroke: #6ea8fe; stroke-width: 2.2; stroke-linecap: round"/>
    <path d="M 107.895281 192.963497 
L 145.392881 192.963497 
" clip-path="url(#pc506181f79)" style="fill: none; stroke: #6ea8fe; stroke-width: 2.2; stroke-linecap: round"/>
    <path d="M 107.895281 186.709865 
L 145.392881 186.709865 
" clip-path="url(#pc506181f79)" style="fill: none; stroke: #6ea8fe; stroke-width: 2.2; stroke-linecap: round"/>
    <path d="M 107.895281 180.456233 
L 145.392881 180.456233 
" clip-path="url(#pc506181f79)" style="fill: none; stroke: #6ea8fe; stroke-width: 2.2; stroke-linecap: round"/>
    <path d="M 107.895281 174.202601 
L 145.392881 174.202601 
" clip-path="url(#pc506181f79)" style="fill: none; stroke: #6ea8fe; stroke-width: 2.2; stroke-linecap: round"/>
    <path d="M 107.895281 167.948969 
L 145.392881 167.948969 
" clip-path="url(#pc506181f79)" style="fill: none; stroke: #6ea8fe; stroke-width: 2.2; stroke-linecap: round"/>
    <path d="M 107.895281 161.695337 
L 145.392881 161.695337 
" clip-path="url(#pc506181f79)" style="fill: none; stroke: #6ea8fe; stroke-width: 2.2; stroke-linecap: round"/>
    <path d="M 107.895281 155.441705 
L 145.392881 155.441705 
" clip-path="url(#pc506181f79)" style="fill: none; stroke: #6ea8fe; stroke-width: 2.2; stroke-linecap: round"/>
    <path d="M 107.895281 149.188073 
L 145.392881 149.188073 
" clip-path="url(#pc506181f79)" style="fill: none; stroke: #6ea8fe; stroke-width: 2.2; stroke-linecap: round"/>
    <path d="M 107.895281 142.934441 
L 145.392881 142.934441 
" clip-path="url(#pc506181f79)" style="fill: none; stroke: #6ea8fe; stroke-width: 2.2; stroke-linecap: round"/>
    <path d="M 107.895281 136.680809 
L 145.392881 136.680809 
" clip-path="url(#pc506181f79)" style="fill: none; stroke: #6ea8fe; stroke-width: 2.2; stroke-linecap: round"/>
    <path d="M 107.895281 130.427177 
L 145.392881 130.427177 
" clip-path="url(#pc506181f79)" style="fill: none; stroke: #6ea8fe; stroke-width: 2.2; stroke-linecap: round"/>
    <path d="M 107.895281 124.173545 
L 145.392881 124.173545 
" clip-path="url(#pc506181f79)" style="fill: none; stroke: #6ea8fe; stroke-width: 2.2; stroke-linecap: round"/>
    <path d="M 107.895281 117.919913 
L 145.392881 117.919913 
" clip-path="url(#pc506181f79)" style="fill: none; stroke: #6ea8fe; stroke-width: 2.2; stroke-linecap: round"/>
    <path d="M 107.895281 111.666281 
L 145.392881 111.666281 
" clip-path="url(#pc506181f79)" style="fill: none; stroke: #6ea8fe; stroke-width: 2.2; stroke-linecap: round"/>
    <path d="M 107.895281 105.412649 
L 145.392881 105.412649 
" clip-path="url(#pc506181f79)" style="fill: none; stroke: #6ea8fe; stroke-width: 2.2; stroke-linecap: round"/>
    <path d="M 107.895281 99.159017 
L 145.392881 99.159017 
" clip-path="url(#pc506181f79)" style="fill: none; stroke: #6ea8fe; stroke-width: 2.2; stroke-linecap: round"/>
    <path d="M 107.895281 92.905385 
L 145.392881 92.905385 
" clip-path="url(#pc506181f79)" style="fill: none; stroke: #6ea8fe; stroke-width: 2.2; stroke-linecap: round"/>
   </g>
   <g id="LineCollection_2">
    <path d="M 229.762481 521.279177 
L 267.260081 521.279177 
" clip-path="url(#pc506181f79)" style="fill: none; stroke: #6fd17a; stroke-width: 2.2; stroke-linecap: round"/>
    <path d="M 229.762481 515.025545 
L 267.260081 515.025545 
" clip-path="url(#pc506181f79)" style="fill: none; stroke: #6fd17a; stroke-width: 2.2; stroke-linecap: round"/>
    <path d="M 229.762481 508.771913 
L 267.260081 508.771913 
" clip-path="url(#pc506181f79)" style="fill: none; stroke: #6fd17a; stroke-width: 2.2; stroke-linecap: round"/>
    <path d="M 229.762481 482.715113 
L 267.260081 482.715113 
" clip-path="url(#pc506181f79)" style="fill: none; stroke: #6fd17a; stroke-width: 2.2; stroke-linecap: round"/>
    <path d="M 229.762481 476.461481 
L 267.260081 476.461481 
" clip-path="url(#pc506181f79)" style="fill: none; stroke: #6fd17a; stroke-width: 2.2; stroke-linecap: round"/>
    <path d="M 229.762481 470.207849 
L 267.260081 470.207849 
" clip-path="url(#pc506181f79)" style="fill: none; stroke: #6fd17a; stroke-width: 2.2; stroke-linecap: round"/>
    <path d="M 229.762481 463.954217 
L 267.260081 463.954217 
" clip-path="url(#pc506181f79)" style="fill: none; stroke: #6fd17a; stroke-width: 2.2; stroke-linecap: round"/>
    <path d="M 229.762481 457.700585 
L 267.260081 457.700585 
" clip-path="url(#pc506181f79)" style="fill: none; stroke: #6fd17a; stroke-width: 2.2; stroke-linecap: round"/>
    <path d="M 229.762481 451.446953 
L 267.260081 451.446953 
" clip-path="url(#pc506181f79)" style="fill: none; stroke: #6fd17a; stroke-width: 2.2; stroke-linecap: round"/>
    <path d="M 229.762481 425.390153 
L 267.260081 425.390153 
" clip-path="url(#pc506181f79)" style="fill: none; stroke: #6fd17a; stroke-width: 2.2; stroke-linecap: round"/>
    <path d="M 229.762481 419.136521 
L 267.260081 419.136521 
" clip-path="url(#pc506181f79)" style="fill: none; stroke: #6fd17a; stroke-width: 2.2; stroke-linecap: round"/>
    <path d="M 229.762481 412.882889 
L 267.260081 412.882889 
" clip-path="url(#pc506181f79)" style="fill: none; stroke: #6fd17a; stroke-width: 2.2; stroke-linecap: round"/>
    <path d="M 229.762481 406.629257 
L 267.260081 406.629257 
" clip-path="url(#pc506181f79)" style="fill: none; stroke: #6fd17a; stroke-width: 2.2; stroke-linecap: round"/>
    <path d="M 229.762481 380.572457 
L 267.260081 380.572457 
" clip-path="url(#pc506181f79)" style="fill: none; stroke: #6fd17a; stroke-width: 2.2; stroke-linecap: round"/>
    <path d="M 229.762481 374.318825 
L 267.260081 374.318825 
" clip-path="url(#pc506181f79)" style="fill: none; stroke: #6fd17a; stroke-width: 2.2; stroke-linecap: round"/>
    <path d="M 229.762481 368.065193 
L 267.260081 368.065193 
" clip-path="url(#pc506181f79)" style="fill: none; stroke: #6fd17a; stroke-width: 2.2; stroke-linecap: round"/>
    <path d="M 229.762481 361.811561 
L 267.260081 361.811561 
" clip-path="url(#pc506181f79)" style="fill: none; stroke: #6fd17a; stroke-width: 2.2; stroke-linecap: round"/>
    <path d="M 229.762481 355.557929 
L 267.260081 355.557929 
" clip-path="url(#pc506181f79)" style="fill: none; stroke: #6fd17a; stroke-width: 2.2; stroke-linecap: round"/>
    <path d="M 229.762481 349.304297 
L 267.260081 349.304297 
" clip-path="url(#pc506181f79)" style="fill: none; stroke: #6fd17a; stroke-width: 2.2; stroke-linecap: round"/>
    <path d="M 229.762481 343.050665 
L 267.260081 343.050665 
" clip-path="url(#pc506181f79)" style="fill: none; stroke: #6fd17a; stroke-width: 2.2; stroke-linecap: round"/>
    <path d="M 229.762481 336.797033 
L 267.260081 336.797033 
" clip-path="url(#pc506181f79)" style="fill: none; stroke: #6fd17a; stroke-width: 2.2; stroke-linecap: round"/>
    <path d="M 229.762481 310.740233 
L 267.260081 310.740233 
" clip-path="url(#pc506181f79)" style="fill: none; stroke: #6fd17a; stroke-width: 2.2; stroke-linecap: round"/>
    <path d="M 229.762481 304.486601 
L 267.260081 304.486601 
" clip-path="url(#pc506181f79)" style="fill: none; stroke: #6fd17a; stroke-width: 2.2; stroke-linecap: round"/>
    <path d="M 229.762481 298.232969 
L 267.260081 298.232969 
" clip-path="url(#pc506181f79)" style="fill: none; stroke: #6fd17a; stroke-width: 2.2; stroke-linecap: round"/>
    <path d="M 229.762481 291.979337 
L 267.260081 291.979337 
" clip-path="url(#pc506181f79)" style="fill: none; stroke: #6fd17a; stroke-width: 2.2; stroke-linecap: round"/>
    <path d="M 229.762481 285.725705 
L 267.260081 285.725705 
" clip-path="url(#pc506181f79)" style="fill: none; stroke: #6fd17a; stroke-width: 2.2; stroke-linecap: round"/>
    <path d="M 229.762481 279.472073 
L 267.260081 279.472073 
" clip-path="url(#pc506181f79)" style="fill: none; stroke: #6fd17a; stroke-width: 2.2; stroke-linecap: round"/>
    <path d="M 229.762481 273.218441 
L 267.260081 273.218441 
" clip-path="url(#pc506181f79)" style="fill: none; stroke: #6fd17a; stroke-width: 2.2; stroke-linecap: round"/>
    <path d="M 229.762481 266.964809 
L 267.260081 266.964809 
" clip-path="url(#pc506181f79)" style="fill: none; stroke: #6fd17a; stroke-width: 2.2; stroke-linecap: round"/>
    <path d="M 229.762481 260.711177 
L 267.260081 260.711177 
" clip-path="url(#pc506181f79)" style="fill: none; stroke: #6fd17a; stroke-width: 2.2; stroke-linecap: round"/>
    <path d="M 229.762481 254.457545 
L 267.260081 254.457545 
" clip-path="url(#pc506181f79)" style="fill: none; stroke: #6fd17a; stroke-width: 2.2; stroke-linecap: round"/>
    <path d="M 229.762481 228.400745 
L 267.260081 228.400745 
" clip-path="url(#pc506181f79)" style="fill: none; stroke: #6fd17a; stroke-width: 2.2; stroke-linecap: round"/>
    <path d="M 229.762481 222.147113 
L 267.260081 222.147113 
" clip-path="url(#pc506181f79)" style="fill: none; stroke: #6fd17a; stroke-width: 2.2; stroke-linecap: round"/>
    <path d="M 229.762481 215.893481 
L 267.260081 215.893481 
" clip-path="url(#pc506181f79)" style="fill: none; stroke: #6fd17a; stroke-width: 2.2; stroke-linecap: round"/>
    <path d="M 229.762481 209.639849 
L 267.260081 209.639849 
" clip-path="url(#pc506181f79)" style="fill: none; stroke: #6fd17a; stroke-width: 2.2; stroke-linecap: round"/>
    <path d="M 229.762481 203.386217 
L 267.260081 203.386217 
" clip-path="url(#pc506181f79)" style="fill: none; stroke: #6fd17a; stroke-width: 2.2; stroke-linecap: round"/>
    <path d="M 229.762481 177.329417 
L 267.260081 177.329417 
" clip-path="url(#pc506181f79)" style="fill: none; stroke: #6fd17a; stroke-width: 2.2; stroke-linecap: round"/>
    <path d="M 229.762481 171.075785 
L 267.260081 171.075785 
" clip-path="url(#pc506181f79)" style="fill: none; stroke: #6fd17a; stroke-width: 2.2; stroke-linecap: round"/>
    <path d="M 229.762481 164.822153 
L 267.260081 164.822153 
" clip-path="url(#pc506181f79)" style="fill: none; stroke: #6fd17a; stroke-width: 2.2; stroke-linecap: round"/>
    <path d="M 229.762481 158.568521 
L 267.260081 158.568521 
" clip-path="url(#pc506181f79)" style="fill: none; stroke: #6fd17a; stroke-width: 2.2; stroke-linecap: round"/>
    <path d="M 229.762481 152.314889 
L 267.260081 152.314889 
" clip-path="url(#pc506181f79)" style="fill: none; stroke: #6fd17a; stroke-width: 2.2; stroke-linecap: round"/>
    <path d="M 229.762481 126.258089 
L 267.260081 126.258089 
" clip-path="url(#pc506181f79)" style="fill: none; stroke: #6fd17a; stroke-width: 2.2; stroke-linecap: round"/>
    <path d="M 229.762481 120.004457 
L 267.260081 120.004457 
" clip-path="url(#pc506181f79)" style="fill: none; stroke: #6fd17a; stroke-width: 2.2; stroke-linecap: round"/>
    <path d="M 229.762481 113.750825 
L 267.260081 113.750825 
" clip-path="url(#pc506181f79)" style="fill: none; stroke: #6fd17a; stroke-width: 2.2; stroke-linecap: round"/>
    <path d="M 229.762481 107.497193 
L 267.260081 107.497193 
" clip-path="url(#pc506181f79)" style="fill: none; stroke: #6fd17a; stroke-width: 2.2; stroke-linecap: round"/>
    <path d="M 229.762481 101.243561 
L 267.260081 101.243561 
" clip-path="url(#pc506181f79)" style="fill: none; stroke: #6fd17a; stroke-width: 2.2; stroke-linecap: round"/>
    <path d="M 229.762481 94.989929 
L 267.260081 94.989929 
" clip-path="url(#pc506181f79)" style="fill: none; stroke: #6fd17a; stroke-width: 2.2; stroke-linecap: round"/>
    <path d="M 229.762481 88.736297 
L 267.260081 88.736297 
" clip-path="url(#pc506181f79)" style="fill: none; stroke: #6fd17a; stroke-width: 2.2; stroke-linecap: round"/>
    <path d="M 229.762481 82.482665 
L 267.260081 82.482665 
" clip-path="url(#pc506181f79)" style="fill: none; stroke: #6fd17a; stroke-width: 2.2; stroke-linecap: round"/>
    <path d="M 229.762481 76.229033 
L 267.260081 76.229033 
" clip-path="url(#pc506181f79)" style="fill: none; stroke: #6fd17a; stroke-width: 2.2; stroke-linecap: round"/>
    <path d="M 229.762481 69.975401 
L 267.260081 69.975401 
" clip-path="url(#pc506181f79)" style="fill: none; stroke: #6fd17a; stroke-width: 2.2; stroke-linecap: round"/>
   </g>
   <g id="LineCollection_3">
    <path d="M 351.629681 521.279177 
L 389.127281 521.279177 
" clip-path="url(#pc506181f79)" style="fill: none; stroke: #f3a065; stroke-width: 2.2; stroke-linecap: round"/>
    <path d="M 351.629681 515.025545 
L 389.127281 515.025545 
" clip-path="url(#pc506181f79)" style="fill: none; stroke: #f3a065; stroke-width: 2.2; stroke-linecap: round"/>
    <path d="M 351.629681 508.771913 
L 389.127281 508.771913 
" clip-path="url(#pc506181f79)" style="fill: none; stroke: #f3a065; stroke-width: 2.2; stroke-linecap: round"/>
    <path d="M 351.629681 502.518281 
L 389.127281 502.518281 
" clip-path="url(#pc506181f79)" style="fill: none; stroke: #f3a065; stroke-width: 2.2; stroke-linecap: round"/>
    <path d="M 351.629681 496.264649 
L 389.127281 496.264649 
" clip-path="url(#pc506181f79)" style="fill: none; stroke: #f3a065; stroke-width: 2.2; stroke-linecap: round"/>
    <path d="M 351.629681 490.011017 
L 389.127281 490.011017 
" clip-path="url(#pc506181f79)" style="fill: none; stroke: #f3a065; stroke-width: 2.2; stroke-linecap: round"/>
    <path d="M 351.629681 483.757385 
L 389.127281 483.757385 
" clip-path="url(#pc506181f79)" style="fill: none; stroke: #f3a065; stroke-width: 2.2; stroke-linecap: round"/>
    <path d="M 351.629681 477.503753 
L 389.127281 477.503753 
" clip-path="url(#pc506181f79)" style="fill: none; stroke: #f3a065; stroke-width: 2.2; stroke-linecap: round"/>
    <path d="M 351.629681 471.250121 
L 389.127281 471.250121 
" clip-path="url(#pc506181f79)" style="fill: none; stroke: #f3a065; stroke-width: 2.2; stroke-linecap: round"/>
    <path d="M 351.629681 464.996489 
L 389.127281 464.996489 
" clip-path="url(#pc506181f79)" style="fill: none; stroke: #f3a065; stroke-width: 2.2; stroke-linecap: round"/>
    <path d="M 351.629681 458.742857 
L 389.127281 458.742857 
" clip-path="url(#pc506181f79)" style="fill: none; stroke: #f3a065; stroke-width: 2.2; stroke-linecap: round"/>
    <path d="M 351.629681 432.686057 
L 389.127281 432.686057 
" clip-path="url(#pc506181f79)" style="fill: none; stroke: #f3a065; stroke-width: 2.2; stroke-linecap: round"/>
    <path d="M 351.629681 426.432425 
L 389.127281 426.432425 
" clip-path="url(#pc506181f79)" style="fill: none; stroke: #f3a065; stroke-width: 2.2; stroke-linecap: round"/>
    <path d="M 351.629681 420.178793 
L 389.127281 420.178793 
" clip-path="url(#pc506181f79)" style="fill: none; stroke: #f3a065; stroke-width: 2.2; stroke-linecap: round"/>
    <path d="M 351.629681 413.925161 
L 389.127281 413.925161 
" clip-path="url(#pc506181f79)" style="fill: none; stroke: #f3a065; stroke-width: 2.2; stroke-linecap: round"/>
    <path d="M 351.629681 407.671529 
L 389.127281 407.671529 
" clip-path="url(#pc506181f79)" style="fill: none; stroke: #f3a065; stroke-width: 2.2; stroke-linecap: round"/>
    <path d="M 351.629681 401.417897 
L 389.127281 401.417897 
" clip-path="url(#pc506181f79)" style="fill: none; stroke: #f3a065; stroke-width: 2.2; stroke-linecap: round"/>
    <path d="M 351.629681 395.164265 
L 389.127281 395.164265 
" clip-path="url(#pc506181f79)" style="fill: none; stroke: #f3a065; stroke-width: 2.2; stroke-linecap: round"/>
    <path d="M 351.629681 388.910633 
L 389.127281 388.910633 
" clip-path="url(#pc506181f79)" style="fill: none; stroke: #f3a065; stroke-width: 2.2; stroke-linecap: round"/>
    <path d="M 351.629681 382.657001 
L 389.127281 382.657001 
" clip-path="url(#pc506181f79)" style="fill: none; stroke: #f3a065; stroke-width: 2.2; stroke-linecap: round"/>
    <path d="M 351.629681 376.403369 
L 389.127281 376.403369 
" clip-path="url(#pc506181f79)" style="fill: none; stroke: #f3a065; stroke-width: 2.2; stroke-linecap: round"/>
    <path d="M 351.629681 370.149737 
L 389.127281 370.149737 
" clip-path="url(#pc506181f79)" style="fill: none; stroke: #f3a065; stroke-width: 2.2; stroke-linecap: round"/>
    <path d="M 351.629681 363.896105 
L 389.127281 363.896105 
" clip-path="url(#pc506181f79)" style="fill: none; stroke: #f3a065; stroke-width: 2.2; stroke-linecap: round"/>
    <path d="M 351.629681 357.642473 
L 389.127281 357.642473 
" clip-path="url(#pc506181f79)" style="fill: none; stroke: #f3a065; stroke-width: 2.2; stroke-linecap: round"/>
    <path d="M 351.629681 351.388841 
L 389.127281 351.388841 
" clip-path="url(#pc506181f79)" style="fill: none; stroke: #f3a065; stroke-width: 2.2; stroke-linecap: round"/>
    <path d="M 351.629681 345.135209 
L 389.127281 345.135209 
" clip-path="url(#pc506181f79)" style="fill: none; stroke: #f3a065; stroke-width: 2.2; stroke-linecap: round"/>
    <path d="M 351.629681 338.881577 
L 389.127281 338.881577 
" clip-path="url(#pc506181f79)" style="fill: none; stroke: #f3a065; stroke-width: 2.2; stroke-linecap: round"/>
    <path d="M 351.629681 332.627945 
L 389.127281 332.627945 
" clip-path="url(#pc506181f79)" style="fill: none; stroke: #f3a065; stroke-width: 2.2; stroke-linecap: round"/>
    <path d="M 351.629681 326.374313 
L 389.127281 326.374313 
" clip-path="url(#pc506181f79)" style="fill: none; stroke: #f3a065; stroke-width: 2.2; stroke-linecap: round"/>
    <path d="M 351.629681 320.120681 
L 389.127281 320.120681 
" clip-path="url(#pc506181f79)" style="fill: none; stroke: #f3a065; stroke-width: 2.2; stroke-linecap: round"/>
    <path d="M 351.629681 313.867049 
L 389.127281 313.867049 
" clip-path="url(#pc506181f79)" style="fill: none; stroke: #f3a065; stroke-width: 2.2; stroke-linecap: round"/>
    <path d="M 351.629681 307.613417 
L 389.127281 307.613417 
" clip-path="url(#pc506181f79)" style="fill: none; stroke: #f3a065; stroke-width: 2.2; stroke-linecap: round"/>
    <path d="M 351.629681 281.556617 
L 389.127281 281.556617 
" clip-path="url(#pc506181f79)" style="fill: none; stroke: #f3a065; stroke-width: 2.2; stroke-linecap: round"/>
    <path d="M 351.629681 275.302985 
L 389.127281 275.302985 
" clip-path="url(#pc506181f79)" style="fill: none; stroke: #f3a065; stroke-width: 2.2; stroke-linecap: round"/>
    <path d="M 351.629681 269.049353 
L 389.127281 269.049353 
" clip-path="url(#pc506181f79)" style="fill: none; stroke: #f3a065; stroke-width: 2.2; stroke-linecap: round"/>
    <path d="M 351.629681 262.795721 
L 389.127281 262.795721 
" clip-path="url(#pc506181f79)" style="fill: none; stroke: #f3a065; stroke-width: 2.2; stroke-linecap: round"/>
    <path d="M 351.629681 256.542089 
L 389.127281 256.542089 
" clip-path="url(#pc506181f79)" style="fill: none; stroke: #f3a065; stroke-width: 2.2; stroke-linecap: round"/>
    <path d="M 351.629681 250.288457 
L 389.127281 250.288457 
" clip-path="url(#pc506181f79)" style="fill: none; stroke: #f3a065; stroke-width: 2.2; stroke-linecap: round"/>
    <path d="M 351.629681 244.034825 
L 389.127281 244.034825 
" clip-path="url(#pc506181f79)" style="fill: none; stroke: #f3a065; stroke-width: 2.2; stroke-linecap: round"/>
    <path d="M 351.629681 237.781193 
L 389.127281 237.781193 
" clip-path="url(#pc506181f79)" style="fill: none; stroke: #f3a065; stroke-width: 2.2; stroke-linecap: round"/>
    <path d="M 351.629681 231.527561 
L 389.127281 231.527561 
" clip-path="url(#pc506181f79)" style="fill: none; stroke: #f3a065; stroke-width: 2.2; stroke-linecap: round"/>
    <path d="M 351.629681 225.273929 
L 389.127281 225.273929 
" clip-path="url(#pc506181f79)" style="fill: none; stroke: #f3a065; stroke-width: 2.2; stroke-linecap: round"/>
    <path d="M 351.629681 219.020297 
L 389.127281 219.020297 
" clip-path="url(#pc506181f79)" style="fill: none; stroke: #f3a065; stroke-width: 2.2; stroke-linecap: round"/>
    <path d="M 351.629681 212.766665 
L 389.127281 212.766665 
" clip-path="url(#pc506181f79)" style="fill: none; stroke: #f3a065; stroke-width: 2.2; stroke-linecap: round"/>
    <path d="M 351.629681 206.513033 
L 389.127281 206.513033 
" clip-path="url(#pc506181f79)" style="fill: none; stroke: #f3a065; stroke-width: 2.2; stroke-linecap: round"/>
    <path d="M 351.629681 200.259401 
L 389.127281 200.259401 
" clip-path="url(#pc506181f79)" style="fill: none; stroke: #f3a065; stroke-width: 2.2; stroke-linecap: round"/>
    <path d="M 351.629681 194.005769 
L 389.127281 194.005769 
" clip-path="url(#pc506181f79)" style="fill: none; stroke: #f3a065; stroke-width: 2.2; stroke-linecap: round"/>
    <path d="M 351.629681 187.752137 
L 389.127281 187.752137 
" clip-path="url(#pc506181f79)" style="fill: none; stroke: #f3a065; stroke-width: 2.2; stroke-linecap: round"/>
    <path d="M 351.629681 181.498505 
L 389.127281 181.498505 
" clip-path="url(#pc506181f79)" style="fill: none; stroke: #f3a065; stroke-width: 2.2; stroke-linecap: round"/>
    <path d="M 351.629681 175.244873 
L 389.127281 175.244873 
" clip-path="url(#pc506181f79)" style="fill: none; stroke: #f3a065; stroke-width: 2.2; stroke-linecap: round"/>
    <path d="M 351.629681 168.991241 
L 389.127281 168.991241 
" clip-path="url(#pc506181f79)" style="fill: none; stroke: #f3a065; stroke-width: 2.2; stroke-linecap: round"/>
    <path d="M 351.629681 142.934441 
L 389.127281 142.934441 
" clip-path="url(#pc506181f79)" style="fill: none; stroke: #f3a065; stroke-width: 2.2; stroke-linecap: round"/>
    <path d="M 351.629681 136.680809 
L 389.127281 136.680809 
" clip-path="url(#pc506181f79)" style="fill: none; stroke: #f3a065; stroke-width: 2.2; stroke-linecap: round"/>
    <path d="M 351.629681 130.427177 
L 389.127281 130.427177 
" clip-path="url(#pc506181f79)" style="fill: none; stroke: #f3a065; stroke-width: 2.2; stroke-linecap: round"/>
    <path d="M 351.629681 124.173545 
L 389.127281 124.173545 
" clip-path="url(#pc506181f79)" style="fill: none; stroke: #f3a065; stroke-width: 2.2; stroke-linecap: round"/>
    <path d="M 351.629681 117.919913 
L 389.127281 117.919913 
" clip-path="url(#pc506181f79)" style="fill: none; stroke: #f3a065; stroke-width: 2.2; stroke-linecap: round"/>
    <path d="M 351.629681 111.666281 
L 389.127281 111.666281 
" clip-path="url(#pc506181f79)" style="fill: none; stroke: #f3a065; stroke-width: 2.2; stroke-linecap: round"/>
    <path d="M 351.629681 105.412649 
L 389.127281 105.412649 
" clip-path="url(#pc506181f79)" style="fill: none; stroke: #f3a065; stroke-width: 2.2; stroke-linecap: round"/>
    <path d="M 351.629681 99.159017 
L 389.127281 99.159017 
" clip-path="url(#pc506181f79)" style="fill: none; stroke: #f3a065; stroke-width: 2.2; stroke-linecap: round"/>
    <path d="M 351.629681 92.905385 
L 389.127281 92.905385 
" clip-path="url(#pc506181f79)" style="fill: none; stroke: #f3a065; stroke-width: 2.2; stroke-linecap: round"/>
   </g>
   <g id="text_1">
    <!-- A (interpretações) -->
    <g style="fill: #6ea8fe" transform="translate(62.060097 65.291247) scale(0.125 -0.125)">
     <defs>
      <path id="DejaVuSans-Bold-41" d="M 3419 850 
L 1538 850 
L 1241 0 
L 31 0 
L 1759 4666 
L 3194 4666 
L 4922 0 
L 3713 0 
L 3419 850 
z
M 1838 1716 
L 3116 1716 
L 2478 3572 
L 1838 1716 
z
" transform="scale(0.015625)"/>
      <path id="DejaVuSans-Bold-20" transform="scale(0.015625)"/>
      <path id="DejaVuSans-Bold-28" d="M 2413 -844 
L 1484 -844 
Q 1006 -72 778 623 
Q 550 1319 550 2003 
Q 550 2688 779 3389 
Q 1009 4091 1484 4856 
L 2413 4856 
Q 2013 4116 1813 3408 
Q 1613 2700 1613 2009 
Q 1613 1319 1811 609 
Q 2009 -100 2413 -844 
z
" transform="scale(0.015625)"/>
      <path id="DejaVuSans-Bold-69" d="M 538 3500 
L 1656 3500 
L 1656 0 
L 538 0 
L 538 3500 
z
M 538 4863 
L 1656 4863 
L 1656 3950 
L 538 3950 
L 538 4863 
z
" transform="scale(0.015625)"/>
      <path id="DejaVuSans-Bold-6e" d="M 4056 2131 
L 4056 0 
L 2931 0 
L 2931 347 
L 2931 1631 
Q 2931 2084 2911 2256 
Q 2891 2428 2841 2509 
Q 2775 2619 2662 2680 
Q 2550 2741 2406 2741 
Q 2056 2741 1856 2470 
Q 1656 2200 1656 1722 
L 1656 0 
L 538 0 
L 538 3500 
L 1656 3500 
L 1656 2988 
Q 1909 3294 2193 3439 
Q 2478 3584 2822 3584 
Q 3428 3584 3742 3212 
Q 4056 2841 4056 2131 
z
" transform="scale(0.015625)"/>
      <path id="DejaVuSans-Bold-74" d="M 1759 4494 
L 1759 3500 
L 2913 3500 
L 2913 2700 
L 1759 2700 
L 1759 1216 
Q 1759 972 1856 886 
Q 1953 800 2241 800 
L 2816 800 
L 2816 0 
L 1856 0 
Q 1194 0 917 276 
Q 641 553 641 1216 
L 641 2700 
L 84 2700 
L 84 3500 
L 641 3500 
L 641 4494 
L 1759 4494 
z
" transform="scale(0.015625)"/>
      <path id="DejaVuSans-Bold-65" d="M 4031 1759 
L 4031 1441 
L 1416 1441 
Q 1456 1047 1700 850 
Q 1944 653 2381 653 
Q 2734 653 3104 758 
Q 3475 863 3866 1075 
L 3866 213 
Q 3469 63 3072 -14 
Q 2675 -91 2278 -91 
Q 1328 -91 801 392 
Q 275 875 275 1747 
Q 275 2603 792 3093 
Q 1309 3584 2216 3584 
Q 3041 3584 3536 3087 
Q 4031 2591 4031 1759 
z
M 2881 2131 
Q 2881 2450 2695 2645 
Q 2509 2841 2209 2841 
Q 1884 2841 1681 2658 
Q 1478 2475 1428 2131 
L 2881 2131 
z
" transform="scale(0.015625)"/>
      <path id="DejaVuSans-Bold-72" d="M 3138 2547 
Q 2991 2616 2845 2648 
Q 2700 2681 2553 2681 
Q 2122 2681 1889 2404 
Q 1656 2128 1656 1613 
L 1656 0 
L 538 0 
L 538 3500 
L 1656 3500 
L 1656 2925 
Q 1872 3269 2151 3426 
Q 2431 3584 2822 3584 
Q 2878 3584 2943 3579 
Q 3009 3575 3134 3559 
L 3138 2547 
z
" transform="scale(0.015625)"/>
      <path id="DejaVuSans-Bold-70" d="M 1656 506 
L 1656 -1331 
L 538 -1331 
L 538 3500 
L 1656 3500 
L 1656 2988 
Q 1888 3294 2169 3439 
Q 2450 3584 2816 3584 
Q 3463 3584 3878 3070 
Q 4294 2556 4294 1747 
Q 4294 938 3878 423 
Q 3463 -91 2816 -91 
Q 2450 -91 2169 54 
Q 1888 200 1656 506 
z
M 2400 2772 
Q 2041 2772 1848 2508 
Q 1656 2244 1656 1747 
Q 1656 1250 1848 986 
Q 2041 722 2400 722 
Q 2759 722 2948 984 
Q 3138 1247 3138 1747 
Q 3138 2247 2948 2509 
Q 2759 2772 2400 2772 
z
" transform="scale(0.015625)"/>
      <path id="DejaVuSans-Bold-61" d="M 2106 1575 
Q 1756 1575 1579 1456 
Q 1403 1338 1403 1106 
Q 1403 894 1545 773 
Q 1688 653 1941 653 
Q 2256 653 2472 879 
Q 2688 1106 2688 1447 
L 2688 1575 
L 2106 1575 
z
M 3816 1997 
L 3816 0 
L 2688 0 
L 2688 519 
Q 2463 200 2181 54 
Q 1900 -91 1497 -91 
Q 953 -91 614 226 
Q 275 544 275 1050 
Q 275 1666 698 1953 
Q 1122 2241 2028 2241 
L 2688 2241 
L 2688 2328 
Q 2688 2594 2478 2717 
Q 2269 2841 1825 2841 
Q 1466 2841 1156 2769 
Q 847 2697 581 2553 
L 581 3406 
Q 941 3494 1303 3539 
Q 1666 3584 2028 3584 
Q 2975 3584 3395 3211 
Q 3816 2838 3816 1997 
z
" transform="scale(0.015625)"/>
      <path id="DejaVuSans-Bold-e7" d="M 3366 3391 
L 3366 2478 
Q 3138 2634 2908 2709 
Q 2678 2784 2431 2784 
Q 1963 2784 1702 2511 
Q 1441 2238 1441 1747 
Q 1441 1256 1702 982 
Q 1963 709 2431 709 
Q 2694 709 2930 787 
Q 3166 866 3366 1019 
L 3366 103 
Q 3103 6 2833 -42 
Q 2563 -91 2291 -91 
Q 1344 -91 809 395 
Q 275 881 275 1747 
Q 275 2613 809 3098 
Q 1344 3584 2291 3584 
Q 2566 3584 2833 3536 
Q 3100 3488 3366 3391 
z
M 2457 0 
Q 2639 -194 2724 -359 
Q 2810 -525 2810 -672 
Q 2810 -969 2618 -1111 
Q 2426 -1253 2029 -1253 
Q 1879 -1253 1719 -1233 
Q 1560 -1213 1398 -1172 
L 1395 -697 
Q 1551 -747 1680 -770 
Q 1810 -794 1914 -794 
Q 2095 -794 2196 -722 
Q 2298 -650 2298 -525 
Q 2298 -444 2231 -316 
Q 2164 -188 2023 0 
L 2457 0 
z
" transform="scale(0.015625)"/>
      <path id="DejaVuSans-Bold-f5" d="M 2203 2784 
Q 1831 2784 1636 2517 
Q 1441 2250 1441 1747 
Q 1441 1244 1636 976 
Q 1831 709 2203 709 
Q 2569 709 2762 976 
Q 2956 1244 2956 1747 
Q 2956 2250 2762 2517 
Q 2569 2784 2203 2784 
z
M 2203 3584 
Q 3106 3584 3614 3096 
Q 4122 2609 4122 1747 
Q 4122 884 3614 396 
Q 3106 -91 2203 -91 
Q 1297 -91 786 396 
Q 275 884 275 1747 
Q 275 2609 786 3096 
Q 1297 3584 2203 3584 
z
M 2198 4263 
L 2026 4378 
Q 2014 4384 1995 4397 
Q 1848 4494 1770 4494 
Q 1658 4494 1598 4397 
Q 1539 4300 1539 4116 
L 1539 4091 
L 1105 4091 
Q 1105 4516 1265 4747 
Q 1426 4978 1717 4978 
Q 1830 4978 1944 4936 
Q 2058 4894 2186 4800 
L 2376 4666 
Q 2445 4619 2503 4594 
Q 2561 4569 2608 4569 
Q 2720 4569 2782 4669 
Q 2845 4769 2845 4947 
L 2845 4972 
L 3280 4972 
Q 3280 4547 3119 4315 
Q 2958 4084 2667 4084 
Q 2555 4084 2450 4121 
Q 2345 4159 2198 4263 
z
" transform="scale(0.015625)"/>
      <path id="DejaVuSans-Bold-73" d="M 3272 3391 
L 3272 2541 
Q 2913 2691 2578 2766 
Q 2244 2841 1947 2841 
Q 1628 2841 1473 2761 
Q 1319 2681 1319 2516 
Q 1319 2381 1436 2309 
Q 1553 2238 1856 2203 
L 2053 2175 
Q 2913 2066 3209 1816 
Q 3506 1566 3506 1031 
Q 3506 472 3093 190 
Q 2681 -91 1863 -91 
Q 1516 -91 1145 -36 
Q 775 19 384 128 
L 384 978 
Q 719 816 1070 734 
Q 1422 653 1784 653 
Q 2113 653 2278 743 
Q 2444 834 2444 1013 
Q 2444 1163 2330 1236 
Q 2216 1309 1875 1350 
L 1678 1375 
Q 931 1469 631 1722 
Q 331 1975 331 2491 
Q 331 3047 712 3315 
Q 1094 3584 1881 3584 
Q 2191 3584 2531 3537 
Q 2872 3491 3272 3391 
z
" transform="scale(0.015625)"/>
      <path id="DejaVuSans-Bold-29" d="M 513 -844 
Q 913 -100 1113 609 
Q 1313 1319 1313 2009 
Q 1313 2700 1113 3408 
Q 913 4116 513 4856 
L 1441 4856 
Q 1916 4091 2145 3389 
Q 2375 2688 2375 2003 
Q 2375 1319 2147 623 
Q 1919 -72 1441 -844 
L 513 -844 
z
" transform="scale(0.015625)"/>
     </defs>
     <use xlink:href="#DejaVuSans-Bold-41"/>
     <use xlink:href="#DejaVuSans-Bold-20" transform="translate(77.392578 0)"/>
     <use xlink:href="#DejaVuSans-Bold-28" transform="translate(112.207031 0)"/>
     <use xlink:href="#DejaVuSans-Bold-69" transform="translate(157.910156 0)"/>
     <use xlink:href="#DejaVuSans-Bold-6e" transform="translate(192.1875 0)"/>
     <use xlink:href="#DejaVuSans-Bold-74" transform="translate(263.378906 0)"/>
     <use xlink:href="#DejaVuSans-Bold-65" transform="translate(311.181641 0)"/>
     <use xlink:href="#DejaVuSans-Bold-72" transform="translate(379.003906 0)"/>
     <use xlink:href="#DejaVuSans-Bold-70" transform="translate(428.320312 0)"/>
     <use xlink:href="#DejaVuSans-Bold-72" transform="translate(499.902344 0)"/>
     <use xlink:href="#DejaVuSans-Bold-65" transform="translate(549.21875 0)"/>
     <use xlink:href="#DejaVuSans-Bold-74" transform="translate(617.041016 0)"/>
     <use xlink:href="#DejaVuSans-Bold-61" transform="translate(664.84375 0)"/>
     <use xlink:href="#DejaVuSans-Bold-e7" transform="translate(732.324219 0)"/>
     <use xlink:href="#DejaVuSans-Bold-f5" transform="translate(791.601562 0)"/>
     <use xlink:href="#DejaVuSans-Bold-65" transform="translate(860.302734 0)"/>
     <use xlink:href="#DejaVuSans-Bold-73" transform="translate(928.125 0)"/>
     <use xlink:href="#DejaVuSans-Bold-29" transform="translate(987.646484 0)"/>
    </g>
   </g>
   <g id="text_2">
    <!-- 11 -->
    <g style="fill: #f1f1f1" transform="translate(147.149216 492.908361) scale(0.105 -0.105)">
     <defs>
      <path id="DejaVuSans-31" d="M 794 531 
L 1825 531 
L 1825 4091 
L 703 3866 
L 703 4441 
L 1819 4666 
L 2450 4666 
L 2450 531 
L 3481 531 
L 3481 0 
L 794 0 
L 794 531 
z
" transform="scale(0.015625)"/>
     </defs>
     <use xlink:href="#DejaVuSans-31"/>
     <use xlink:href="#DejaVuSans-31" transform="translate(63.623047 0)"/>
    </g>
   </g>
   <g id="text_3">
    <!-- 13 -->
    <g style="fill: #f1f1f1" transform="translate(147.149216 398.061609) scale(0.105 -0.105)">
     <defs>
      <path id="DejaVuSans-33" d="M 2597 2516 
Q 3050 2419 3304 2112 
Q 3559 1806 3559 1356 
Q 3559 666 3084 287 
Q 2609 -91 1734 -91 
Q 1441 -91 1130 -33 
Q 819 25 488 141 
L 488 750 
Q 750 597 1062 519 
Q 1375 441 1716 441 
Q 2309 441 2620 675 
Q 2931 909 2931 1356 
Q 2931 1769 2642 2001 
Q 2353 2234 1838 2234 
L 1294 2234 
L 1294 2753 
L 1863 2753 
Q 2328 2753 2575 2939 
Q 2822 3125 2822 3475 
Q 2822 3834 2567 4026 
Q 2313 4219 1838 4219 
Q 1578 4219 1281 4162 
Q 984 4106 628 3988 
L 628 4550 
Q 988 4650 1302 4700 
Q 1616 4750 1894 4750 
Q 2613 4750 3031 4423 
Q 3450 4097 3450 3541 
Q 3450 3153 3228 2886 
Q 3006 2619 2597 2516 
z
" transform="scale(0.015625)"/>
     </defs>
     <use xlink:href="#DejaVuSans-31"/>
     <use xlink:href="#DejaVuSans-33" transform="translate(63.623047 0)"/>
    </g>
   </g>
   <g id="text_4">
    <!-- 17 -->
    <g style="fill: #f1f1f1" transform="translate(147.149216 284.453961) scale(0.105 -0.105)">
     <defs>
      <path id="DejaVuSans-37" d="M 525 4666 
L 3525 4666 
L 3525 4397 
L 1831 0 
L 1172 0 
L 2766 4134 
L 525 4134 
L 525 4666 
z
" transform="scale(0.015625)"/>
     </defs>
     <use xlink:href="#DejaVuSans-31"/>
     <use xlink:href="#DejaVuSans-37" transform="translate(63.623047 0)"/>
    </g>
   </g>
   <g id="text_5">
    <!-- 19 -->
    <g style="fill: #f1f1f1" transform="translate(147.149216 152.085417) scale(0.105 -0.105)">
     <defs>
      <path id="DejaVuSans-39" d="M 703 97 
L 703 672 
Q 941 559 1184 500 
Q 1428 441 1663 441 
Q 2288 441 2617 861 
Q 2947 1281 2994 2138 
Q 2813 1869 2534 1725 
Q 2256 1581 1919 1581 
Q 1219 1581 811 2004 
Q 403 2428 403 3163 
Q 403 3881 828 4315 
Q 1253 4750 1959 4750 
Q 2769 4750 3195 4129 
Q 3622 3509 3622 2328 
Q 3622 1225 3098 567 
Q 2575 -91 1691 -91 
Q 1453 -91 1209 -44 
Q 966 3 703 97 
z
M 1959 2075 
Q 2384 2075 2632 2365 
Q 2881 2656 2881 3163 
Q 2881 3666 2632 3958 
Q 2384 4250 1959 4250 
Q 1534 4250 1286 3958 
Q 1038 3666 1038 3163 
Q 1038 2656 1286 2365 
Q 1534 2075 1959 2075 
z
" transform="scale(0.015625)"/>
     </defs>
     <use xlink:href="#DejaVuSans-31"/>
     <use xlink:href="#DejaVuSans-39" transform="translate(63.623047 0)"/>
    </g>
   </g>
   <g id="text_6">
    <!-- B (grupos aritméticos) -->
    <g style="fill: #6fd17a" transform="translate(169.160695 42.263607) scale(0.125 -0.125)">
     <defs>
      <path id="DejaVuSans-Bold-42" d="M 2456 2859 
Q 2741 2859 2887 2984 
Q 3034 3109 3034 3353 
Q 3034 3594 2887 3720 
Q 2741 3847 2456 3847 
L 1791 3847 
L 1791 2859 
L 2456 2859 
z
M 2497 819 
Q 2859 819 3042 972 
Q 3225 1125 3225 1434 
Q 3225 1738 3044 1889 
Q 2863 2041 2497 2041 
L 1791 2041 
L 1791 819 
L 2497 819 
z
M 3616 2497 
Q 4003 2384 4215 2081 
Q 4428 1778 4428 1338 
Q 4428 663 3972 331 
Q 3516 0 2584 0 
L 588 0 
L 588 4666 
L 2394 4666 
Q 3366 4666 3802 4372 
Q 4238 4078 4238 3431 
Q 4238 3091 4078 2852 
Q 3919 2613 3616 2497 
z
" transform="scale(0.015625)"/>
      <path id="DejaVuSans-Bold-67" d="M 2919 594 
Q 2688 288 2409 144 
Q 2131 0 1766 0 
Q 1125 0 706 504 
Q 288 1009 288 1791 
Q 288 2575 706 3076 
Q 1125 3578 1766 3578 
Q 2131 3578 2409 3434 
Q 2688 3291 2919 2981 
L 2919 3500 
L 4044 3500 
L 4044 353 
Q 4044 -491 3511 -936 
Q 2978 -1381 1966 -1381 
Q 1638 -1381 1331 -1331 
Q 1025 -1281 716 -1178 
L 716 -306 
Q 1009 -475 1290 -558 
Q 1572 -641 1856 -641 
Q 2406 -641 2662 -400 
Q 2919 -159 2919 353 
L 2919 594 
z
M 2181 2772 
Q 1834 2772 1640 2515 
Q 1447 2259 1447 1791 
Q 1447 1309 1634 1061 
Q 1822 813 2181 813 
Q 2531 813 2725 1069 
Q 2919 1325 2919 1791 
Q 2919 2259 2725 2515 
Q 2531 2772 2181 2772 
z
" transform="scale(0.015625)"/>
      <path id="DejaVuSans-Bold-75" d="M 500 1363 
L 500 3500 
L 1625 3500 
L 1625 3150 
Q 1625 2866 1622 2436 
Q 1619 2006 1619 1863 
Q 1619 1441 1641 1255 
Q 1663 1069 1716 984 
Q 1784 875 1895 815 
Q 2006 756 2150 756 
Q 2500 756 2700 1025 
Q 2900 1294 2900 1772 
L 2900 3500 
L 4019 3500 
L 4019 0 
L 2900 0 
L 2900 506 
Q 2647 200 2364 54 
Q 2081 -91 1741 -91 
Q 1134 -91 817 281 
Q 500 653 500 1363 
z
" transform="scale(0.015625)"/>
      <path id="DejaVuSans-Bold-6f" d="M 2203 2784 
Q 1831 2784 1636 2517 
Q 1441 2250 1441 1747 
Q 1441 1244 1636 976 
Q 1831 709 2203 709 
Q 2569 709 2762 976 
Q 2956 1244 2956 1747 
Q 2956 2250 2762 2517 
Q 2569 2784 2203 2784 
z
M 2203 3584 
Q 3106 3584 3614 3096 
Q 4122 2609 4122 1747 
Q 4122 884 3614 396 
Q 3106 -91 2203 -91 
Q 1297 -91 786 396 
Q 275 884 275 1747 
Q 275 2609 786 3096 
Q 1297 3584 2203 3584 
z
" transform="scale(0.015625)"/>
      <path id="DejaVuSans-Bold-6d" d="M 3781 2919 
Q 3994 3244 4286 3414 
Q 4578 3584 4928 3584 
Q 5531 3584 5847 3212 
Q 6163 2841 6163 2131 
L 6163 0 
L 5038 0 
L 5038 1825 
Q 5041 1866 5042 1909 
Q 5044 1953 5044 2034 
Q 5044 2406 4934 2573 
Q 4825 2741 4581 2741 
Q 4263 2741 4089 2478 
Q 3916 2216 3909 1719 
L 3909 0 
L 2784 0 
L 2784 1825 
Q 2784 2406 2684 2573 
Q 2584 2741 2328 2741 
Q 2006 2741 1831 2477 
Q 1656 2213 1656 1722 
L 1656 0 
L 531 0 
L 531 3500 
L 1656 3500 
L 1656 2988 
Q 1863 3284 2130 3434 
Q 2397 3584 2719 3584 
Q 3081 3584 3359 3409 
Q 3638 3234 3781 2919 
z
" transform="scale(0.015625)"/>
      <path id="DejaVuSans-Bold-e9" d="M 4031 1759 
L 4031 1441 
L 1416 1441 
Q 1456 1047 1700 850 
Q 1944 653 2381 653 
Q 2734 653 3104 758 
Q 3475 863 3866 1075 
L 3866 213 
Q 3469 63 3072 -14 
Q 2675 -91 2278 -91 
Q 1328 -91 801 392 
Q 275 875 275 1747 
Q 275 2603 792 3093 
Q 1309 3584 2216 3584 
Q 3041 3584 3536 3087 
Q 4031 2591 4031 1759 
z
M 2881 2131 
Q 2881 2450 2695 2645 
Q 2509 2841 2209 2841 
Q 1884 2841 1681 2658 
Q 1478 2475 1428 2131 
L 2881 2131 
z
M 2702 5119 
L 3586 5119 
L 2433 3944 
L 1821 3944 
L 2702 5119 
z
" transform="scale(0.015625)"/>
      <path id="DejaVuSans-Bold-63" d="M 3366 3391 
L 3366 2478 
Q 3138 2634 2908 2709 
Q 2678 2784 2431 2784 
Q 1963 2784 1702 2511 
Q 1441 2238 1441 1747 
Q 1441 1256 1702 982 
Q 1963 709 2431 709 
Q 2694 709 2930 787 
Q 3166 866 3366 1019 
L 3366 103 
Q 3103 6 2833 -42 
Q 2563 -91 2291 -91 
Q 1344 -91 809 395 
Q 275 881 275 1747 
Q 275 2613 809 3098 
Q 1344 3584 2291 3584 
Q 2566 3584 2833 3536 
Q 3100 3488 3366 3391 
z
" transform="scale(0.015625)"/>
     </defs>
     <use xlink:href="#DejaVuSans-Bold-42"/>
     <use xlink:href="#DejaVuSans-Bold-20" transform="translate(76.220703 0)"/>
     <use xlink:href="#DejaVuSans-Bold-28" transform="translate(111.035156 0)"/>
     <use xlink:href="#DejaVuSans-Bold-67" transform="translate(156.738281 0)"/>
     <use xlink:href="#DejaVuSans-Bold-72" transform="translate(228.320312 0)"/>
     <use xlink:href="#DejaVuSans-Bold-75" transform="translate(277.636719 0)"/>
     <use xlink:href="#DejaVuSans-Bold-70" transform="translate(348.828125 0)"/>
     <use xlink:href="#DejaVuSans-Bold-6f" transform="translate(420.410156 0)"/>
     <use xlink:href="#DejaVuSans-Bold-73" transform="translate(489.111328 0)"/>
     <use xlink:href="#DejaVuSans-Bold-20" transform="translate(548.632812 0)"/>
     <use xlink:href="#DejaVuSans-Bold-61" transform="translate(583.447266 0)"/>
     <use xlink:href="#DejaVuSans-Bold-72" transform="translate(650.927734 0)"/>
     <use xlink:href="#DejaVuSans-Bold-69" transform="translate(700.244141 0)"/>
     <use xlink:href="#DejaVuSans-Bold-74" transform="translate(734.521484 0)"/>
     <use xlink:href="#DejaVuSans-Bold-6d" transform="translate(782.324219 0)"/>
     <use xlink:href="#DejaVuSans-Bold-e9" transform="translate(886.523438 0)"/>
     <use xlink:href="#DejaVuSans-Bold-74" transform="translate(954.345703 0)"/>
     <use xlink:href="#DejaVuSans-Bold-69" transform="translate(1002.148438 0)"/>
     <use xlink:href="#DejaVuSans-Bold-63" transform="translate(1036.425781 0)"/>
     <use xlink:href="#DejaVuSans-Bold-6f" transform="translate(1095.703125 0)"/>
     <use xlink:href="#DejaVuSans-Bold-73" transform="translate(1164.404297 0)"/>
     <use xlink:href="#DejaVuSans-Bold-29" transform="translate(1223.925781 0)"/>
    </g>
   </g>
   <g id="text_7">
    <!-- 3 -->
    <g style="fill: #f1f1f1" transform="translate(272.356729 517.922889) scale(0.105 -0.105)">
     <use xlink:href="#DejaVuSans-33"/>
    </g>
   </g>
   <g id="text_8">
    <!-- 6 -->
    <g style="fill: #f1f1f1" transform="translate(272.356729 469.978377) scale(0.105 -0.105)">
     <defs>
      <path id="DejaVuSans-36" d="M 2113 2584 
Q 1688 2584 1439 2293 
Q 1191 2003 1191 1497 
Q 1191 994 1439 701 
Q 1688 409 2113 409 
Q 2538 409 2786 701 
Q 3034 994 3034 1497 
Q 3034 2003 2786 2293 
Q 2538 2584 2113 2584 
z
M 3366 4563 
L 3366 3988 
Q 3128 4100 2886 4159 
Q 2644 4219 2406 4219 
Q 1781 4219 1451 3797 
Q 1122 3375 1075 2522 
Q 1259 2794 1537 2939 
Q 1816 3084 2150 3084 
Q 2853 3084 3261 2657 
Q 3669 2231 3669 1497 
Q 3669 778 3244 343 
Q 2819 -91 2113 -91 
Q 1303 -91 875 529 
Q 447 1150 447 2328 
Q 447 3434 972 4092 
Q 1497 4750 2381 4750 
Q 2619 4750 2861 4703 
Q 3103 4656 3366 4563 
z
" transform="scale(0.015625)"/>
     </defs>
     <use xlink:href="#DejaVuSans-36"/>
    </g>
   </g>
   <g id="text_9">
    <!-- 4 -->
    <g style="fill: #f1f1f1" transform="translate(272.356729 418.907049) scale(0.105 -0.105)">
     <defs>
      <path id="DejaVuSans-34" d="M 2419 4116 
L 825 1625 
L 2419 1625 
L 2419 4116 
z
M 2253 4666 
L 3047 4666 
L 3047 1625 
L 3713 1625 
L 3713 1100 
L 3047 1100 
L 3047 0 
L 2419 0 
L 2419 1100 
L 313 1100 
L 313 1709 
L 2253 4666 
z
" transform="scale(0.015625)"/>
     </defs>
     <use xlink:href="#DejaVuSans-34"/>
    </g>
   </g>
   <g id="text_10">
    <!-- 8 -->
    <g style="fill: #f1f1f1" transform="translate(272.356729 361.582089) scale(0.105 -0.105)">
     <defs>
      <path id="DejaVuSans-38" d="M 2034 2216 
Q 1584 2216 1326 1975 
Q 1069 1734 1069 1313 
Q 1069 891 1326 650 
Q 1584 409 2034 409 
Q 2484 409 2743 651 
Q 3003 894 3003 1313 
Q 3003 1734 2745 1975 
Q 2488 2216 2034 2216 
z
M 1403 2484 
Q 997 2584 770 2862 
Q 544 3141 544 3541 
Q 544 4100 942 4425 
Q 1341 4750 2034 4750 
Q 2731 4750 3128 4425 
Q 3525 4100 3525 3541 
Q 3525 3141 3298 2862 
Q 3072 2584 2669 2484 
Q 3125 2378 3379 2068 
Q 3634 1759 3634 1313 
Q 3634 634 3220 271 
Q 2806 -91 2034 -91 
Q 1263 -91 848 271 
Q 434 634 434 1313 
Q 434 1759 690 2068 
Q 947 2378 1403 2484 
z
M 1172 3481 
Q 1172 3119 1398 2916 
Q 1625 2713 2034 2713 
Q 2441 2713 2670 2916 
Q 2900 3119 2900 3481 
Q 2900 3844 2670 4047 
Q 2441 4250 2034 4250 
Q 1625 4250 1398 4047 
Q 1172 3844 1172 3481 
z
" transform="scale(0.015625)"/>
     </defs>
     <use xlink:href="#DejaVuSans-38"/>
    </g>
   </g>
   <g id="text_11">
    <!-- 10 -->
    <g style="fill: #f1f1f1" transform="translate(269.016416 285.496233) scale(0.105 -0.105)">
     <defs>
      <path id="DejaVuSans-30" d="M 2034 4250 
Q 1547 4250 1301 3770 
Q 1056 3291 1056 2328 
Q 1056 1369 1301 889 
Q 1547 409 2034 409 
Q 2525 409 2770 889 
Q 3016 1369 3016 2328 
Q 3016 3291 2770 3770 
Q 2525 4250 2034 4250 
z
M 2034 4750 
Q 2819 4750 3233 4129 
Q 3647 3509 3647 2328 
Q 3647 1150 3233 529 
Q 2819 -91 2034 -91 
Q 1250 -91 836 529 
Q 422 1150 422 2328 
Q 422 3509 836 4129 
Q 1250 4750 2034 4750 
z
" transform="scale(0.015625)"/>
     </defs>
     <use xlink:href="#DejaVuSans-31"/>
     <use xlink:href="#DejaVuSans-30" transform="translate(63.623047 0)"/>
    </g>
   </g>
   <g id="text_12">
    <!-- 5 -->
    <g style="fill: #f1f1f1" transform="translate(272.356729 218.790825) scale(0.105 -0.105)">
     <defs>
      <path id="DejaVuSans-35" d="M 691 4666 
L 3169 4666 
L 3169 4134 
L 1269 4134 
L 1269 2991 
Q 1406 3038 1543 3061 
Q 1681 3084 1819 3084 
Q 2600 3084 3056 2656 
Q 3513 2228 3513 1497 
Q 3513 744 3044 326 
Q 2575 -91 1722 -91 
Q 1428 -91 1123 -41 
Q 819 9 494 109 
L 494 744 
Q 775 591 1075 516 
Q 1375 441 1709 441 
Q 2250 441 2565 725 
Q 2881 1009 2881 1497 
Q 2881 1984 2565 2268 
Q 2250 2553 1709 2553 
Q 1456 2553 1204 2497 
Q 953 2441 691 2322 
L 691 4666 
z
" transform="scale(0.015625)"/>
     </defs>
     <use xlink:href="#DejaVuSans-35"/>
    </g>
   </g>
   <g id="text_13">
    <!-- 5 -->
    <g style="fill: #f1f1f1" transform="translate(272.356729 167.719497) scale(0.105 -0.105)">
     <use xlink:href="#DejaVuSans-35"/>
    </g>
   </g>
   <g id="text_14">
    <!-- 10 -->
    <g style="fill: #f1f1f1" transform="translate(269.016416 101.014089) scale(0.105 -0.105)">
     <use xlink:href="#DejaVuSans-31"/>
     <use xlink:href="#DejaVuSans-30" transform="translate(63.623047 0)"/>
    </g>
   </g>
   <g id="text_15">
    <!-- C (somas/ciclos) -->
    <g style="fill: #f3a065" transform="translate(313.446841 65.291247) scale(0.125 -0.125)">
     <defs>
      <path id="DejaVuSans-Bold-43" d="M 4288 256 
Q 3956 84 3597 -3 
Q 3238 -91 2847 -91 
Q 1681 -91 1000 561 
Q 319 1213 319 2328 
Q 319 3447 1000 4098 
Q 1681 4750 2847 4750 
Q 3238 4750 3597 4662 
Q 3956 4575 4288 4403 
L 4288 3438 
Q 3953 3666 3628 3772 
Q 3303 3878 2944 3878 
Q 2300 3878 1931 3465 
Q 1563 3053 1563 2328 
Q 1563 1606 1931 1193 
Q 2300 781 2944 781 
Q 3303 781 3628 887 
Q 3953 994 4288 1222 
L 4288 256 
z
" transform="scale(0.015625)"/>
      <path id="DejaVuSans-Bold-2f" d="M 1644 4666 
L 2338 4666 
L 691 -594 
L 0 -594 
L 1644 4666 
z
" transform="scale(0.015625)"/>
      <path id="DejaVuSans-Bold-6c" d="M 538 4863 
L 1656 4863 
L 1656 0 
L 538 0 
L 538 4863 
z
" transform="scale(0.015625)"/>
     </defs>
     <use xlink:href="#DejaVuSans-Bold-43"/>
     <use xlink:href="#DejaVuSans-Bold-20" transform="translate(73.388672 0)"/>
     <use xlink:href="#DejaVuSans-Bold-28" transform="translate(108.203125 0)"/>
     <use xlink:href="#DejaVuSans-Bold-73" transform="translate(153.90625 0)"/>
     <use xlink:href="#DejaVuSans-Bold-6f" transform="translate(213.427734 0)"/>
     <use xlink:href="#DejaVuSans-Bold-6d" transform="translate(282.128906 0)"/>
     <use xlink:href="#DejaVuSans-Bold-61" transform="translate(386.328125 0)"/>
     <use xlink:href="#DejaVuSans-Bold-73" transform="translate(453.808594 0)"/>
     <use xlink:href="#DejaVuSans-Bold-2f" transform="translate(513.330078 0)"/>
     <use xlink:href="#DejaVuSans-Bold-63" transform="translate(549.853516 0)"/>
     <use xlink:href="#DejaVuSans-Bold-69" transform="translate(609.130859 0)"/>
     <use xlink:href="#DejaVuSans-Bold-63" transform="translate(643.408203 0)"/>
     <use xlink:href="#DejaVuSans-Bold-6c" transform="translate(702.685547 0)"/>
     <use xlink:href="#DejaVuSans-Bold-6f" transform="translate(736.962891 0)"/>
     <use xlink:href="#DejaVuSans-Bold-73" transform="translate(805.664062 0)"/>
     <use xlink:href="#DejaVuSans-Bold-29" transform="translate(865.185547 0)"/>
    </g>
   </g>
   <g id="text_16">
    <!-- 11 -->
    <g style="fill: #f1f1f1" transform="translate(336.512096 492.908361) scale(0.105 -0.105)">
     <use xlink:href="#DejaVuSans-31"/>
     <use xlink:href="#DejaVuSans-31" transform="translate(63.623047 0)"/>
    </g>
   </g>
   <g id="text_17">
    <!-- 21 -->
    <g style="fill: #f1f1f1" transform="translate(336.512096 373.047081) scale(0.105 -0.105)">
     <defs>
      <path id="DejaVuSans-32" d="M 1228 531 
L 3431 531 
L 3431 0 
L 469 0 
L 469 531 
Q 828 903 1448 1529 
Q 2069 2156 2228 2338 
Q 2531 2678 2651 2914 
Q 2772 3150 2772 3378 
Q 2772 3750 2511 3984 
Q 2250 4219 1831 4219 
Q 1534 4219 1204 4116 
Q 875 4013 500 3803 
L 500 4441 
Q 881 4594 1212 4672 
Q 1544 4750 1819 4750 
Q 2544 4750 2975 4387 
Q 3406 4025 3406 3419 
Q 3406 3131 3298 2873 
Q 3191 2616 2906 2266 
Q 2828 2175 2409 1742 
Q 1991 1309 1228 531 
z
" transform="scale(0.015625)"/>
     </defs>
     <use xlink:href="#DejaVuSans-32"/>
     <use xlink:href="#DejaVuSans-31" transform="translate(63.623047 0)"/>
    </g>
   </g>
   <g id="text_18">
    <!-- 19 -->
    <g style="fill: #f1f1f1" transform="translate(336.512096 228.171273) scale(0.105 -0.105)">
     <use xlink:href="#DejaVuSans-31"/>
     <use xlink:href="#DejaVuSans-39" transform="translate(63.623047 0)"/>
    </g>
   </g>
   <g id="text_19">
    <!-- 9 -->
    <g style="fill: #f1f1f1" transform="translate(339.852409 120.817257) scale(0.105 -0.105)">
     <use xlink:href="#DejaVuSans-39"/>
    </g>
   </g>
   <g id="text_20">
    <!-- Osso de Ishango — Entalhes e Padrões -->
    <g style="fill: #f1f1f1" transform="translate(68.792766 20.033906) scale(0.165 -0.165)">
     <defs>
      <path id="DejaVuSans-Bold-4f" d="M 2719 3878 
Q 2169 3878 1866 3472 
Q 1563 3066 1563 2328 
Q 1563 1594 1866 1187 
Q 2169 781 2719 781 
Q 3272 781 3575 1187 
Q 3878 1594 3878 2328 
Q 3878 3066 3575 3472 
Q 3272 3878 2719 3878 
z
M 2719 4750 
Q 3844 4750 4481 4106 
Q 5119 3463 5119 2328 
Q 5119 1197 4481 553 
Q 3844 -91 2719 -91 
Q 1597 -91 958 553 
Q 319 1197 319 2328 
Q 319 3463 958 4106 
Q 1597 4750 2719 4750 
z
" transform="scale(0.015625)"/>
      <path id="DejaVuSans-Bold-64" d="M 2919 2988 
L 2919 4863 
L 4044 4863 
L 4044 0 
L 2919 0 
L 2919 506 
Q 2688 197 2409 53 
Q 2131 -91 1766 -91 
Q 1119 -91 703 423 
Q 288 938 288 1747 
Q 288 2556 703 3070 
Q 1119 3584 1766 3584 
Q 2128 3584 2408 3439 
Q 2688 3294 2919 2988 
z
M 2181 722 
Q 2541 722 2730 984 
Q 2919 1247 2919 1747 
Q 2919 2247 2730 2509 
Q 2541 2772 2181 2772 
Q 1825 2772 1636 2509 
Q 1447 2247 1447 1747 
Q 1447 1247 1636 984 
Q 1825 722 2181 722 
z
" transform="scale(0.015625)"/>
      <path id="DejaVuSans-Bold-49" d="M 588 4666 
L 1791 4666 
L 1791 0 
L 588 0 
L 588 4666 
z
" transform="scale(0.015625)"/>
      <path id="DejaVuSans-Bold-68" d="M 4056 2131 
L 4056 0 
L 2931 0 
L 2931 347 
L 2931 1625 
Q 2931 2084 2911 2256 
Q 2891 2428 2841 2509 
Q 2775 2619 2662 2680 
Q 2550 2741 2406 2741 
Q 2056 2741 1856 2470 
Q 1656 2200 1656 1722 
L 1656 0 
L 538 0 
L 538 4863 
L 1656 4863 
L 1656 2988 
Q 1909 3294 2193 3439 
Q 2478 3584 2822 3584 
Q 3428 3584 3742 3212 
Q 4056 2841 4056 2131 
z
" transform="scale(0.015625)"/>
      <path id="DejaVuSans-Bold-2014" d="M 344 2156 
L 6056 2156 
L 6056 1350 
L 344 1350 
L 344 2156 
z
" transform="scale(0.015625)"/>
      <path id="DejaVuSans-Bold-45" d="M 588 4666 
L 3834 4666 
L 3834 3756 
L 1791 3756 
L 1791 2888 
L 3713 2888 
L 3713 1978 
L 1791 1978 
L 1791 909 
L 3903 909 
L 3903 0 
L 588 0 
L 588 4666 
z
" transform="scale(0.015625)"/>
      <path id="DejaVuSans-Bold-50" d="M 588 4666 
L 2584 4666 
Q 3475 4666 3951 4270 
Q 4428 3875 4428 3144 
Q 4428 2409 3951 2014 
Q 3475 1619 2584 1619 
L 1791 1619 
L 1791 0 
L 588 0 
L 588 4666 
z
M 1791 3794 
L 1791 2491 
L 2456 2491 
Q 2806 2491 2997 2661 
Q 3188 2831 3188 3144 
Q 3188 3456 2997 3625 
Q 2806 3794 2456 3794 
L 1791 3794 
z
" transform="scale(0.015625)"/>
     </defs>
     <use xlink:href="#DejaVuSans-Bold-4f"/>
     <use xlink:href="#DejaVuSans-Bold-73" transform="translate(85.009766 0)"/>
     <use xlink:href="#DejaVuSans-Bold-73" transform="translate(144.53125 0)"/>
     <use xlink:href="#DejaVuSans-Bold-6f" transform="translate(204.052734 0)"/>
     <use xlink:href="#DejaVuSans-Bold-20" transform="translate(272.753906 0)"/>
     <use xlink:href="#DejaVuSans-Bold-64" transform="translate(307.568359 0)"/>
     <use xlink:href="#DejaVuSans-Bold-65" transform="translate(379.150391 0)"/>
     <use xlink:href="#DejaVuSans-Bold-20" transform="translate(446.972656 0)"/>
     <use xlink:href="#DejaVuSans-Bold-49" transform="translate(481.787109 0)"/>
     <use xlink:href="#DejaVuSans-Bold-73" transform="translate(518.994141 0)"/>
     <use xlink:href="#DejaVuSans-Bold-68" transform="translate(578.515625 0)"/>
     <use xlink:href="#DejaVuSans-Bold-61" transform="translate(649.707031 0)"/>
     <use xlink:href="#DejaVuSans-Bold-6e" transform="translate(717.1875 0)"/>
     <use xlink:href="#DejaVuSans-Bold-67" transform="translate(788.378906 0)"/>
     <use xlink:href="#DejaVuSans-Bold-6f" transform="translate(859.960938 0)"/>
     <use xlink:href="#DejaVuSans-Bold-20" transform="translate(928.662109 0)"/>
     <use xlink:href="#DejaVuSans-Bold-2014" transform="translate(963.476562 0)"/>
     <use xlink:href="#DejaVuSans-Bold-20" transform="translate(1063.476562 0)"/>
     <use xlink:href="#DejaVuSans-Bold-45" transform="translate(1098.291016 0)"/>
     <use xlink:href="#DejaVuSans-Bold-6e" transform="translate(1166.601562 0)"/>
     <use xlink:href="#DejaVuSans-Bold-74" transform="translate(1237.792969 0)"/>
     <use xlink:href="#DejaVuSans-Bold-61" transform="translate(1285.595703 0)"/>
     <use xlink:href="#DejaVuSans-Bold-6c" transform="translate(1353.076172 0)"/>
     <use xlink:href="#DejaVuSans-Bold-68" transform="translate(1387.353516 0)"/>
     <use xlink:href="#DejaVuSans-Bold-65" transform="translate(1458.544922 0)"/>
     <use xlink:href="#DejaVuSans-Bold-73" transform="translate(1526.367188 0)"/>
     <use xlink:href="#DejaVuSans-Bold-20" transform="translate(1585.888672 0)"/>
     <use xlink:href="#DejaVuSans-Bold-65" transform="translate(1620.703125 0)"/>
     <use xlink:href="#DejaVuSans-Bold-20" transform="translate(1688.525391 0)"/>
     <use xlink:href="#DejaVuSans-Bold-50" transform="translate(1723.339844 0)"/>
     <use xlink:href="#DejaVuSans-Bold-61" transform="translate(1794.005859 0)"/>
     <use xlink:href="#DejaVuSans-Bold-64" transform="translate(1861.486328 0)"/>
     <use xlink:href="#DejaVuSans-Bold-72" transform="translate(1933.068359 0)"/>
     <use xlink:href="#DejaVuSans-Bold-f5" transform="translate(1982.384766 0)"/>
     <use xlink:href="#DejaVuSans-Bold-65" transform="translate(2051.085938 0)"/>
     <use xlink:href="#DejaVuSans-Bold-73" transform="translate(2118.908203 0)"/>
    </g>
   </g>
   <g id="text_21">
    <!-- Padrões: agrupamentos/duplicações e possíveis leituras (ex.: base 12). Reconstrução didática. -->
    <g style="fill: #cfd2d8" transform="translate(7.2 564.874831) scale(0.102 -0.102)">
     <defs>
      <path id="DejaVuSans-50" d="M 1259 4147 
L 1259 2394 
L 2053 2394 
Q 2494 2394 2734 2622 
Q 2975 2850 2975 3272 
Q 2975 3691 2734 3919 
Q 2494 4147 2053 4147 
L 1259 4147 
z
M 628 4666 
L 2053 4666 
Q 2838 4666 3239 4311 
Q 3641 3956 3641 3272 
Q 3641 2581 3239 2228 
Q 2838 1875 2053 1875 
L 1259 1875 
L 1259 0 
L 628 0 
L 628 4666 
z
" transform="scale(0.015625)"/>
      <path id="DejaVuSans-61" d="M 2194 1759 
Q 1497 1759 1228 1600 
Q 959 1441 959 1056 
Q 959 750 1161 570 
Q 1363 391 1709 391 
Q 2188 391 2477 730 
Q 2766 1069 2766 1631 
L 2766 1759 
L 2194 1759 
z
M 3341 1997 
L 3341 0 
L 2766 0 
L 2766 531 
Q 2569 213 2275 61 
Q 1981 -91 1556 -91 
Q 1019 -91 701 211 
Q 384 513 384 1019 
Q 384 1609 779 1909 
Q 1175 2209 1959 2209 
L 2766 2209 
L 2766 2266 
Q 2766 2663 2505 2880 
Q 2244 3097 1772 3097 
Q 1472 3097 1187 3025 
Q 903 2953 641 2809 
L 641 3341 
Q 956 3463 1253 3523 
Q 1550 3584 1831 3584 
Q 2591 3584 2966 3190 
Q 3341 2797 3341 1997 
z
" transform="scale(0.015625)"/>
      <path id="DejaVuSans-64" d="M 2906 2969 
L 2906 4863 
L 3481 4863 
L 3481 0 
L 2906 0 
L 2906 525 
Q 2725 213 2448 61 
Q 2172 -91 1784 -91 
Q 1150 -91 751 415 
Q 353 922 353 1747 
Q 353 2572 751 3078 
Q 1150 3584 1784 3584 
Q 2172 3584 2448 3432 
Q 2725 3281 2906 2969 
z
M 947 1747 
Q 947 1113 1208 752 
Q 1469 391 1925 391 
Q 2381 391 2643 752 
Q 2906 1113 2906 1747 
Q 2906 2381 2643 2742 
Q 2381 3103 1925 3103 
Q 1469 3103 1208 2742 
Q 947 2381 947 1747 
z
" transform="scale(0.015625)"/>
      <path id="DejaVuSans-72" d="M 2631 2963 
Q 2534 3019 2420 3045 
Q 2306 3072 2169 3072 
Q 1681 3072 1420 2755 
Q 1159 2438 1159 1844 
L 1159 0 
L 581 0 
L 581 3500 
L 1159 3500 
L 1159 2956 
Q 1341 3275 1631 3429 
Q 1922 3584 2338 3584 
Q 2397 3584 2469 3576 
Q 2541 3569 2628 3553 
L 2631 2963 
z
" transform="scale(0.015625)"/>
      <path id="DejaVuSans-f5" d="M 1959 3097 
Q 1497 3097 1228 2736 
Q 959 2375 959 1747 
Q 959 1119 1226 758 
Q 1494 397 1959 397 
Q 2419 397 2687 759 
Q 2956 1122 2956 1747 
Q 2956 2369 2687 2733 
Q 2419 3097 1959 3097 
z
M 1959 3584 
Q 2709 3584 3137 3096 
Q 3566 2609 3566 1747 
Q 3566 888 3137 398 
Q 2709 -91 1959 -91 
Q 1206 -91 779 398 
Q 353 888 353 1747 
Q 353 2609 779 3096 
Q 1206 3584 1959 3584 
z
M 1948 4281 
L 1769 4453 
Q 1701 4516 1649 4545 
Q 1598 4575 1557 4575 
Q 1438 4575 1382 4461 
Q 1326 4347 1319 4091 
L 929 4091 
Q 935 4513 1094 4742 
Q 1254 4972 1538 4972 
Q 1657 4972 1757 4928 
Q 1857 4884 1973 4781 
L 2151 4609 
Q 2219 4547 2271 4517 
Q 2323 4488 2363 4488 
Q 2482 4488 2538 4602 
Q 2594 4716 2601 4972 
L 2991 4972 
Q 2985 4550 2825 4320 
Q 2666 4091 2382 4091 
Q 2263 4091 2163 4134 
Q 2063 4178 1948 4281 
z
" transform="scale(0.015625)"/>
      <path id="DejaVuSans-65" d="M 3597 1894 
L 3597 1613 
L 953 1613 
Q 991 1019 1311 708 
Q 1631 397 2203 397 
Q 2534 397 2845 478 
Q 3156 559 3463 722 
L 3463 178 
Q 3153 47 2828 -22 
Q 2503 -91 2169 -91 
Q 1331 -91 842 396 
Q 353 884 353 1716 
Q 353 2575 817 3079 
Q 1281 3584 2069 3584 
Q 2775 3584 3186 3129 
Q 3597 2675 3597 1894 
z
M 3022 2063 
Q 3016 2534 2758 2815 
Q 2500 3097 2075 3097 
Q 1594 3097 1305 2825 
Q 1016 2553 972 2059 
L 3022 2063 
z
" transform="scale(0.015625)"/>
      <path id="DejaVuSans-73" d="M 2834 3397 
L 2834 2853 
Q 2591 2978 2328 3040 
Q 2066 3103 1784 3103 
Q 1356 3103 1142 2972 
Q 928 2841 928 2578 
Q 928 2378 1081 2264 
Q 1234 2150 1697 2047 
L 1894 2003 
Q 2506 1872 2764 1633 
Q 3022 1394 3022 966 
Q 3022 478 2636 193 
Q 2250 -91 1575 -91 
Q 1294 -91 989 -36 
Q 684 19 347 128 
L 347 722 
Q 666 556 975 473 
Q 1284 391 1588 391 
Q 1994 391 2212 530 
Q 2431 669 2431 922 
Q 2431 1156 2273 1281 
Q 2116 1406 1581 1522 
L 1381 1569 
Q 847 1681 609 1914 
Q 372 2147 372 2553 
Q 372 3047 722 3315 
Q 1072 3584 1716 3584 
Q 2034 3584 2315 3537 
Q 2597 3491 2834 3397 
z
" transform="scale(0.015625)"/>
      <path id="DejaVuSans-3a" d="M 750 794 
L 1409 794 
L 1409 0 
L 750 0 
L 750 794 
z
M 750 3309 
L 1409 3309 
L 1409 2516 
L 750 2516 
L 750 3309 
z
" transform="scale(0.015625)"/>
      <path id="DejaVuSans-20" transform="scale(0.015625)"/>
      <path id="DejaVuSans-67" d="M 2906 1791 
Q 2906 2416 2648 2759 
Q 2391 3103 1925 3103 
Q 1463 3103 1205 2759 
Q 947 2416 947 1791 
Q 947 1169 1205 825 
Q 1463 481 1925 481 
Q 2391 481 2648 825 
Q 2906 1169 2906 1791 
z
M 3481 434 
Q 3481 -459 3084 -895 
Q 2688 -1331 1869 -1331 
Q 1566 -1331 1297 -1286 
Q 1028 -1241 775 -1147 
L 775 -588 
Q 1028 -725 1275 -790 
Q 1522 -856 1778 -856 
Q 2344 -856 2625 -561 
Q 2906 -266 2906 331 
L 2906 616 
Q 2728 306 2450 153 
Q 2172 0 1784 0 
Q 1141 0 747 490 
Q 353 981 353 1791 
Q 353 2603 747 3093 
Q 1141 3584 1784 3584 
Q 2172 3584 2450 3431 
Q 2728 3278 2906 2969 
L 2906 3500 
L 3481 3500 
L 3481 434 
z
" transform="scale(0.015625)"/>
      <path id="DejaVuSans-75" d="M 544 1381 
L 544 3500 
L 1119 3500 
L 1119 1403 
Q 1119 906 1312 657 
Q 1506 409 1894 409 
Q 2359 409 2629 706 
Q 2900 1003 2900 1516 
L 2900 3500 
L 3475 3500 
L 3475 0 
L 2900 0 
L 2900 538 
Q 2691 219 2414 64 
Q 2138 -91 1772 -91 
Q 1169 -91 856 284 
Q 544 659 544 1381 
z
M 1991 3584 
L 1991 3584 
z
" transform="scale(0.015625)"/>
      <path id="DejaVuSans-70" d="M 1159 525 
L 1159 -1331 
L 581 -1331 
L 581 3500 
L 1159 3500 
L 1159 2969 
Q 1341 3281 1617 3432 
Q 1894 3584 2278 3584 
Q 2916 3584 3314 3078 
Q 3713 2572 3713 1747 
Q 3713 922 3314 415 
Q 2916 -91 2278 -91 
Q 1894 -91 1617 61 
Q 1341 213 1159 525 
z
M 3116 1747 
Q 3116 2381 2855 2742 
Q 2594 3103 2138 3103 
Q 1681 3103 1420 2742 
Q 1159 2381 1159 1747 
Q 1159 1113 1420 752 
Q 1681 391 2138 391 
Q 2594 391 2855 752 
Q 3116 1113 3116 1747 
z
" transform="scale(0.015625)"/>
      <path id="DejaVuSans-6d" d="M 3328 2828 
Q 3544 3216 3844 3400 
Q 4144 3584 4550 3584 
Q 5097 3584 5394 3201 
Q 5691 2819 5691 2113 
L 5691 0 
L 5113 0 
L 5113 2094 
Q 5113 2597 4934 2840 
Q 4756 3084 4391 3084 
Q 3944 3084 3684 2787 
Q 3425 2491 3425 1978 
L 3425 0 
L 2847 0 
L 2847 2094 
Q 2847 2600 2669 2842 
Q 2491 3084 2119 3084 
Q 1678 3084 1418 2786 
Q 1159 2488 1159 1978 
L 1159 0 
L 581 0 
L 581 3500 
L 1159 3500 
L 1159 2956 
Q 1356 3278 1631 3431 
Q 1906 3584 2284 3584 
Q 2666 3584 2933 3390 
Q 3200 3197 3328 2828 
z
" transform="scale(0.015625)"/>
      <path id="DejaVuSans-6e" d="M 3513 2113 
L 3513 0 
L 2938 0 
L 2938 2094 
Q 2938 2591 2744 2837 
Q 2550 3084 2163 3084 
Q 1697 3084 1428 2787 
Q 1159 2491 1159 1978 
L 1159 0 
L 581 0 
L 581 3500 
L 1159 3500 
L 1159 2956 
Q 1366 3272 1645 3428 
Q 1925 3584 2291 3584 
Q 2894 3584 3203 3211 
Q 3513 2838 3513 2113 
z
" transform="scale(0.015625)"/>
      <path id="DejaVuSans-74" d="M 1172 4494 
L 1172 3500 
L 2356 3500 
L 2356 3053 
L 1172 3053 
L 1172 1153 
Q 1172 725 1289 603 
Q 1406 481 1766 481 
L 2356 481 
L 2356 0 
L 1766 0 
Q 1100 0 847 248 
Q 594 497 594 1153 
L 594 3053 
L 172 3053 
L 172 3500 
L 594 3500 
L 594 4494 
L 1172 4494 
z
" transform="scale(0.015625)"/>
      <path id="DejaVuSans-6f" d="M 1959 3097 
Q 1497 3097 1228 2736 
Q 959 2375 959 1747 
Q 959 1119 1226 758 
Q 1494 397 1959 397 
Q 2419 397 2687 759 
Q 2956 1122 2956 1747 
Q 2956 2369 2687 2733 
Q 2419 3097 1959 3097 
z
M 1959 3584 
Q 2709 3584 3137 3096 
Q 3566 2609 3566 1747 
Q 3566 888 3137 398 
Q 2709 -91 1959 -91 
Q 1206 -91 779 398 
Q 353 888 353 1747 
Q 353 2609 779 3096 
Q 1206 3584 1959 3584 
z
" transform="scale(0.015625)"/>
      <path id="DejaVuSans-2f" d="M 1625 4666 
L 2156 4666 
L 531 -594 
L 0 -594 
L 1625 4666 
z
" transform="scale(0.015625)"/>
      <path id="DejaVuSans-6c" d="M 603 4863 
L 1178 4863 
L 1178 0 
L 603 0 
L 603 4863 
z
" transform="scale(0.015625)"/>
      <path id="DejaVuSans-69" d="M 603 3500 
L 1178 3500 
L 1178 0 
L 603 0 
L 603 3500 
z
M 603 4863 
L 1178 4863 
L 1178 4134 
L 603 4134 
L 603 4863 
z
" transform="scale(0.015625)"/>
      <path id="DejaVuSans-63" d="M 3122 3366 
L 3122 2828 
Q 2878 2963 2633 3030 
Q 2388 3097 2138 3097 
Q 1578 3097 1268 2742 
Q 959 2388 959 1747 
Q 959 1106 1268 751 
Q 1578 397 2138 397 
Q 2388 397 2633 464 
Q 2878 531 3122 666 
L 3122 134 
Q 2881 22 2623 -34 
Q 2366 -91 2075 -91 
Q 1284 -91 818 406 
Q 353 903 353 1747 
Q 353 2603 823 3093 
Q 1294 3584 2113 3584 
Q 2378 3584 2631 3529 
Q 2884 3475 3122 3366 
z
" transform="scale(0.015625)"/>
      <path id="DejaVuSans-e7" d="M 3122 3366 
L 3122 2828 
Q 2878 2963 2633 3030 
Q 2388 3097 2138 3097 
Q 1578 3097 1268 2742 
Q 959 2388 959 1747 
Q 959 1106 1268 751 
Q 1578 397 2138 397 
Q 2388 397 2633 464 
Q 2878 531 3122 666 
L 3122 134 
Q 2881 22 2623 -34 
Q 2366 -91 2075 -91 
Q 1284 -91 818 406 
Q 353 903 353 1747 
Q 353 2603 823 3093 
Q 1294 3584 2113 3584 
Q 2378 3584 2631 3529 
Q 2884 3475 3122 3366 
z
M 2311 0 
Q 2482 -194 2566 -358 
Q 2651 -522 2651 -672 
Q 2651 -950 2463 -1092 
Q 2276 -1234 1907 -1234 
Q 1764 -1234 1628 -1215 
Q 1492 -1197 1357 -1159 
L 1357 -750 
Q 1464 -803 1579 -826 
Q 1695 -850 1842 -850 
Q 2026 -850 2120 -775 
Q 2214 -700 2214 -556 
Q 2214 -463 2146 -327 
Q 2079 -191 1939 0 
L 2311 0 
z
" transform="scale(0.015625)"/>
      <path id="DejaVuSans-ed" d="M 1322 5119 
L 1944 5119 
L 926 3944 
L 447 3944 
L 1322 5119 
z
M 603 3500 
L 1178 3500 
L 1178 0 
L 603 0 
L 603 3500 
z
M 891 3584 
L 891 3584 
z
" transform="scale(0.015625)"/>
      <path id="DejaVuSans-76" d="M 191 3500 
L 800 3500 
L 1894 563 
L 2988 3500 
L 3597 3500 
L 2284 0 
L 1503 0 
L 191 3500 
z
" transform="scale(0.015625)"/>
      <path id="DejaVuSans-28" d="M 1984 4856 
Q 1566 4138 1362 3434 
Q 1159 2731 1159 2009 
Q 1159 1288 1364 580 
Q 1569 -128 1984 -844 
L 1484 -844 
Q 1016 -109 783 600 
Q 550 1309 550 2009 
Q 550 2706 781 3412 
Q 1013 4119 1484 4856 
L 1984 4856 
z
" transform="scale(0.015625)"/>
      <path id="DejaVuSans-78" d="M 3513 3500 
L 2247 1797 
L 3578 0 
L 2900 0 
L 1881 1375 
L 863 0 
L 184 0 
L 1544 1831 
L 300 3500 
L 978 3500 
L 1906 2253 
L 2834 3500 
L 3513 3500 
z
" transform="scale(0.015625)"/>
      <path id="DejaVuSans-2e" d="M 684 794 
L 1344 794 
L 1344 0 
L 684 0 
L 684 794 
z
" transform="scale(0.015625)"/>
      <path id="DejaVuSans-62" d="M 3116 1747 
Q 3116 2381 2855 2742 
Q 2594 3103 2138 3103 
Q 1681 3103 1420 2742 
Q 1159 2381 1159 1747 
Q 1159 1113 1420 752 
Q 1681 391 2138 391 
Q 2594 391 2855 752 
Q 3116 1113 3116 1747 
z
M 1159 2969 
Q 1341 3281 1617 3432 
Q 1894 3584 2278 3584 
Q 2916 3584 3314 3078 
Q 3713 2572 3713 1747 
Q 3713 922 3314 415 
Q 2916 -91 2278 -91 
Q 1894 -91 1617 61 
Q 1341 213 1159 525 
L 1159 0 
L 581 0 
L 581 4863 
L 1159 4863 
L 1159 2969 
z
" transform="scale(0.015625)"/>
      <path id="DejaVuSans-29" d="M 513 4856 
L 1013 4856 
Q 1481 4119 1714 3412 
Q 1947 2706 1947 2009 
Q 1947 1309 1714 600 
Q 1481 -109 1013 -844 
L 513 -844 
Q 928 -128 1133 580 
Q 1338 1288 1338 2009 
Q 1338 2731 1133 3434 
Q 928 4138 513 4856 
z
" transform="scale(0.015625)"/>
      <path id="DejaVuSans-52" d="M 2841 2188 
Q 3044 2119 3236 1894 
Q 3428 1669 3622 1275 
L 4263 0 
L 3584 0 
L 2988 1197 
Q 2756 1666 2539 1819 
Q 2322 1972 1947 1972 
L 1259 1972 
L 1259 0 
L 628 0 
L 628 4666 
L 2053 4666 
Q 2853 4666 3247 4331 
Q 3641 3997 3641 3322 
Q 3641 2881 3436 2590 
Q 3231 2300 2841 2188 
z
M 1259 4147 
L 1259 2491 
L 2053 2491 
Q 2509 2491 2742 2702 
Q 2975 2913 2975 3322 
Q 2975 3731 2742 3939 
Q 2509 4147 2053 4147 
L 1259 4147 
z
" transform="scale(0.015625)"/>
      <path id="DejaVuSans-e3" d="M 2194 1759 
Q 1497 1759 1228 1600 
Q 959 1441 959 1056 
Q 959 750 1161 570 
Q 1363 391 1709 391 
Q 2188 391 2477 730 
Q 2766 1069 2766 1631 
L 2766 1759 
L 2194 1759 
z
M 3341 1997 
L 3341 0 
L 2766 0 
L 2766 531 
Q 2569 213 2275 61 
Q 1981 -91 1556 -91 
Q 1019 -91 701 211 
Q 384 513 384 1019 
Q 384 1609 779 1909 
Q 1175 2209 1959 2209 
L 2766 2209 
L 2766 2266 
Q 2766 2663 2505 2880 
Q 2244 3097 1772 3097 
Q 1472 3097 1187 3025 
Q 903 2953 641 2809 
L 641 3341 
Q 956 3463 1253 3523 
Q 1550 3584 1831 3584 
Q 2591 3584 2966 3190 
Q 3341 2797 3341 1997 
z
M 1844 4281 
L 1665 4453 
Q 1597 4516 1545 4545 
Q 1494 4575 1453 4575 
Q 1334 4575 1278 4461 
Q 1222 4347 1215 4091 
L 825 4091 
Q 831 4513 990 4742 
Q 1150 4972 1434 4972 
Q 1553 4972 1653 4928 
Q 1753 4884 1869 4781 
L 2047 4609 
Q 2115 4547 2167 4517 
Q 2219 4488 2259 4488 
Q 2378 4488 2434 4602 
Q 2490 4716 2497 4972 
L 2887 4972 
Q 2881 4550 2721 4320 
Q 2562 4091 2278 4091 
Q 2159 4091 2059 4134 
Q 1959 4178 1844 4281 
z
" transform="scale(0.015625)"/>
      <path id="DejaVuSans-e1" d="M 2194 1759 
Q 1497 1759 1228 1600 
Q 959 1441 959 1056 
Q 959 750 1161 570 
Q 1363 391 1709 391 
Q 2188 391 2477 730 
Q 2766 1069 2766 1631 
L 2766 1759 
L 2194 1759 
z
M 3341 1997 
L 3341 0 
L 2766 0 
L 2766 531 
Q 2569 213 2275 61 
Q 1981 -91 1556 -91 
Q 1019 -91 701 211 
Q 384 513 384 1019 
Q 384 1609 779 1909 
Q 1175 2209 1959 2209 
L 2766 2209 
L 2766 2266 
Q 2766 2663 2505 2880 
Q 2244 3097 1772 3097 
Q 1472 3097 1187 3025 
Q 903 2953 641 2809 
L 641 3341 
Q 956 3463 1253 3523 
Q 1550 3584 1831 3584 
Q 2591 3584 2966 3190 
Q 3341 2797 3341 1997 
z
M 2290 5119 
L 2912 5119 
L 1894 3944 
L 1415 3944 
L 2290 5119 
z
" transform="scale(0.015625)"/>
     </defs>
     <use xlink:href="#DejaVuSans-50"/>
     <use xlink:href="#DejaVuSans-61" transform="translate(55.802734 0)"/>
     <use xlink:href="#DejaVuSans-64" transform="translate(117.082031 0)"/>
     <use xlink:href="#DejaVuSans-72" transform="translate(180.558594 0)"/>
     <use xlink:href="#DejaVuSans-f5" transform="translate(219.421875 0)"/>
     <use xlink:href="#DejaVuSans-65" transform="translate(280.603516 0)"/>
     <use xlink:href="#DejaVuSans-73" transform="translate(342.126953 0)"/>
     <use xlink:href="#DejaVuSans-3a" transform="translate(394.226562 0)"/>
     <use xlink:href="#DejaVuSans-20" transform="translate(427.917969 0)"/>
     <use xlink:href="#DejaVuSans-61" transform="translate(459.705078 0)"/>
     <use xlink:href="#DejaVuSans-67" transform="translate(520.984375 0)"/>
     <use xlink:href="#DejaVuSans-72" transform="translate(584.460938 0)"/>
     <use xlink:href="#DejaVuSans-75" transform="translate(625.574219 0)"/>
     <use xlink:href="#DejaVuSans-70" transform="translate(688.953125 0)"/>
     <use xlink:href="#DejaVuSans-61" transform="translate(752.429688 0)"/>
     <use xlink:href="#DejaVuSans-6d" transform="translate(813.708984 0)"/>
     <use xlink:href="#DejaVuSans-65" transform="translate(911.121094 0)"/>
     <use xlink:href="#DejaVuSans-6e" transform="translate(972.644531 0)"/>
     <use xlink:href="#DejaVuSans-74" transform="translate(1036.023438 0)"/>
     <use xlink:href="#DejaVuSans-6f" transform="translate(1075.232422 0)"/>
     <use xlink:href="#DejaVuSans-73" transform="translate(1136.414062 0)"/>
     <use xlink:href="#DejaVuSans-2f" transform="translate(1188.513672 0)"/>
     <use xlink:href="#DejaVuSans-64" transform="translate(1222.205078 0)"/>
     <use xlink:href="#DejaVuSans-75" transform="translate(1285.681641 0)"/>
     <use xlink:href="#DejaVuSans-70" transform="translate(1349.060547 0)"/>
     <use xlink:href="#DejaVuSans-6c" transform="translate(1412.537109 0)"/>
     <use xlink:href="#DejaVuSans-69" transform="translate(1440.320312 0)"/>
     <use xlink:href="#DejaVuSans-63" transform="translate(1468.103516 0)"/>
     <use xlink:href="#DejaVuSans-61" transform="translate(1523.083984 0)"/>
     <use xlink:href="#DejaVuSans-e7" transform="translate(1584.363281 0)"/>
     <use xlink:href="#DejaVuSans-f5" transform="translate(1639.34375 0)"/>
     <use xlink:href="#DejaVuSans-65" transform="translate(1700.525391 0)"/>
     <use xlink:href="#DejaVuSans-73" transform="translate(1762.048828 0)"/>
     <use xlink:href="#DejaVuSans-20" transform="translate(1814.148438 0)"/>
     <use xlink:href="#DejaVuSans-65" transform="translate(1845.935547 0)"/>
     <use xlink:href="#DejaVuSans-20" transform="translate(1907.458984 0)"/>
     <use xlink:href="#DejaVuSans-70" transform="translate(1939.246094 0)"/>
     <use xlink:href="#DejaVuSans-6f" transform="translate(2002.722656 0)"/>
     <use xlink:href="#DejaVuSans-73" transform="translate(2063.904297 0)"/>
     <use xlink:href="#DejaVuSans-73" transform="translate(2116.003906 0)"/>
     <use xlink:href="#DejaVuSans-ed" transform="translate(2168.103516 0)"/>
     <use xlink:href="#DejaVuSans-76" transform="translate(2195.886719 0)"/>
     <use xlink:href="#DejaVuSans-65" transform="translate(2255.066406 0)"/>
     <use xlink:href="#DejaVuSans-69" transform="translate(2316.589844 0)"/>
     <use xlink:href="#DejaVuSans-73" transform="translate(2344.373047 0)"/>
     <use xlink:href="#DejaVuSans-20" transform="translate(2396.472656 0)"/>
     <use xlink:href="#DejaVuSans-6c" transform="translate(2428.259766 0)"/>
     <use xlink:href="#DejaVuSans-65" transform="translate(2456.042969 0)"/>
     <use xlink:href="#DejaVuSans-69" transform="translate(2517.566406 0)"/>
     <use xlink:href="#DejaVuSans-74" transform="translate(2545.349609 0)"/>
     <use xlink:href="#DejaVuSans-75" transform="translate(2584.558594 0)"/>
     <use xlink:href="#DejaVuSans-72" transform="translate(2647.9375 0)"/>
     <use xlink:href="#DejaVuSans-61" transform="translate(2689.050781 0)"/>
     <use xlink:href="#DejaVuSans-73" transform="translate(2750.330078 0)"/>
     <use xlink:href="#DejaVuSans-20" transform="translate(2802.429688 0)"/>
     <use xlink:href="#DejaVuSans-28" transform="translate(2834.216797 0)"/>
     <use xlink:href="#DejaVuSans-65" transform="translate(2873.230469 0)"/>
     <use xlink:href="#DejaVuSans-78" transform="translate(2933.003906 0)"/>
     <use xlink:href="#DejaVuSans-2e" transform="translate(2992.183594 0)"/>
     <use xlink:href="#DejaVuSans-3a" transform="translate(3023.970703 0)"/>
     <use xlink:href="#DejaVuSans-20" transform="translate(3057.662109 0)"/>
     <use xlink:href="#DejaVuSans-62" transform="translate(3089.449219 0)"/>
     <use xlink:href="#DejaVuSans-61" transform="translate(3152.925781 0)"/>
     <use xlink:href="#DejaVuSans-73" transform="translate(3214.205078 0)"/>
     <use xlink:href="#DejaVuSans-65" transform="translate(3266.304688 0)"/>
     <use xlink:href="#DejaVuSans-20" transform="translate(3327.828125 0)"/>
     <use xlink:href="#DejaVuSans-31" transform="translate(3359.615234 0)"/>
     <use xlink:href="#DejaVuSans-32" transform="translate(3423.238281 0)"/>
     <use xlink:href="#DejaVuSans-29" transform="translate(3486.861328 0)"/>
     <use xlink:href="#DejaVuSans-2e" transform="translate(3525.875 0)"/>
     <use xlink:href="#DejaVuSans-20" transform="translate(3557.662109 0)"/>
     <use xlink:href="#DejaVuSans-52" transform="translate(3589.449219 0)"/>
     <use xlink:href="#DejaVuSans-65" transform="translate(3654.431641 0)"/>
     <use xlink:href="#DejaVuSans-63" transform="translate(3715.955078 0)"/>
     <use xlink:href="#DejaVuSans-6f" transform="translate(3770.935547 0)"/>
     <use xlink:href="#DejaVuSans-6e" transform="translate(3832.117188 0)"/>
     <use xlink:href="#DejaVuSans-73" transform="translate(3895.496094 0)"/>
     <use xlink:href="#DejaVuSans-74" transform="translate(3947.595703 0)"/>
     <use xlink:href="#DejaVuSans-72" transform="translate(3986.804688 0)"/>
     <use xlink:href="#DejaVuSans-75" transform="translate(4027.917969 0)"/>
     <use xlink:href="#DejaVuSans-e7" transform="translate(4091.296875 0)"/>
     <use xlink:href="#DejaVuSans-e3" transform="translate(4146.277344 0)"/>
     <use xlink:href="#DejaVuSans-6f" transform="translate(4207.556641 0)"/>
     <use xlink:href="#DejaVuSans-20" transform="translate(4268.738281 0)"/>
     <use xlink:href="#DejaVuSans-64" transform="translate(4300.525391 0)"/>
     <use xlink:href="#DejaVuSans-69" transform="translate(4364.001953 0)"/>
     <use xlink:href="#DejaVuSans-64" transform="translate(4391.785156 0)"/>
     <use xlink:href="#DejaVuSans-e1" transform="translate(4455.261719 0)"/>
     <use xlink:href="#DejaVuSans-74" transform="translate(4516.541016 0)"/>
     <use xlink:href="#DejaVuSans-69" transform="translate(4555.75 0)"/>
     <use xlink:href="#DejaVuSans-63" transform="translate(4583.533203 0)"/>
     <use xlink:href="#DejaVuSans-61" transform="translate(4638.513672 0)"/>
     <use xlink:href="#DejaVuSans-2e" transform="translate(4699.792969 0)"/>
    </g>
   </g>
  </g>
 </g>
 <defs>
  <clipPath id="pc506181f79">
   <rect x="14.151281" y="88.736297" width="468.72" height="521.136"/>
  </clipPath>
 </defs>
</svg>
