<?xml version="1.0" encoding="utf-8" standalone="no"?>
<!DOCTYPE svg PUBLIC "-//W3C//DTD SVG 1.1//EN"
  "http://www.w3.org/Graphics/SVG/1.1/DTD/svg11.dtd">
<svg xmlns:xlink="http://www.w3.org/1999/xlink" width="460.8pt" height="873.72pt" viewBox="0 0 460.8 873.72" xmlns="http://www.w3.org/2000/svg" version="1.1">
 <metadata>
  <rdf:RDF xmlns:dc="http://purl.org/dc/elements/1.1/" xmlns:cc="http://creativecommons.org/ns#" xmlns:rdf="http://www.w3.org/1999/02/22-rdf-syntax-ns#">
   <cc:Work>
    <dc:type rdf:resource="http://purl.org/dc/dcmitype/StillImage"/>
    <dc:date>2025-10-26T23:13:50.067790</dc:date>
    <dc:format>image/svg+xml</dc:format>
    <dc:creator>
     <cc:Agent>
      <dc:title>Matplotlib v3.10.7, https://matplotlib.org/</dc:title>
     </cc:Agent>
    </dc:creator>
   </cc:Work>
  </rdf:RDF>
 </metadata>
 <defs>
  <style type="text/css">*{stroke-linejoin: round; stroke-linecap: butt}</style>
 </defs>
 <g id="figure_1">
  <g id="patch_1">
   <path d="M 0 873.72 
L 460.8 873.72 
L 460.8 0 
L 0 0 
z
" style="fill: #121316"/>
  </g>
  <g id="axes_1">
   <g id="patch_2">
    <path d="M 230.4 82.82016 
C 231.347093 82.82016 232.255524 82.095813 232.92522 80.806648 
C 233.594916 79.517483 233.9712 77.768755 233.9712 75.9456 
C 233.9712 74.122445 233.594916 72.373717 232.92522 71.084552 
C 232.255524 69.795387 231.347093 69.07104 230.4 69.07104 
C 229.452907 69.07104 228.544476 69.795387 227.87478 71.084552 
C 227.205084 72.373717 226.8288 74.122445 226.8288 75.9456 
C 226.8288 77.768755 227.205084 79.517483 227.87478 80.806648 
C 228.544476 82.095813 229.452907 82.82016 230.4 82.82016 
z
" clip-path="url(#p7812a2e915)" style="fill: #8b8dfb"/>
   </g>
   <g id="patch_3">
    <path d="M 230.4 185.93856 
C 231.347093 185.93856 232.255524 185.214213 232.92522 183.925048 
C 233.594916 182.635883 233.9712 180.887155 233.9712 179.064 
C 233.9712 177.240845 233.594916 175.492117 232.92522 174.202952 
C 232.255524 172.913787 231.347093 172.18944 230.4 172.18944 
C 229.452907 172.18944 228.544476 172.913787 227.87478 174.202952 
C 227.205084 175.492117 226.8288 177.240845 226.8288 179.064 
C 226.8288 180.887155 227.205084 182.635883 227.87478 183.925048 
C 228.544476 185.214213 229.452907 185.93856 230.4 185.93856 
z
" clip-path="url(#p7812a2e915)" style="fill: #75a7ff"/>
   </g>
   <g id="patch_4">
    <path d="M 230.4 289.05696 
C 231.347093 289.05696 232.255524 288.332613 232.92522 287.043448 
C 233.594916 285.754283 233.9712 284.005555 233.9712 282.1824 
C 233.9712 280.359245 233.594916 278.610517 232.92522 277.321352 
C 232.255524 276.032187 231.347093 275.30784 230.4 275.30784 
C 229.452907 275.30784 228.544476 276.032187 227.87478 277.321352 
C 227.205084 278.610517 226.8288 280.359245 226.8288 282.1824 
C 226.8288 284.005555 227.205084 285.754283 227.87478 287.043448 
C 228.544476 288.332613 229.452907 289.05696 230.4 289.05696 
z
" clip-path="url(#p7812a2e915)" style="fill: #57c0b6"/>
   </g>
   <g id="patch_5">
    <path d="M 230.4 392.17536 
C 231.347093 392.17536 232.255524 391.451013 232.92522 390.161848 
C 233.594916 388.872683 233.9712 387.123955 233.9712 385.3008 
C 233.9712 383.477645 233.594916 381.728917 232.92522 380.439752 
C 232.255524 379.150587 231.347093 378.42624 230.4 378.42624 
C 229.452907 378.42624 228.544476 379.150587 227.87478 380.439752 
C 227.205084 381.728917 226.8288 383.477645 226.8288 385.3008 
C 226.8288 387.123955 227.205084 388.872683 227.87478 390.161848 
C 228.544476 391.451013 229.452907 392.17536 230.4 392.17536 
z
" clip-path="url(#p7812a2e915)" style="fill: #6fd17a"/>
   </g>
   <g id="patch_6">
    <path d="M 230.4 495.29376 
C 231.347093 495.29376 232.255524 494.569413 232.92522 493.280248 
C 233.594916 491.991083 233.9712 490.242355 233.9712 488.4192 
C 233.9712 486.596045 233.594916 484.847317 232.92522 483.558152 
C 232.255524 482.268987 231.347093 481.54464 230.4 481.54464 
C 229.452907 481.54464 228.544476 482.268987 227.87478 483.558152 
C 227.205084 484.847317 226.8288 486.596045 226.8288 488.4192 
C 226.8288 490.242355 227.205084 491.991083 227.87478 493.280248 
C 228.544476 494.569413 229.452907 495.29376 230.4 495.29376 
z
" clip-path="url(#p7812a2e915)" style="fill: #e8c06f"/>
   </g>
   <g id="patch_7">
    <path d="M 230.4 598.41216 
C 231.347093 598.41216 232.255524 597.687813 232.92522 596.398648 
C 233.594916 595.109483 233.9712 593.360755 233.9712 591.5376 
C 233.9712 589.714445 233.594916 587.965717 232.92522 586.676552 
C 232.255524 585.387387 231.347093 584.66304 230.4 584.66304 
C 229.452907 584.66304 228.544476 585.387387 227.87478 586.676552 
C 227.205084 587.965717 226.8288 589.714445 226.8288 591.5376 
C 226.8288 593.360755 227.205084 595.109483 227.87478 596.398648 
C 228.544476 597.687813 229.452907 598.41216 230.4 598.41216 
z
" clip-path="url(#p7812a2e915)" style="fill: #f3a065"/>
   </g>
   <g id="patch_8">
    <path d="M 230.4 701.53056 
C 231.347093 701.53056 232.255524 700.806213 232.92522 699.517048 
C 233.594916 698.227883 233.9712 696.479155 233.9712 694.656 
C 233.9712 692.832845 233.594916 691.084117 232.92522 689.794952 
C 232.255524 688.505787 231.347093 687.78144 230.4 687.78144 
C 229.452907 687.78144 228.544476 688.505787 227.87478 689.794952 
C 227.205084 691.084117 226.8288 692.832845 226.8288 694.656 
C 226.8288 696.479155 227.205084 698.227883 227.87478 699.517048 
C 228.544476 700.806213 229.452907 701.53056 230.4 701.53056 
z
" clip-path="url(#p7812a2e915)" style="fill: #f17a54"/>
   </g>
   <g id="patch_9">
    <path d="M 230.4 804.64896 
C 231.347093 804.64896 232.255524 803.924613 232.92522 802.635448 
C 233.594916 801.346283 233.9712 799.597555 233.9712 797.7744 
C 233.9712 795.951245 233.594916 794.202517 232.92522 792.913352 
C 232.255524 791.624187 231.347093 790.89984 230.4 790.89984 
C 229.452907 790.89984 228.544476 791.624187 227.87478 792.913352 
C 227.205084 794.202517 226.8288 795.951245 226.8288 797.7744 
C 226.8288 799.597555 227.205084 801.346283 227.87478 802.635448 
C 228.544476 803.924613 229.452907 804.64896 230.4 804.64896 
z
" clip-path="url(#p7812a2e915)" style="fill: #9c7cff"/>
   </g>
   <g id="line2d_1">
    <path d="M 230.4 797.7744 
L 230.4 75.9456 
" clip-path="url(#p7812a2e915)" style="fill: none; stroke: #6ea8fe; stroke-opacity: 0.9; stroke-width: 6; stroke-linecap: round"/>
   </g>
   <g id="line2d_2">
    <path d="M 230.4 75.9456 
L 223.704 75.9456 
" clip-path="url(#p7812a2e915)" style="fill: none; stroke: #8b8dfb; stroke-width: 2.5; stroke-linecap: square"/>
   </g>
   <g id="line2d_3">
    <path d="M 230.4 179.064 
L 237.096 179.064 
" clip-path="url(#p7812a2e915)" style="fill: none; stroke: #75a7ff; stroke-width: 2.5; stroke-linecap: square"/>
   </g>
   <g id="line2d_4">
    <path d="M 230.4 282.1824 
L 223.704 282.1824 
" clip-path="url(#p7812a2e915)" style="fill: none; stroke: #57c0b6; stroke-width: 2.5; stroke-linecap: square"/>
   </g>
   <g id="line2d_5">
    <path d="M 230.4 385.3008 
L 237.096 385.3008 
" clip-path="url(#p7812a2e915)" style="fill: none; stroke: #6fd17a; stroke-width: 2.5; stroke-linecap: square"/>
   </g>
   <g id="line2d_6">
    <path d="M 230.4 488.4192 
L 223.704 488.4192 
" clip-path="url(#p7812a2e915)" style="fill: none; stroke: #e8c06f; stroke-width: 2.5; stroke-linecap: square"/>
   </g>
   <g id="line2d_7">
    <path d="M 230.4 591.5376 
L 237.096 591.5376 
" clip-path="url(#p7812a2e915)" style="fill: none; stroke: #f3a065; stroke-width: 2.5; stroke-linecap: square"/>
   </g>
   <g id="line2d_8">
    <path d="M 230.4 694.656 
L 223.704 694.656 
" clip-path="url(#p7812a2e915)" style="fill: none; stroke: #f17a54; stroke-width: 2.5; stroke-linecap: square"/>
   </g>
   <g id="line2d_9">
    <path d="M 230.4 797.7744 
L 237.096 797.7744 
" clip-path="url(#p7812a2e915)" style="fill: none; stroke: #9c7cff; stroke-width: 2.5; stroke-linecap: square"/>
   </g>
   <g id="text_1">
    <!-- Raízes da Computação -->
    <g style="fill: #f1f1f1" transform="translate(77.6625 44.3787) scale(0.24 -0.24)">
     <defs>
      <path id="DejaVuSans-Bold-52" d="M 2297 2597 
Q 2675 2597 2839 2737 
Q 3003 2878 3003 3200 
Q 3003 3519 2839 3656 
Q 2675 3794 2297 3794 
L 1791 3794 
L 1791 2597 
L 2297 2597 
z
M 1791 1766 
L 1791 0 
L 588 0 
L 588 4666 
L 2425 4666 
Q 3347 4666 3776 4356 
Q 4206 4047 4206 3378 
Q 4206 2916 3982 2619 
Q 3759 2322 3309 2181 
Q 3556 2125 3751 1926 
Q 3947 1728 4147 1325 
L 4800 0 
L 3519 0 
L 2950 1159 
Q 2778 1509 2601 1637 
Q 2425 1766 2131 1766 
L 1791 1766 
z
" transform="scale(0.015625)"/>
      <path id="DejaVuSans-Bold-61" d="M 2106 1575 
Q 1756 1575 1579 1456 
Q 1403 1338 1403 1106 
Q 1403 894 1545 773 
Q 1688 653 1941 653 
Q 2256 653 2472 879 
Q 2688 1106 2688 1447 
L 2688 1575 
L 2106 1575 
z
M 3816 1997 
L 3816 0 
L 2688 0 
L 2688 519 
Q 2463 200 2181 54 
Q 1900 -91 1497 -91 
Q 953 -91 614 226 
Q 275 544 275 1050 
Q 275 1666 698 1953 
Q 1122 2241 2028 2241 
L 2688 2241 
L 2688 2328 
Q 2688 2594 2478 2717 
Q 2269 2841 1825 2841 
Q 1466 2841 1156 2769 
Q 847 2697 581 2553 
L 581 3406 
Q 941 3494 1303 3539 
Q 1666 3584 2028 3584 
Q 2975 3584 3395 3211 
Q 3816 2838 3816 1997 
z
" transform="scale(0.015625)"/>
      <path id="DejaVuSans-Bold-ed" d="M 538 3500 
L 1656 3500 
L 1656 0 
L 538 0 
L 538 3500 
z
M 1590 5119 
L 2474 5119 
L 1321 3944 
L 709 3944 
L 1590 5119 
z
" transform="scale(0.015625)"/>
      <path id="DejaVuSans-Bold-7a" d="M 366 3500 
L 3419 3500 
L 3419 2719 
L 1575 800 
L 3419 800 
L 3419 0 
L 288 0 
L 288 781 
L 2131 2700 
L 366 2700 
L 366 3500 
z
" transform="scale(0.015625)"/>
      <path id="DejaVuSans-Bold-65" d="M 4031 1759 
L 4031 1441 
L 1416 1441 
Q 1456 1047 1700 850 
Q 1944 653 2381 653 
Q 2734 653 3104 758 
Q 3475 863 3866 1075 
L 3866 213 
Q 3469 63 3072 -14 
Q 2675 -91 2278 -91 
Q 1328 -91 801 392 
Q 275 875 275 1747 
Q 275 2603 792 3093 
Q 1309 3584 2216 3584 
Q 3041 3584 3536 3087 
Q 4031 2591 4031 1759 
z
M 2881 2131 
Q 2881 2450 2695 2645 
Q 2509 2841 2209 2841 
Q 1884 2841 1681 2658 
Q 1478 2475 1428 2131 
L 2881 2131 
z
" transform="scale(0.015625)"/>
      <path id="DejaVuSans-Bold-73" d="M 3272 3391 
L 3272 2541 
Q 2913 2691 2578 2766 
Q 2244 2841 1947 2841 
Q 1628 2841 1473 2761 
Q 1319 2681 1319 2516 
Q 1319 2381 1436 2309 
Q 1553 2238 1856 2203 
L 2053 2175 
Q 2913 2066 3209 1816 
Q 3506 1566 3506 1031 
Q 3506 472 3093 190 
Q 2681 -91 1863 -91 
Q 1516 -91 1145 -36 
Q 775 19 384 128 
L 384 978 
Q 719 816 1070 734 
Q 1422 653 1784 653 
Q 2113 653 2278 743 
Q 2444 834 2444 1013 
Q 2444 1163 2330 1236 
Q 2216 1309 1875 1350 
L 1678 1375 
Q 931 1469 631 1722 
Q 331 1975 331 2491 
Q 331 3047 712 3315 
Q 1094 3584 1881 3584 
Q 2191 3584 2531 3537 
Q 2872 3491 3272 3391 
z
" transform="scale(0.015625)"/>
      <path id="DejaVuSans-Bold-20" transform="scale(0.015625)"/>
      <path id="DejaVuSans-Bold-64" d="M 2919 2988 
L 2919 4863 
L 4044 4863 
L 4044 0 
L 2919 0 
L 2919 506 
Q 2688 197 2409 53 
Q 2131 -91 1766 -91 
Q 1119 -91 703 423 
Q 288 938 288 1747 
Q 288 2556 703 3070 
Q 1119 3584 1766 3584 
Q 2128 3584 2408 3439 
Q 2688 3294 2919 2988 
z
M 2181 722 
Q 2541 722 2730 984 
Q 2919 1247 2919 1747 
Q 2919 2247 2730 2509 
Q 2541 2772 2181 2772 
Q 1825 2772 1636 2509 
Q 1447 2247 1447 1747 
Q 1447 1247 1636 984 
Q 1825 722 2181 722 
z
" transform="scale(0.015625)"/>
      <path id="DejaVuSans-Bold-43" d="M 4288 256 
Q 3956 84 3597 -3 
Q 3238 -91 2847 -91 
Q 1681 -91 1000 561 
Q 319 1213 319 2328 
Q 319 3447 1000 4098 
Q 1681 4750 2847 4750 
Q 3238 4750 3597 4662 
Q 3956 4575 4288 4403 
L 4288 3438 
Q 3953 3666 3628 3772 
Q 3303 3878 2944 3878 
Q 2300 3878 1931 3465 
Q 1563 3053 1563 2328 
Q 1563 1606 1931 1193 
Q 2300 781 2944 781 
Q 3303 781 3628 887 
Q 3953 994 4288 1222 
L 4288 256 
z
" transform="scale(0.015625)"/>
      <path id="DejaVuSans-Bold-6f" d="M 2203 2784 
Q 1831 2784 1636 2517 
Q 1441 2250 1441 1747 
Q 1441 1244 1636 976 
Q 1831 709 2203 709 
Q 2569 709 2762 976 
Q 2956 1244 2956 1747 
Q 2956 2250 2762 2517 
Q 2569 2784 2203 2784 
z
M 2203 3584 
Q 3106 3584 3614 3096 
Q 4122 2609 4122 1747 
Q 4122 884 3614 396 
Q 3106 -91 2203 -91 
Q 1297 -91 786 396 
Q 275 884 275 1747 
Q 275 2609 786 3096 
Q 1297 3584 2203 3584 
z
" transform="scale(0.015625)"/>
      <path id="DejaVuSans-Bold-6d" d="M 3781 2919 
Q 3994 3244 4286 3414 
Q 4578 3584 4928 3584 
Q 5531 3584 5847 3212 
Q 6163 2841 6163 2131 
L 6163 0 
L 5038 0 
L 5038 1825 
Q 5041 1866 5042 1909 
Q 5044 1953 5044 2034 
Q 5044 2406 4934 2573 
Q 4825 2741 4581 2741 
Q 4263 2741 4089 2478 
Q 3916 2216 3909 1719 
L 3909 0 
L 2784 0 
L 2784 1825 
Q 2784 2406 2684 2573 
Q 2584 2741 2328 2741 
Q 2006 2741 1831 2477 
Q 1656 2213 1656 1722 
L 1656 0 
L 531 0 
L 531 3500 
L 1656 3500 
L 1656 2988 
Q 1863 3284 2130 3434 
Q 2397 3584 2719 3584 
Q 3081 3584 3359 3409 
Q 3638 3234 3781 2919 
z
" transform="scale(0.015625)"/>
      <path id="DejaVuSans-Bold-70" d="M 1656 506 
L 1656 -1331 
L 538 -1331 
L 538 3500 
L 1656 3500 
L 1656 2988 
Q 1888 3294 2169 3439 
Q 2450 3584 2816 3584 
Q 3463 3584 3878 3070 
Q 4294 2556 4294 1747 
Q 4294 938 3878 423 
Q 3463 -91 2816 -91 
Q 2450 -91 2169 54 
Q 1888 200 1656 506 
z
M 2400 2772 
Q 2041 2772 1848 2508 
Q 1656 2244 1656 1747 
Q 1656 1250 1848 986 
Q 2041 722 2400 722 
Q 2759 722 2948 984 
Q 3138 1247 3138 1747 
Q 3138 2247 2948 2509 
Q 2759 2772 2400 2772 
z
" transform="scale(0.015625)"/>
      <path id="DejaVuSans-Bold-75" d="M 500 1363 
L 500 3500 
L 1625 3500 
L 1625 3150 
Q 1625 2866 1622 2436 
Q 1619 2006 1619 1863 
Q 1619 1441 1641 1255 
Q 1663 1069 1716 984 
Q 1784 875 1895 815 
Q 2006 756 2150 756 
Q 2500 756 2700 1025 
Q 2900 1294 2900 1772 
L 2900 3500 
L 4019 3500 
L 4019 0 
L 2900 0 
L 2900 506 
Q 2647 200 2364 54 
Q 2081 -91 1741 -91 
Q 1134 -91 817 281 
Q 500 653 500 1363 
z
" transform="scale(0.015625)"/>
      <path id="DejaVuSans-Bold-74" d="M 1759 4494 
L 1759 3500 
L 2913 3500 
L 2913 2700 
L 1759 2700 
L 1759 1216 
Q 1759 972 1856 886 
Q 1953 800 2241 800 
L 2816 800 
L 2816 0 
L 1856 0 
Q 1194 0 917 276 
Q 641 553 641 1216 
L 641 2700 
L 84 2700 
L 84 3500 
L 641 3500 
L 641 4494 
L 1759 4494 
z
" transform="scale(0.015625)"/>
      <path id="DejaVuSans-Bold-e7" d="M 3366 3391 
L 3366 2478 
Q 3138 2634 2908 2709 
Q 2678 2784 2431 2784 
Q 1963 2784 1702 2511 
Q 1441 2238 1441 1747 
Q 1441 1256 1702 982 
Q 1963 709 2431 709 
Q 2694 709 2930 787 
Q 3166 866 3366 1019 
L 3366 103 
Q 3103 6 2833 -42 
Q 2563 -91 2291 -91 
Q 1344 -91 809 395 
Q 275 881 275 1747 
Q 275 2613 809 3098 
Q 1344 3584 2291 3584 
Q 2566 3584 2833 3536 
Q 3100 3488 3366 3391 
z
M 2457 0 
Q 2639 -194 2724 -359 
Q 2810 -525 2810 -672 
Q 2810 -969 2618 -1111 
Q 2426 -1253 2029 -1253 
Q 1879 -1253 1719 -1233 
Q 1560 -1213 1398 -1172 
L 1395 -697 
Q 1551 -747 1680 -770 
Q 1810 -794 1914 -794 
Q 2095 -794 2196 -722 
Q 2298 -650 2298 -525 
Q 2298 -444 2231 -316 
Q 2164 -188 2023 0 
L 2457 0 
z
" transform="scale(0.015625)"/>
      <path id="DejaVuSans-Bold-e3" d="M 2106 1575 
Q 1756 1575 1579 1456 
Q 1403 1338 1403 1106 
Q 1403 894 1545 773 
Q 1688 653 1941 653 
Q 2256 653 2472 879 
Q 2688 1106 2688 1447 
L 2688 1575 
L 2106 1575 
z
M 3816 1997 
L 3816 0 
L 2688 0 
L 2688 519 
Q 2463 200 2181 54 
Q 1900 -91 1497 -91 
Q 953 -91 614 226 
Q 275 544 275 1050 
Q 275 1666 698 1953 
Q 1122 2241 2028 2241 
L 2688 2241 
L 2688 2328 
Q 2688 2594 2478 2717 
Q 2269 2841 1825 2841 
Q 1466 2841 1156 2769 
Q 847 2697 581 2553 
L 581 3406 
Q 941 3494 1303 3539 
Q 1666 3584 2028 3584 
Q 2975 3584 3395 3211 
Q 3816 2838 3816 1997 
z
M 2190 4263 
L 2018 4378 
Q 2006 4384 1987 4397 
Q 1840 4494 1762 4494 
Q 1650 4494 1590 4397 
Q 1531 4300 1531 4116 
L 1531 4091 
L 1097 4091 
Q 1097 4516 1257 4747 
Q 1418 4978 1709 4978 
Q 1822 4978 1936 4936 
Q 2050 4894 2178 4800 
L 2368 4666 
Q 2437 4619 2495 4594 
Q 2553 4569 2600 4569 
Q 2712 4569 2774 4669 
Q 2837 4769 2837 4947 
L 2837 4972 
L 3272 4972 
Q 3272 4547 3111 4315 
Q 2950 4084 2659 4084 
Q 2547 4084 2442 4121 
Q 2337 4159 2190 4263 
z
" transform="scale(0.015625)"/>
     </defs>
     <use xlink:href="#DejaVuSans-Bold-52"/>
     <use xlink:href="#DejaVuSans-Bold-61" transform="translate(77.001953 0)"/>
     <use xlink:href="#DejaVuSans-Bold-ed" transform="translate(144.482422 0)"/>
     <use xlink:href="#DejaVuSans-Bold-7a" transform="translate(178.759766 0)"/>
     <use xlink:href="#DejaVuSans-Bold-65" transform="translate(236.962891 0)"/>
     <use xlink:href="#DejaVuSans-Bold-73" transform="translate(304.785156 0)"/>
     <use xlink:href="#DejaVuSans-Bold-20" transform="translate(364.306641 0)"/>
     <use xlink:href="#DejaVuSans-Bold-64" transform="translate(399.121094 0)"/>
     <use xlink:href="#DejaVuSans-Bold-61" transform="translate(470.703125 0)"/>
     <use xlink:href="#DejaVuSans-Bold-20" transform="translate(538.183594 0)"/>
     <use xlink:href="#DejaVuSans-Bold-43" transform="translate(572.998047 0)"/>
     <use xlink:href="#DejaVuSans-Bold-6f" transform="translate(646.386719 0)"/>
     <use xlink:href="#DejaVuSans-Bold-6d" transform="translate(715.087891 0)"/>
     <use xlink:href="#DejaVuSans-Bold-70" transform="translate(819.287109 0)"/>
     <use xlink:href="#DejaVuSans-Bold-75" transform="translate(890.869141 0)"/>
     <use xlink:href="#DejaVuSans-Bold-74" transform="translate(962.060547 0)"/>
     <use xlink:href="#DejaVuSans-Bold-61" transform="translate(1009.863281 0)"/>
     <use xlink:href="#DejaVuSans-Bold-e7" transform="translate(1077.34375 0)"/>
     <use xlink:href="#DejaVuSans-Bold-e3" transform="translate(1136.621094 0)"/>
     <use xlink:href="#DejaVuSans-Bold-6f" transform="translate(1204.101562 0)"/>
    </g>
   </g>
   <g id="text_2">
    <!-- c. 20 000 a.C. -->
    <g style="fill: #f1f1f1" transform="translate(121.835125 57.774246) scale(0.13 -0.13)">
     <defs>
      <path id="DejaVuSans-Bold-63" d="M 3366 3391 
L 3366 2478 
Q 3138 2634 2908 2709 
Q 2678 2784 2431 2784 
Q 1963 2784 1702 2511 
Q 1441 2238 1441 1747 
Q 1441 1256 1702 982 
Q 1963 709 2431 709 
Q 2694 709 2930 787 
Q 3166 866 3366 1019 
L 3366 103 
Q 3103 6 2833 -42 
Q 2563 -91 2291 -91 
Q 1344 -91 809 395 
Q 275 881 275 1747 
Q 275 2613 809 3098 
Q 1344 3584 2291 3584 
Q 2566 3584 2833 3536 
Q 3100 3488 3366 3391 
z
" transform="scale(0.015625)"/>
      <path id="DejaVuSans-Bold-2e" d="M 653 1209 
L 1778 1209 
L 1778 0 
L 653 0 
L 653 1209 
z
" transform="scale(0.015625)"/>
      <path id="DejaVuSans-Bold-32" d="M 1844 884 
L 3897 884 
L 3897 0 
L 506 0 
L 506 884 
L 2209 2388 
Q 2438 2594 2547 2791 
Q 2656 2988 2656 3200 
Q 2656 3528 2436 3728 
Q 2216 3928 1850 3928 
Q 1569 3928 1234 3808 
Q 900 3688 519 3450 
L 519 4475 
Q 925 4609 1322 4679 
Q 1719 4750 2100 4750 
Q 2938 4750 3402 4381 
Q 3866 4013 3866 3353 
Q 3866 2972 3669 2642 
Q 3472 2313 2841 1759 
L 1844 884 
z
" transform="scale(0.015625)"/>
      <path id="DejaVuSans-Bold-30" d="M 2944 2338 
Q 2944 3213 2780 3570 
Q 2616 3928 2228 3928 
Q 1841 3928 1675 3570 
Q 1509 3213 1509 2338 
Q 1509 1453 1675 1090 
Q 1841 728 2228 728 
Q 2613 728 2778 1090 
Q 2944 1453 2944 2338 
z
M 4147 2328 
Q 4147 1169 3647 539 
Q 3147 -91 2228 -91 
Q 1306 -91 806 539 
Q 306 1169 306 2328 
Q 306 3491 806 4120 
Q 1306 4750 2228 4750 
Q 3147 4750 3647 4120 
Q 4147 3491 4147 2328 
z
" transform="scale(0.015625)"/>
     </defs>
     <use xlink:href="#DejaVuSans-Bold-63"/>
     <use xlink:href="#DejaVuSans-Bold-2e" transform="translate(59.277344 0)"/>
     <use xlink:href="#DejaVuSans-Bold-20" transform="translate(97.265625 0)"/>
     <use xlink:href="#DejaVuSans-Bold-32" transform="translate(132.080078 0)"/>
     <use xlink:href="#DejaVuSans-Bold-30" transform="translate(201.660156 0)"/>
     <use xlink:href="#DejaVuSans-Bold-20" transform="translate(271.240234 0)"/>
     <use xlink:href="#DejaVuSans-Bold-30" transform="translate(306.054688 0)"/>
     <use xlink:href="#DejaVuSans-Bold-30" transform="translate(375.634766 0)"/>
     <use xlink:href="#DejaVuSans-Bold-30" transform="translate(445.214844 0)"/>
     <use xlink:href="#DejaVuSans-Bold-20" transform="translate(514.794922 0)"/>
     <use xlink:href="#DejaVuSans-Bold-61" transform="translate(549.609375 0)"/>
     <use xlink:href="#DejaVuSans-Bold-2e" transform="translate(617.089844 0)"/>
     <use xlink:href="#DejaVuSans-Bold-43" transform="translate(655.078125 0)"/>
     <use xlink:href="#DejaVuSans-Bold-2e" transform="translate(728.466797 0)"/>
    </g>
   </g>
   <g id="text_3">
    <!-- Osso de Ishango -->
    <g style="fill: #f1f1f1" transform="translate(113.966062 87.542209) scale(0.13 -0.13)">
     <defs>
      <path id="DejaVuSans-4f" d="M 2522 4238 
Q 1834 4238 1429 3725 
Q 1025 3213 1025 2328 
Q 1025 1447 1429 934 
Q 1834 422 2522 422 
Q 3209 422 3611 934 
Q 4013 1447 4013 2328 
Q 4013 3213 3611 3725 
Q 3209 4238 2522 4238 
z
M 2522 4750 
Q 3503 4750 4090 4092 
Q 4678 3434 4678 2328 
Q 4678 1225 4090 567 
Q 3503 -91 2522 -91 
Q 1538 -91 948 565 
Q 359 1222 359 2328 
Q 359 3434 948 4092 
Q 1538 4750 2522 4750 
z
" transform="scale(0.015625)"/>
      <path id="DejaVuSans-73" d="M 2834 3397 
L 2834 2853 
Q 2591 2978 2328 3040 
Q 2066 3103 1784 3103 
Q 1356 3103 1142 2972 
Q 928 2841 928 2578 
Q 928 2378 1081 2264 
Q 1234 2150 1697 2047 
L 1894 2003 
Q 2506 1872 2764 1633 
Q 3022 1394 3022 966 
Q 3022 478 2636 193 
Q 2250 -91 1575 -91 
Q 1294 -91 989 -36 
Q 684 19 347 128 
L 347 722 
Q 666 556 975 473 
Q 1284 391 1588 391 
Q 1994 391 2212 530 
Q 2431 669 2431 922 
Q 2431 1156 2273 1281 
Q 2116 1406 1581 1522 
L 1381 1569 
Q 847 1681 609 1914 
Q 372 2147 372 2553 
Q 372 3047 722 3315 
Q 1072 3584 1716 3584 
Q 2034 3584 2315 3537 
Q 2597 3491 2834 3397 
z
" transform="scale(0.015625)"/>
      <path id="DejaVuSans-6f" d="M 1959 3097 
Q 1497 3097 1228 2736 
Q 959 2375 959 1747 
Q 959 1119 1226 758 
Q 1494 397 1959 397 
Q 2419 397 2687 759 
Q 2956 1122 2956 1747 
Q 2956 2369 2687 2733 
Q 2419 3097 1959 3097 
z
M 1959 3584 
Q 2709 3584 3137 3096 
Q 3566 2609 3566 1747 
Q 3566 888 3137 398 
Q 2709 -91 1959 -91 
Q 1206 -91 779 398 
Q 353 888 353 1747 
Q 353 2609 779 3096 
Q 1206 3584 1959 3584 
z
" transform="scale(0.015625)"/>
      <path id="DejaVuSans-20" transform="scale(0.015625)"/>
      <path id="DejaVuSans-64" d="M 2906 2969 
L 2906 4863 
L 3481 4863 
L 3481 0 
L 2906 0 
L 2906 525 
Q 2725 213 2448 61 
Q 2172 -91 1784 -91 
Q 1150 -91 751 415 
Q 353 922 353 1747 
Q 353 2572 751 3078 
Q 1150 3584 1784 3584 
Q 2172 3584 2448 3432 
Q 2725 3281 2906 2969 
z
M 947 1747 
Q 947 1113 1208 752 
Q 1469 391 1925 391 
Q 2381 391 2643 752 
Q 2906 1113 2906 1747 
Q 2906 2381 2643 2742 
Q 2381 3103 1925 3103 
Q 1469 3103 1208 2742 
Q 947 2381 947 1747 
z
" transform="scale(0.015625)"/>
      <path id="DejaVuSans-65" d="M 3597 1894 
L 3597 1613 
L 953 1613 
Q 991 1019 1311 708 
Q 1631 397 2203 397 
Q 2534 397 2845 478 
Q 3156 559 3463 722 
L 3463 178 
Q 3153 47 2828 -22 
Q 2503 -91 2169 -91 
Q 1331 -91 842 396 
Q 353 884 353 1716 
Q 353 2575 817 3079 
Q 1281 3584 2069 3584 
Q 2775 3584 3186 3129 
Q 3597 2675 3597 1894 
z
M 3022 2063 
Q 3016 2534 2758 2815 
Q 2500 3097 2075 3097 
Q 1594 3097 1305 2825 
Q 1016 2553 972 2059 
L 3022 2063 
z
" transform="scale(0.015625)"/>
      <path id="DejaVuSans-49" d="M 628 4666 
L 1259 4666 
L 1259 0 
L 628 0 
L 628 4666 
z
" transform="scale(0.015625)"/>
      <path id="DejaVuSans-68" d="M 3513 2113 
L 3513 0 
L 2938 0 
L 2938 2094 
Q 2938 2591 2744 2837 
Q 2550 3084 2163 3084 
Q 1697 3084 1428 2787 
Q 1159 2491 1159 1978 
L 1159 0 
L 581 0 
L 581 4863 
L 1159 4863 
L 1159 2956 
Q 1366 3272 1645 3428 
Q 1925 3584 2291 3584 
Q 2894 3584 3203 3211 
Q 3513 2838 3513 2113 
z
" transform="scale(0.015625)"/>
      <path id="DejaVuSans-61" d="M 2194 1759 
Q 1497 1759 1228 1600 
Q 959 1441 959 1056 
Q 959 750 1161 570 
Q 1363 391 1709 391 
Q 2188 391 2477 730 
Q 2766 1069 2766 1631 
L 2766 1759 
L 2194 1759 
z
M 3341 1997 
L 3341 0 
L 2766 0 
L 2766 531 
Q 2569 213 2275 61 
Q 1981 -91 1556 -91 
Q 1019 -91 701 211 
Q 384 513 384 1019 
Q 384 1609 779 1909 
Q 1175 2209 1959 2209 
L 2766 2209 
L 2766 2266 
Q 2766 2663 2505 2880 
Q 2244 3097 1772 3097 
Q 1472 3097 1187 3025 
Q 903 2953 641 2809 
L 641 3341 
Q 956 3463 1253 3523 
Q 1550 3584 1831 3584 
Q 2591 3584 2966 3190 
Q 3341 2797 3341 1997 
z
" transform="scale(0.015625)"/>
      <path id="DejaVuSans-6e" d="M 3513 2113 
L 3513 0 
L 2938 0 
L 2938 2094 
Q 2938 2591 2744 2837 
Q 2550 3084 2163 3084 
Q 1697 3084 1428 2787 
Q 1159 2491 1159 1978 
L 1159 0 
L 581 0 
L 581 3500 
L 1159 3500 
L 1159 2956 
Q 1366 3272 1645 3428 
Q 1925 3584 2291 3584 
Q 2894 3584 3203 3211 
Q 3513 2838 3513 2113 
z
" transform="scale(0.015625)"/>
      <path id="DejaVuSans-67" d="M 2906 1791 
Q 2906 2416 2648 2759 
Q 2391 3103 1925 3103 
Q 1463 3103 1205 2759 
Q 947 2416 947 1791 
Q 947 1169 1205 825 
Q 1463 481 1925 481 
Q 2391 481 2648 825 
Q 2906 1169 2906 1791 
z
M 3481 434 
Q 3481 -459 3084 -895 
Q 2688 -1331 1869 -1331 
Q 1566 -1331 1297 -1286 
Q 1028 -1241 775 -1147 
L 775 -588 
Q 1028 -725 1275 -790 
Q 1522 -856 1778 -856 
Q 2344 -856 2625 -561 
Q 2906 -266 2906 331 
L 2906 616 
Q 2728 306 2450 153 
Q 2172 0 1784 0 
Q 1141 0 747 490 
Q 353 981 353 1791 
Q 353 2603 747 3093 
Q 1141 3584 1784 3584 
Q 2172 3584 2450 3431 
Q 2728 3278 2906 2969 
L 2906 3500 
L 3481 3500 
L 3481 434 
z
" transform="scale(0.015625)"/>
     </defs>
     <use xlink:href="#DejaVuSans-4f"/>
     <use xlink:href="#DejaVuSans-73" transform="translate(78.710938 0)"/>
     <use xlink:href="#DejaVuSans-73" transform="translate(130.810547 0)"/>
     <use xlink:href="#DejaVuSans-6f" transform="translate(182.910156 0)"/>
     <use xlink:href="#DejaVuSans-20" transform="translate(244.091797 0)"/>
     <use xlink:href="#DejaVuSans-64" transform="translate(275.878906 0)"/>
     <use xlink:href="#DejaVuSans-65" transform="translate(339.355469 0)"/>
     <use xlink:href="#DejaVuSans-20" transform="translate(400.878906 0)"/>
     <use xlink:href="#DejaVuSans-49" transform="translate(432.666016 0)"/>
     <use xlink:href="#DejaVuSans-73" transform="translate(462.158203 0)"/>
     <use xlink:href="#DejaVuSans-68" transform="translate(514.257812 0)"/>
     <use xlink:href="#DejaVuSans-61" transform="translate(577.636719 0)"/>
     <use xlink:href="#DejaVuSans-6e" transform="translate(638.916016 0)"/>
     <use xlink:href="#DejaVuSans-67" transform="translate(702.294922 0)"/>
     <use xlink:href="#DejaVuSans-6f" transform="translate(765.771484 0)"/>
    </g>
   </g>
   <g id="text_4">
    <!-- c. 2400 a.C. -->
    <g style="fill: #f1f1f1" transform="translate(239.328 160.892646) scale(0.13 -0.13)">
     <defs>
      <path id="DejaVuSans-Bold-34" d="M 2356 3675 
L 1038 1722 
L 2356 1722 
L 2356 3675 
z
M 2156 4666 
L 3494 4666 
L 3494 1722 
L 4159 1722 
L 4159 850 
L 3494 850 
L 3494 0 
L 2356 0 
L 2356 850 
L 288 850 
L 288 1881 
L 2156 4666 
z
" transform="scale(0.015625)"/>
     </defs>
     <use xlink:href="#DejaVuSans-Bold-63"/>
     <use xlink:href="#DejaVuSans-Bold-2e" transform="translate(59.277344 0)"/>
     <use xlink:href="#DejaVuSans-Bold-20" transform="translate(97.265625 0)"/>
     <use xlink:href="#DejaVuSans-Bold-32" transform="translate(132.080078 0)"/>
     <use xlink:href="#DejaVuSans-Bold-34" transform="translate(201.660156 0)"/>
     <use xlink:href="#DejaVuSans-Bold-30" transform="translate(271.240234 0)"/>
     <use xlink:href="#DejaVuSans-Bold-30" transform="translate(340.820312 0)"/>
     <use xlink:href="#DejaVuSans-Bold-20" transform="translate(410.400391 0)"/>
     <use xlink:href="#DejaVuSans-Bold-61" transform="translate(445.214844 0)"/>
     <use xlink:href="#DejaVuSans-Bold-2e" transform="translate(512.695312 0)"/>
     <use xlink:href="#DejaVuSans-Bold-43" transform="translate(550.683594 0)"/>
     <use xlink:href="#DejaVuSans-Bold-2e" transform="translate(624.072266 0)"/>
    </g>
   </g>
   <g id="text_5">
    <!-- Ábaco Sumério -->
    <g style="fill: #f1f1f1" transform="translate(239.328 190.660609) scale(0.13 -0.13)">
     <defs>
      <path id="DejaVuSans-c1" d="M 2188 4044 
L 1331 1722 
L 3047 1722 
L 2188 4044 
z
M 1831 4666 
L 2547 4666 
L 4325 0 
L 3669 0 
L 3244 1197 
L 1141 1197 
L 716 0 
L 50 0 
L 1831 4666 
z
M 2356 5921 
L 2934 5921 
L 2222 5096 
L 1743 5096 
L 2356 5921 
z
" transform="scale(0.015625)"/>
      <path id="DejaVuSans-62" d="M 3116 1747 
Q 3116 2381 2855 2742 
Q 2594 3103 2138 3103 
Q 1681 3103 1420 2742 
Q 1159 2381 1159 1747 
Q 1159 1113 1420 752 
Q 1681 391 2138 391 
Q 2594 391 2855 752 
Q 3116 1113 3116 1747 
z
M 1159 2969 
Q 1341 3281 1617 3432 
Q 1894 3584 2278 3584 
Q 2916 3584 3314 3078 
Q 3713 2572 3713 1747 
Q 3713 922 3314 415 
Q 2916 -91 2278 -91 
Q 1894 -91 1617 61 
Q 1341 213 1159 525 
L 1159 0 
L 581 0 
L 581 4863 
L 1159 4863 
L 1159 2969 
z
" transform="scale(0.015625)"/>
      <path id="DejaVuSans-63" d="M 3122 3366 
L 3122 2828 
Q 2878 2963 2633 3030 
Q 2388 3097 2138 3097 
Q 1578 3097 1268 2742 
Q 959 2388 959 1747 
Q 959 1106 1268 751 
Q 1578 397 2138 397 
Q 2388 397 2633 464 
Q 2878 531 3122 666 
L 3122 134 
Q 2881 22 2623 -34 
Q 2366 -91 2075 -91 
Q 1284 -91 818 406 
Q 353 903 353 1747 
Q 353 2603 823 3093 
Q 1294 3584 2113 3584 
Q 2378 3584 2631 3529 
Q 2884 3475 3122 3366 
z
" transform="scale(0.015625)"/>
      <path id="DejaVuSans-53" d="M 3425 4513 
L 3425 3897 
Q 3066 4069 2747 4153 
Q 2428 4238 2131 4238 
Q 1616 4238 1336 4038 
Q 1056 3838 1056 3469 
Q 1056 3159 1242 3001 
Q 1428 2844 1947 2747 
L 2328 2669 
Q 3034 2534 3370 2195 
Q 3706 1856 3706 1288 
Q 3706 609 3251 259 
Q 2797 -91 1919 -91 
Q 1588 -91 1214 -16 
Q 841 59 441 206 
L 441 856 
Q 825 641 1194 531 
Q 1563 422 1919 422 
Q 2459 422 2753 634 
Q 3047 847 3047 1241 
Q 3047 1584 2836 1778 
Q 2625 1972 2144 2069 
L 1759 2144 
Q 1053 2284 737 2584 
Q 422 2884 422 3419 
Q 422 4038 858 4394 
Q 1294 4750 2059 4750 
Q 2388 4750 2728 4690 
Q 3069 4631 3425 4513 
z
" transform="scale(0.015625)"/>
      <path id="DejaVuSans-75" d="M 544 1381 
L 544 3500 
L 1119 3500 
L 1119 1403 
Q 1119 906 1312 657 
Q 1506 409 1894 409 
Q 2359 409 2629 706 
Q 2900 1003 2900 1516 
L 2900 3500 
L 3475 3500 
L 3475 0 
L 2900 0 
L 2900 538 
Q 2691 219 2414 64 
Q 2138 -91 1772 -91 
Q 1169 -91 856 284 
Q 544 659 544 1381 
z
M 1991 3584 
L 1991 3584 
z
" transform="scale(0.015625)"/>
      <path id="DejaVuSans-6d" d="M 3328 2828 
Q 3544 3216 3844 3400 
Q 4144 3584 4550 3584 
Q 5097 3584 5394 3201 
Q 5691 2819 5691 2113 
L 5691 0 
L 5113 0 
L 5113 2094 
Q 5113 2597 4934 2840 
Q 4756 3084 4391 3084 
Q 3944 3084 3684 2787 
Q 3425 2491 3425 1978 
L 3425 0 
L 2847 0 
L 2847 2094 
Q 2847 2600 2669 2842 
Q 2491 3084 2119 3084 
Q 1678 3084 1418 2786 
Q 1159 2488 1159 1978 
L 1159 0 
L 581 0 
L 581 3500 
L 1159 3500 
L 1159 2956 
Q 1356 3278 1631 3431 
Q 1906 3584 2284 3584 
Q 2666 3584 2933 3390 
Q 3200 3197 3328 2828 
z
" transform="scale(0.015625)"/>
      <path id="DejaVuSans-e9" d="M 3597 1894 
L 3597 1613 
L 953 1613 
Q 991 1019 1311 708 
Q 1631 397 2203 397 
Q 2534 397 2845 478 
Q 3156 559 3463 722 
L 3463 178 
Q 3153 47 2828 -22 
Q 2503 -91 2169 -91 
Q 1331 -91 842 396 
Q 353 884 353 1716 
Q 353 2575 817 3079 
Q 1281 3584 2069 3584 
Q 2775 3584 3186 3129 
Q 3597 2675 3597 1894 
z
M 3022 2063 
Q 3016 2534 2758 2815 
Q 2500 3097 2075 3097 
Q 1594 3097 1305 2825 
Q 1016 2553 972 2059 
L 3022 2063 
z
M 2466 5119 
L 3088 5119 
L 2070 3944 
L 1591 3944 
L 2466 5119 
z
" transform="scale(0.015625)"/>
      <path id="DejaVuSans-72" d="M 2631 2963 
Q 2534 3019 2420 3045 
Q 2306 3072 2169 3072 
Q 1681 3072 1420 2755 
Q 1159 2438 1159 1844 
L 1159 0 
L 581 0 
L 581 3500 
L 1159 3500 
L 1159 2956 
Q 1341 3275 1631 3429 
Q 1922 3584 2338 3584 
Q 2397 3584 2469 3576 
Q 2541 3569 2628 3553 
L 2631 2963 
z
" transform="scale(0.015625)"/>
      <path id="DejaVuSans-69" d="M 603 3500 
L 1178 3500 
L 1178 0 
L 603 0 
L 603 3500 
z
M 603 4863 
L 1178 4863 
L 1178 4134 
L 603 4134 
L 603 4863 
z
" transform="scale(0.015625)"/>
     </defs>
     <use xlink:href="#DejaVuSans-c1"/>
     <use xlink:href="#DejaVuSans-62" transform="translate(68.408203 0)"/>
     <use xlink:href="#DejaVuSans-61" transform="translate(131.884766 0)"/>
     <use xlink:href="#DejaVuSans-63" transform="translate(193.164062 0)"/>
     <use xlink:href="#DejaVuSans-6f" transform="translate(248.144531 0)"/>
     <use xlink:href="#DejaVuSans-20" transform="translate(309.326172 0)"/>
     <use xlink:href="#DejaVuSans-53" transform="translate(341.113281 0)"/>
     <use xlink:href="#DejaVuSans-75" transform="translate(404.589844 0)"/>
     <use xlink:href="#DejaVuSans-6d" transform="translate(467.96875 0)"/>
     <use xlink:href="#DejaVuSans-e9" transform="translate(565.380859 0)"/>
     <use xlink:href="#DejaVuSans-72" transform="translate(626.904297 0)"/>
     <use xlink:href="#DejaVuSans-69" transform="translate(668.017578 0)"/>
     <use xlink:href="#DejaVuSans-6f" transform="translate(695.800781 0)"/>
    </g>
   </g>
   <g id="text_6">
    <!-- c. 300 a.C. -->
    <g style="fill: #f1f1f1" transform="translate(144.451062 264.011046) scale(0.13 -0.13)">
     <defs>
      <path id="DejaVuSans-Bold-33" d="M 2981 2516 
Q 3453 2394 3698 2092 
Q 3944 1791 3944 1325 
Q 3944 631 3412 270 
Q 2881 -91 1863 -91 
Q 1503 -91 1142 -33 
Q 781 25 428 141 
L 428 1069 
Q 766 900 1098 814 
Q 1431 728 1753 728 
Q 2231 728 2486 893 
Q 2741 1059 2741 1369 
Q 2741 1688 2480 1852 
Q 2219 2016 1709 2016 
L 1228 2016 
L 1228 2791 
L 1734 2791 
Q 2188 2791 2409 2933 
Q 2631 3075 2631 3366 
Q 2631 3634 2415 3781 
Q 2200 3928 1806 3928 
Q 1516 3928 1219 3862 
Q 922 3797 628 3669 
L 628 4550 
Q 984 4650 1334 4700 
Q 1684 4750 2022 4750 
Q 2931 4750 3382 4451 
Q 3834 4153 3834 3553 
Q 3834 3144 3618 2883 
Q 3403 2622 2981 2516 
z
" transform="scale(0.015625)"/>
     </defs>
     <use xlink:href="#DejaVuSans-Bold-63"/>
     <use xlink:href="#DejaVuSans-Bold-2e" transform="translate(59.277344 0)"/>
     <use xlink:href="#DejaVuSans-Bold-20" transform="translate(97.265625 0)"/>
     <use xlink:href="#DejaVuSans-Bold-33" transform="translate(132.080078 0)"/>
     <use xlink:href="#DejaVuSans-Bold-30" transform="translate(201.660156 0)"/>
     <use xlink:href="#DejaVuSans-Bold-30" transform="translate(271.240234 0)"/>
     <use xlink:href="#DejaVuSans-Bold-20" transform="translate(340.820312 0)"/>
     <use xlink:href="#DejaVuSans-Bold-61" transform="translate(375.634766 0)"/>
     <use xlink:href="#DejaVuSans-Bold-2e" transform="translate(443.115234 0)"/>
     <use xlink:href="#DejaVuSans-Bold-43" transform="translate(481.103516 0)"/>
     <use xlink:href="#DejaVuSans-Bold-2e" transform="translate(554.492188 0)"/>
    </g>
   </g>
   <g id="text_7">
    <!-- Tábua de Salamina -->
    <g style="fill: #f1f1f1" transform="translate(98.4595 293.779009) scale(0.13 -0.13)">
     <defs>
      <path id="DejaVuSans-54" d="M -19 4666 
L 3928 4666 
L 3928 4134 
L 2272 4134 
L 2272 0 
L 1638 0 
L 1638 4134 
L -19 4134 
L -19 4666 
z
" transform="scale(0.015625)"/>
      <path id="DejaVuSans-e1" d="M 2194 1759 
Q 1497 1759 1228 1600 
Q 959 1441 959 1056 
Q 959 750 1161 570 
Q 1363 391 1709 391 
Q 2188 391 2477 730 
Q 2766 1069 2766 1631 
L 2766 1759 
L 2194 1759 
z
M 3341 1997 
L 3341 0 
L 2766 0 
L 2766 531 
Q 2569 213 2275 61 
Q 1981 -91 1556 -91 
Q 1019 -91 701 211 
Q 384 513 384 1019 
Q 384 1609 779 1909 
Q 1175 2209 1959 2209 
L 2766 2209 
L 2766 2266 
Q 2766 2663 2505 2880 
Q 2244 3097 1772 3097 
Q 1472 3097 1187 3025 
Q 903 2953 641 2809 
L 641 3341 
Q 956 3463 1253 3523 
Q 1550 3584 1831 3584 
Q 2591 3584 2966 3190 
Q 3341 2797 3341 1997 
z
M 2290 5119 
L 2912 5119 
L 1894 3944 
L 1415 3944 
L 2290 5119 
z
" transform="scale(0.015625)"/>
      <path id="DejaVuSans-6c" d="M 603 4863 
L 1178 4863 
L 1178 0 
L 603 0 
L 603 4863 
z
" transform="scale(0.015625)"/>
     </defs>
     <use xlink:href="#DejaVuSans-54"/>
     <use xlink:href="#DejaVuSans-e1" transform="translate(44.583984 0)"/>
     <use xlink:href="#DejaVuSans-62" transform="translate(105.863281 0)"/>
     <use xlink:href="#DejaVuSans-75" transform="translate(169.339844 0)"/>
     <use xlink:href="#DejaVuSans-61" transform="translate(232.71875 0)"/>
     <use xlink:href="#DejaVuSans-20" transform="translate(293.998047 0)"/>
     <use xlink:href="#DejaVuSans-64" transform="translate(325.785156 0)"/>
     <use xlink:href="#DejaVuSans-65" transform="translate(389.261719 0)"/>
     <use xlink:href="#DejaVuSans-20" transform="translate(450.785156 0)"/>
     <use xlink:href="#DejaVuSans-53" transform="translate(482.572266 0)"/>
     <use xlink:href="#DejaVuSans-61" transform="translate(546.048828 0)"/>
     <use xlink:href="#DejaVuSans-6c" transform="translate(607.328125 0)"/>
     <use xlink:href="#DejaVuSans-61" transform="translate(635.111328 0)"/>
     <use xlink:href="#DejaVuSans-6d" transform="translate(696.390625 0)"/>
     <use xlink:href="#DejaVuSans-69" transform="translate(793.802734 0)"/>
     <use xlink:href="#DejaVuSans-6e" transform="translate(821.585938 0)"/>
     <use xlink:href="#DejaVuSans-61" transform="translate(884.964844 0)"/>
    </g>
   </g>
   <g id="text_8">
    <!-- c. 500 a.C. -->
    <g style="fill: #f1f1f1" transform="translate(239.328 367.129446) scale(0.13 -0.13)">
     <defs>
      <path id="DejaVuSans-Bold-35" d="M 678 4666 
L 3669 4666 
L 3669 3781 
L 1638 3781 
L 1638 3059 
Q 1775 3097 1914 3117 
Q 2053 3138 2203 3138 
Q 3056 3138 3531 2711 
Q 4006 2284 4006 1522 
Q 4006 766 3489 337 
Q 2972 -91 2053 -91 
Q 1656 -91 1267 -14 
Q 878 63 494 219 
L 494 1166 
Q 875 947 1217 837 
Q 1559 728 1863 728 
Q 2300 728 2551 942 
Q 2803 1156 2803 1522 
Q 2803 1891 2551 2103 
Q 2300 2316 1863 2316 
Q 1603 2316 1309 2248 
Q 1016 2181 678 2041 
L 678 4666 
z
" transform="scale(0.015625)"/>
     </defs>
     <use xlink:href="#DejaVuSans-Bold-63"/>
     <use xlink:href="#DejaVuSans-Bold-2e" transform="translate(59.277344 0)"/>
     <use xlink:href="#DejaVuSans-Bold-20" transform="translate(97.265625 0)"/>
     <use xlink:href="#DejaVuSans-Bold-35" transform="translate(132.080078 0)"/>
     <use xlink:href="#DejaVuSans-Bold-30" transform="translate(201.660156 0)"/>
     <use xlink:href="#DejaVuSans-Bold-30" transform="translate(271.240234 0)"/>
     <use xlink:href="#DejaVuSans-Bold-20" transform="translate(340.820312 0)"/>
     <use xlink:href="#DejaVuSans-Bold-61" transform="translate(375.634766 0)"/>
     <use xlink:href="#DejaVuSans-Bold-2e" transform="translate(443.115234 0)"/>
     <use xlink:href="#DejaVuSans-Bold-43" transform="translate(481.103516 0)"/>
     <use xlink:href="#DejaVuSans-Bold-2e" transform="translate(554.492188 0)"/>
    </g>
   </g>
   <g id="text_9">
    <!-- Ábaco Chinês (Suanpan) -->
    <g style="fill: #f1f1f1" transform="translate(239.328 399.046471) scale(0.13 -0.13)">
     <defs>
      <path id="DejaVuSans-43" d="M 4122 4306 
L 4122 3641 
Q 3803 3938 3442 4084 
Q 3081 4231 2675 4231 
Q 1875 4231 1450 3742 
Q 1025 3253 1025 2328 
Q 1025 1406 1450 917 
Q 1875 428 2675 428 
Q 3081 428 3442 575 
Q 3803 722 4122 1019 
L 4122 359 
Q 3791 134 3420 21 
Q 3050 -91 2638 -91 
Q 1578 -91 968 557 
Q 359 1206 359 2328 
Q 359 3453 968 4101 
Q 1578 4750 2638 4750 
Q 3056 4750 3426 4639 
Q 3797 4528 4122 4306 
z
" transform="scale(0.015625)"/>
      <path id="DejaVuSans-ea" d="M 3597 1894 
L 3597 1613 
L 953 1613 
Q 991 1019 1311 708 
Q 1631 397 2203 397 
Q 2534 397 2845 478 
Q 3156 559 3463 722 
L 3463 178 
Q 3153 47 2828 -22 
Q 2503 -91 2169 -91 
Q 1331 -91 842 396 
Q 353 884 353 1716 
Q 353 2575 817 3079 
Q 1281 3584 2069 3584 
Q 2775 3584 3186 3129 
Q 3597 2675 3597 1894 
z
M 3022 2063 
Q 3016 2534 2758 2815 
Q 2500 3097 2075 3097 
Q 1594 3097 1305 2825 
Q 1016 2553 972 2059 
L 3022 2063 
z
M 1801 5119 
L 2263 5119 
L 3029 3944 
L 2595 3944 
L 2032 4709 
L 1470 3944 
L 1035 3944 
L 1801 5119 
z
" transform="scale(0.015625)"/>
      <path id="DejaVuSans-28" d="M 1984 4856 
Q 1566 4138 1362 3434 
Q 1159 2731 1159 2009 
Q 1159 1288 1364 580 
Q 1569 -128 1984 -844 
L 1484 -844 
Q 1016 -109 783 600 
Q 550 1309 550 2009 
Q 550 2706 781 3412 
Q 1013 4119 1484 4856 
L 1984 4856 
z
" transform="scale(0.015625)"/>
      <path id="DejaVuSans-70" d="M 1159 525 
L 1159 -1331 
L 581 -1331 
L 581 3500 
L 1159 3500 
L 1159 2969 
Q 1341 3281 1617 3432 
Q 1894 3584 2278 3584 
Q 2916 3584 3314 3078 
Q 3713 2572 3713 1747 
Q 3713 922 3314 415 
Q 2916 -91 2278 -91 
Q 1894 -91 1617 61 
Q 1341 213 1159 525 
z
M 3116 1747 
Q 3116 2381 2855 2742 
Q 2594 3103 2138 3103 
Q 1681 3103 1420 2742 
Q 1159 2381 1159 1747 
Q 1159 1113 1420 752 
Q 1681 391 2138 391 
Q 2594 391 2855 752 
Q 3116 1113 3116 1747 
z
" transform="scale(0.015625)"/>
      <path id="DejaVuSans-29" d="M 513 4856 
L 1013 4856 
Q 1481 4119 1714 3412 
Q 1947 2706 1947 2009 
Q 1947 1309 1714 600 
Q 1481 -109 1013 -844 
L 513 -844 
Q 928 -128 1133 580 
Q 1338 1288 1338 2009 
Q 1338 2731 1133 3434 
Q 928 4138 513 4856 
z
" transform="scale(0.015625)"/>
     </defs>
     <use xlink:href="#DejaVuSans-c1"/>
     <use xlink:href="#DejaVuSans-62" transform="translate(68.408203 0)"/>
     <use xlink:href="#DejaVuSans-61" transform="translate(131.884766 0)"/>
     <use xlink:href="#DejaVuSans-63" transform="translate(193.164062 0)"/>
     <use xlink:href="#DejaVuSans-6f" transform="translate(248.144531 0)"/>
     <use xlink:href="#DejaVuSans-20" transform="translate(309.326172 0)"/>
     <use xlink:href="#DejaVuSans-43" transform="translate(341.113281 0)"/>
     <use xlink:href="#DejaVuSans-68" transform="translate(410.9375 0)"/>
     <use xlink:href="#DejaVuSans-69" transform="translate(474.316406 0)"/>
     <use xlink:href="#DejaVuSans-6e" transform="translate(502.099609 0)"/>
     <use xlink:href="#DejaVuSans-ea" transform="translate(565.478516 0)"/>
     <use xlink:href="#DejaVuSans-73" transform="translate(627.001953 0)"/>
     <use xlink:href="#DejaVuSans-20" transform="translate(679.101562 0)"/>
     <use xlink:href="#DejaVuSans-28" transform="translate(710.888672 0)"/>
     <use xlink:href="#DejaVuSans-53" transform="translate(749.902344 0)"/>
     <use xlink:href="#DejaVuSans-75" transform="translate(813.378906 0)"/>
     <use xlink:href="#DejaVuSans-61" transform="translate(876.757812 0)"/>
     <use xlink:href="#DejaVuSans-6e" transform="translate(938.037109 0)"/>
     <use xlink:href="#DejaVuSans-70" transform="translate(1001.416016 0)"/>
     <use xlink:href="#DejaVuSans-61" transform="translate(1064.892578 0)"/>
     <use xlink:href="#DejaVuSans-6e" transform="translate(1126.171875 0)"/>
     <use xlink:href="#DejaVuSans-29" transform="translate(1189.550781 0)"/>
    </g>
   </g>
   <g id="text_10">
    <!-- c. 100 a.C. -->
    <g style="fill: #f1f1f1" transform="translate(144.451062 470.247846) scale(0.13 -0.13)">
     <defs>
      <path id="DejaVuSans-Bold-31" d="M 750 831 
L 1813 831 
L 1813 3847 
L 722 3622 
L 722 4441 
L 1806 4666 
L 2950 4666 
L 2950 831 
L 4013 831 
L 4013 0 
L 750 0 
L 750 831 
z
" transform="scale(0.015625)"/>
     </defs>
     <use xlink:href="#DejaVuSans-Bold-63"/>
     <use xlink:href="#DejaVuSans-Bold-2e" transform="translate(59.277344 0)"/>
     <use xlink:href="#DejaVuSans-Bold-20" transform="translate(97.265625 0)"/>
     <use xlink:href="#DejaVuSans-Bold-31" transform="translate(132.080078 0)"/>
     <use xlink:href="#DejaVuSans-Bold-30" transform="translate(201.660156 0)"/>
     <use xlink:href="#DejaVuSans-Bold-30" transform="translate(271.240234 0)"/>
     <use xlink:href="#DejaVuSans-Bold-20" transform="translate(340.820312 0)"/>
     <use xlink:href="#DejaVuSans-Bold-61" transform="translate(375.634766 0)"/>
     <use xlink:href="#DejaVuSans-Bold-2e" transform="translate(443.115234 0)"/>
     <use xlink:href="#DejaVuSans-Bold-43" transform="translate(481.103516 0)"/>
     <use xlink:href="#DejaVuSans-Bold-2e" transform="translate(554.492188 0)"/>
    </g>
   </g>
   <g id="text_11">
    <!-- Máquina de Anticítera -->
    <g style="fill: #f1f1f1" transform="translate(78.459812 500.535809) scale(0.13 -0.13)">
     <defs>
      <path id="DejaVuSans-4d" d="M 628 4666 
L 1569 4666 
L 2759 1491 
L 3956 4666 
L 4897 4666 
L 4897 0 
L 4281 0 
L 4281 4097 
L 3078 897 
L 2444 897 
L 1241 4097 
L 1241 0 
L 628 0 
L 628 4666 
z
" transform="scale(0.015625)"/>
      <path id="DejaVuSans-71" d="M 947 1747 
Q 947 1113 1208 752 
Q 1469 391 1925 391 
Q 2381 391 2643 752 
Q 2906 1113 2906 1747 
Q 2906 2381 2643 2742 
Q 2381 3103 1925 3103 
Q 1469 3103 1208 2742 
Q 947 2381 947 1747 
z
M 2906 525 
Q 2725 213 2448 61 
Q 2172 -91 1784 -91 
Q 1150 -91 751 415 
Q 353 922 353 1747 
Q 353 2572 751 3078 
Q 1150 3584 1784 3584 
Q 2172 3584 2448 3432 
Q 2725 3281 2906 2969 
L 2906 3500 
L 3481 3500 
L 3481 -1331 
L 2906 -1331 
L 2906 525 
z
" transform="scale(0.015625)"/>
      <path id="DejaVuSans-41" d="M 2188 4044 
L 1331 1722 
L 3047 1722 
L 2188 4044 
z
M 1831 4666 
L 2547 4666 
L 4325 0 
L 3669 0 
L 3244 1197 
L 1141 1197 
L 716 0 
L 50 0 
L 1831 4666 
z
" transform="scale(0.015625)"/>
      <path id="DejaVuSans-74" d="M 1172 4494 
L 1172 3500 
L 2356 3500 
L 2356 3053 
L 1172 3053 
L 1172 1153 
Q 1172 725 1289 603 
Q 1406 481 1766 481 
L 2356 481 
L 2356 0 
L 1766 0 
Q 1100 0 847 248 
Q 594 497 594 1153 
L 594 3053 
L 172 3053 
L 172 3500 
L 594 3500 
L 594 4494 
L 1172 4494 
z
" transform="scale(0.015625)"/>
      <path id="DejaVuSans-ed" d="M 1322 5119 
L 1944 5119 
L 926 3944 
L 447 3944 
L 1322 5119 
z
M 603 3500 
L 1178 3500 
L 1178 0 
L 603 0 
L 603 3500 
z
M 891 3584 
L 891 3584 
z
" transform="scale(0.015625)"/>
     </defs>
     <use xlink:href="#DejaVuSans-4d"/>
     <use xlink:href="#DejaVuSans-e1" transform="translate(86.279297 0)"/>
     <use xlink:href="#DejaVuSans-71" transform="translate(147.558594 0)"/>
     <use xlink:href="#DejaVuSans-75" transform="translate(211.035156 0)"/>
     <use xlink:href="#DejaVuSans-69" transform="translate(274.414062 0)"/>
     <use xlink:href="#DejaVuSans-6e" transform="translate(302.197266 0)"/>
     <use xlink:href="#DejaVuSans-61" transform="translate(365.576172 0)"/>
     <use xlink:href="#DejaVuSans-20" transform="translate(426.855469 0)"/>
     <use xlink:href="#DejaVuSans-64" transform="translate(458.642578 0)"/>
     <use xlink:href="#DejaVuSans-65" transform="translate(522.119141 0)"/>
     <use xlink:href="#DejaVuSans-20" transform="translate(583.642578 0)"/>
     <use xlink:href="#DejaVuSans-41" transform="translate(615.429688 0)"/>
     <use xlink:href="#DejaVuSans-6e" transform="translate(683.837891 0)"/>
     <use xlink:href="#DejaVuSans-74" transform="translate(747.216797 0)"/>
     <use xlink:href="#DejaVuSans-69" transform="translate(786.425781 0)"/>
     <use xlink:href="#DejaVuSans-63" transform="translate(814.208984 0)"/>
     <use xlink:href="#DejaVuSans-ed" transform="translate(869.189453 0)"/>
     <use xlink:href="#DejaVuSans-74" transform="translate(896.972656 0)"/>
     <use xlink:href="#DejaVuSans-65" transform="translate(936.181641 0)"/>
     <use xlink:href="#DejaVuSans-72" transform="translate(997.705078 0)"/>
     <use xlink:href="#DejaVuSans-61" transform="translate(1038.818359 0)"/>
    </g>
   </g>
   <g id="text_12">
    <!-- 1617 -->
    <g style="fill: #f1f1f1" transform="translate(239.328 573.366246) scale(0.13 -0.13)">
     <defs>
      <path id="DejaVuSans-Bold-36" d="M 2316 2303 
Q 2000 2303 1842 2098 
Q 1684 1894 1684 1484 
Q 1684 1075 1842 870 
Q 2000 666 2316 666 
Q 2634 666 2792 870 
Q 2950 1075 2950 1484 
Q 2950 1894 2792 2098 
Q 2634 2303 2316 2303 
z
M 3803 4544 
L 3803 3681 
Q 3506 3822 3243 3889 
Q 2981 3956 2731 3956 
Q 2194 3956 1894 3657 
Q 1594 3359 1544 2772 
Q 1750 2925 1990 3001 
Q 2231 3078 2516 3078 
Q 3231 3078 3670 2659 
Q 4109 2241 4109 1563 
Q 4109 813 3618 361 
Q 3128 -91 2303 -91 
Q 1394 -91 895 523 
Q 397 1138 397 2266 
Q 397 3422 980 4083 
Q 1563 4744 2578 4744 
Q 2900 4744 3203 4694 
Q 3506 4644 3803 4544 
z
" transform="scale(0.015625)"/>
      <path id="DejaVuSans-Bold-37" d="M 428 4666 
L 3944 4666 
L 3944 3988 
L 2125 0 
L 953 0 
L 2675 3781 
L 428 3781 
L 428 4666 
z
" transform="scale(0.015625)"/>
     </defs>
     <use xlink:href="#DejaVuSans-Bold-31"/>
     <use xlink:href="#DejaVuSans-Bold-36" transform="translate(69.580078 0)"/>
     <use xlink:href="#DejaVuSans-Bold-31" transform="translate(139.160156 0)"/>
     <use xlink:href="#DejaVuSans-Bold-37" transform="translate(208.740234 0)"/>
    </g>
   </g>
   <g id="text_13">
    <!-- Bastões de Napier -->
    <g style="fill: #f1f1f1" transform="translate(239.328 603.355615) scale(0.13 -0.13)">
     <defs>
      <path id="DejaVuSans-42" d="M 1259 2228 
L 1259 519 
L 2272 519 
Q 2781 519 3026 730 
Q 3272 941 3272 1375 
Q 3272 1813 3026 2020 
Q 2781 2228 2272 2228 
L 1259 2228 
z
M 1259 4147 
L 1259 2741 
L 2194 2741 
Q 2656 2741 2882 2914 
Q 3109 3088 3109 3444 
Q 3109 3797 2882 3972 
Q 2656 4147 2194 4147 
L 1259 4147 
z
M 628 4666 
L 2241 4666 
Q 2963 4666 3353 4366 
Q 3744 4066 3744 3513 
Q 3744 3084 3544 2831 
Q 3344 2578 2956 2516 
Q 3422 2416 3680 2098 
Q 3938 1781 3938 1306 
Q 3938 681 3513 340 
Q 3088 0 2303 0 
L 628 0 
L 628 4666 
z
" transform="scale(0.015625)"/>
      <path id="DejaVuSans-f5" d="M 1959 3097 
Q 1497 3097 1228 2736 
Q 959 2375 959 1747 
Q 959 1119 1226 758 
Q 1494 397 1959 397 
Q 2419 397 2687 759 
Q 2956 1122 2956 1747 
Q 2956 2369 2687 2733 
Q 2419 3097 1959 3097 
z
M 1959 3584 
Q 2709 3584 3137 3096 
Q 3566 2609 3566 1747 
Q 3566 888 3137 398 
Q 2709 -91 1959 -91 
Q 1206 -91 779 398 
Q 353 888 353 1747 
Q 353 2609 779 3096 
Q 1206 3584 1959 3584 
z
M 1948 4281 
L 1769 4453 
Q 1701 4516 1649 4545 
Q 1598 4575 1557 4575 
Q 1438 4575 1382 4461 
Q 1326 4347 1319 4091 
L 929 4091 
Q 935 4513 1094 4742 
Q 1254 4972 1538 4972 
Q 1657 4972 1757 4928 
Q 1857 4884 1973 4781 
L 2151 4609 
Q 2219 4547 2271 4517 
Q 2323 4488 2363 4488 
Q 2482 4488 2538 4602 
Q 2594 4716 2601 4972 
L 2991 4972 
Q 2985 4550 2825 4320 
Q 2666 4091 2382 4091 
Q 2263 4091 2163 4134 
Q 2063 4178 1948 4281 
z
" transform="scale(0.015625)"/>
      <path id="DejaVuSans-4e" d="M 628 4666 
L 1478 4666 
L 3547 763 
L 3547 4666 
L 4159 4666 
L 4159 0 
L 3309 0 
L 1241 3903 
L 1241 0 
L 628 0 
L 628 4666 
z
" transform="scale(0.015625)"/>
     </defs>
     <use xlink:href="#DejaVuSans-42"/>
     <use xlink:href="#DejaVuSans-61" transform="translate(68.603516 0)"/>
     <use xlink:href="#DejaVuSans-73" transform="translate(129.882812 0)"/>
     <use xlink:href="#DejaVuSans-74" transform="translate(181.982422 0)"/>
     <use xlink:href="#DejaVuSans-f5" transform="translate(221.191406 0)"/>
     <use xlink:href="#DejaVuSans-65" transform="translate(282.373047 0)"/>
     <use xlink:href="#DejaVuSans-73" transform="translate(343.896484 0)"/>
     <use xlink:href="#DejaVuSans-20" transform="translate(395.996094 0)"/>
     <use xlink:href="#DejaVuSans-64" transform="translate(427.783203 0)"/>
     <use xlink:href="#DejaVuSans-65" transform="translate(491.259766 0)"/>
     <use xlink:href="#DejaVuSans-20" transform="translate(552.783203 0)"/>
     <use xlink:href="#DejaVuSans-4e" transform="translate(584.570312 0)"/>
     <use xlink:href="#DejaVuSans-61" transform="translate(659.375 0)"/>
     <use xlink:href="#DejaVuSans-70" transform="translate(720.654297 0)"/>
     <use xlink:href="#DejaVuSans-69" transform="translate(784.130859 0)"/>
     <use xlink:href="#DejaVuSans-65" transform="translate(811.914062 0)"/>
     <use xlink:href="#DejaVuSans-72" transform="translate(873.4375 0)"/>
    </g>
   </g>
   <g id="text_14">
    <!-- 1632 -->
    <g style="fill: #f1f1f1" transform="translate(185.291375 676.484646) scale(0.13 -0.13)">
     <use xlink:href="#DejaVuSans-Bold-31"/>
     <use xlink:href="#DejaVuSans-Bold-36" transform="translate(69.580078 0)"/>
     <use xlink:href="#DejaVuSans-Bold-33" transform="translate(139.160156 0)"/>
     <use xlink:href="#DejaVuSans-Bold-32" transform="translate(208.740234 0)"/>
    </g>
   </g>
   <g id="text_15">
    <!-- Régua de Cálculo -->
    <g style="fill: #f1f1f1" transform="translate(108.443094 706.772609) scale(0.13 -0.13)">
     <defs>
      <path id="DejaVuSans-52" d="M 2841 2188 
Q 3044 2119 3236 1894 
Q 3428 1669 3622 1275 
L 4263 0 
L 3584 0 
L 2988 1197 
Q 2756 1666 2539 1819 
Q 2322 1972 1947 1972 
L 1259 1972 
L 1259 0 
L 628 0 
L 628 4666 
L 2053 4666 
Q 2853 4666 3247 4331 
Q 3641 3997 3641 3322 
Q 3641 2881 3436 2590 
Q 3231 2300 2841 2188 
z
M 1259 4147 
L 1259 2491 
L 2053 2491 
Q 2509 2491 2742 2702 
Q 2975 2913 2975 3322 
Q 2975 3731 2742 3939 
Q 2509 4147 2053 4147 
L 1259 4147 
z
" transform="scale(0.015625)"/>
     </defs>
     <use xlink:href="#DejaVuSans-52"/>
     <use xlink:href="#DejaVuSans-e9" transform="translate(64.982422 0)"/>
     <use xlink:href="#DejaVuSans-67" transform="translate(126.505859 0)"/>
     <use xlink:href="#DejaVuSans-75" transform="translate(189.982422 0)"/>
     <use xlink:href="#DejaVuSans-61" transform="translate(253.361328 0)"/>
     <use xlink:href="#DejaVuSans-20" transform="translate(314.640625 0)"/>
     <use xlink:href="#DejaVuSans-64" transform="translate(346.427734 0)"/>
     <use xlink:href="#DejaVuSans-65" transform="translate(409.904297 0)"/>
     <use xlink:href="#DejaVuSans-20" transform="translate(471.427734 0)"/>
     <use xlink:href="#DejaVuSans-43" transform="translate(503.214844 0)"/>
     <use xlink:href="#DejaVuSans-e1" transform="translate(573.039062 0)"/>
     <use xlink:href="#DejaVuSans-6c" transform="translate(634.318359 0)"/>
     <use xlink:href="#DejaVuSans-63" transform="translate(662.101562 0)"/>
     <use xlink:href="#DejaVuSans-75" transform="translate(717.082031 0)"/>
     <use xlink:href="#DejaVuSans-6c" transform="translate(780.460938 0)"/>
     <use xlink:href="#DejaVuSans-6f" transform="translate(808.244141 0)"/>
    </g>
   </g>
   <g id="text_16">
    <!-- 1642 -->
    <g style="fill: #f1f1f1" transform="translate(239.328 779.603046) scale(0.13 -0.13)">
     <use xlink:href="#DejaVuSans-Bold-31"/>
     <use xlink:href="#DejaVuSans-Bold-36" transform="translate(69.580078 0)"/>
     <use xlink:href="#DejaVuSans-Bold-34" transform="translate(139.160156 0)"/>
     <use xlink:href="#DejaVuSans-Bold-32" transform="translate(208.740234 0)"/>
    </g>
   </g>
   <g id="text_17">
    <!-- Máquina de Pascal -->
    <g style="fill: #f1f1f1" transform="translate(239.328 809.891009) scale(0.13 -0.13)">
     <defs>
      <path id="DejaVuSans-50" d="M 1259 4147 
L 1259 2394 
L 2053 2394 
Q 2494 2394 2734 2622 
Q 2975 2850 2975 3272 
Q 2975 3691 2734 3919 
Q 2494 4147 2053 4147 
L 1259 4147 
z
M 628 4666 
L 2053 4666 
Q 2838 4666 3239 4311 
Q 3641 3956 3641 3272 
Q 3641 2581 3239 2228 
Q 2838 1875 2053 1875 
L 1259 1875 
L 1259 0 
L 628 0 
L 628 4666 
z
" transform="scale(0.015625)"/>
     </defs>
     <use xlink:href="#DejaVuSans-4d"/>
     <use xlink:href="#DejaVuSans-e1" transform="translate(86.279297 0)"/>
     <use xlink:href="#DejaVuSans-71" transform="translate(147.558594 0)"/>
     <use xlink:href="#DejaVuSans-75" transform="translate(211.035156 0)"/>
     <use xlink:href="#DejaVuSans-69" transform="translate(274.414062 0)"/>
     <use xlink:href="#DejaVuSans-6e" transform="translate(302.197266 0)"/>
     <use xlink:href="#DejaVuSans-61" transform="translate(365.576172 0)"/>
     <use xlink:href="#DejaVuSans-20" transform="translate(426.855469 0)"/>
     <use xlink:href="#DejaVuSans-64" transform="translate(458.642578 0)"/>
     <use xlink:href="#DejaVuSans-65" transform="translate(522.119141 0)"/>
     <use xlink:href="#DejaVuSans-20" transform="translate(583.642578 0)"/>
     <use xlink:href="#DejaVuSans-50" transform="translate(615.429688 0)"/>
     <use xlink:href="#DejaVuSans-61" transform="translate(671.232422 0)"/>
     <use xlink:href="#DejaVuSans-73" transform="translate(732.511719 0)"/>
     <use xlink:href="#DejaVuSans-63" transform="translate(784.611328 0)"/>
     <use xlink:href="#DejaVuSans-61" transform="translate(839.591797 0)"/>
     <use xlink:href="#DejaVuSans-6c" transform="translate(900.871094 0)"/>
    </g>
   </g>
   <g id="text_18">
    <!-- História da Computação — Parte 1 -->
    <g style="fill: #b8b8b8" transform="translate(144.146094 835.106575) scale(0.1 -0.1)">
     <defs>
      <path id="DejaVuSans-48" d="M 628 4666 
L 1259 4666 
L 1259 2753 
L 3553 2753 
L 3553 4666 
L 4184 4666 
L 4184 0 
L 3553 0 
L 3553 2222 
L 1259 2222 
L 1259 0 
L 628 0 
L 628 4666 
z
" transform="scale(0.015625)"/>
      <path id="DejaVuSans-f3" d="M 1959 3097 
Q 1497 3097 1228 2736 
Q 959 2375 959 1747 
Q 959 1119 1226 758 
Q 1494 397 1959 397 
Q 2419 397 2687 759 
Q 2956 1122 2956 1747 
Q 2956 2369 2687 2733 
Q 2419 3097 1959 3097 
z
M 1959 3584 
Q 2709 3584 3137 3096 
Q 3566 2609 3566 1747 
Q 3566 888 3137 398 
Q 2709 -91 1959 -91 
Q 1206 -91 779 398 
Q 353 888 353 1747 
Q 353 2609 779 3096 
Q 1206 3584 1959 3584 
z
M 2394 5119 
L 3016 5119 
L 1998 3944 
L 1519 3944 
L 2394 5119 
z
" transform="scale(0.015625)"/>
      <path id="DejaVuSans-e7" d="M 3122 3366 
L 3122 2828 
Q 2878 2963 2633 3030 
Q 2388 3097 2138 3097 
Q 1578 3097 1268 2742 
Q 959 2388 959 1747 
Q 959 1106 1268 751 
Q 1578 397 2138 397 
Q 2388 397 2633 464 
Q 2878 531 3122 666 
L 3122 134 
Q 2881 22 2623 -34 
Q 2366 -91 2075 -91 
Q 1284 -91 818 406 
Q 353 903 353 1747 
Q 353 2603 823 3093 
Q 1294 3584 2113 3584 
Q 2378 3584 2631 3529 
Q 2884 3475 3122 3366 
z
M 2311 0 
Q 2482 -194 2566 -358 
Q 2651 -522 2651 -672 
Q 2651 -950 2463 -1092 
Q 2276 -1234 1907 -1234 
Q 1764 -1234 1628 -1215 
Q 1492 -1197 1357 -1159 
L 1357 -750 
Q 1464 -803 1579 -826 
Q 1695 -850 1842 -850 
Q 2026 -850 2120 -775 
Q 2214 -700 2214 -556 
Q 2214 -463 2146 -327 
Q 2079 -191 1939 0 
L 2311 0 
z
" transform="scale(0.015625)"/>
      <path id="DejaVuSans-e3" d="M 2194 1759 
Q 1497 1759 1228 1600 
Q 959 1441 959 1056 
Q 959 750 1161 570 
Q 1363 391 1709 391 
Q 2188 391 2477 730 
Q 2766 1069 2766 1631 
L 2766 1759 
L 2194 1759 
z
M 3341 1997 
L 3341 0 
L 2766 0 
L 2766 531 
Q 2569 213 2275 61 
Q 1981 -91 1556 -91 
Q 1019 -91 701 211 
Q 384 513 384 1019 
Q 384 1609 779 1909 
Q 1175 2209 1959 2209 
L 2766 2209 
L 2766 2266 
Q 2766 2663 2505 2880 
Q 2244 3097 1772 3097 
Q 1472 3097 1187 3025 
Q 903 2953 641 2809 
L 641 3341 
Q 956 3463 1253 3523 
Q 1550 3584 1831 3584 
Q 2591 3584 2966 3190 
Q 3341 2797 3341 1997 
z
M 1844 4281 
L 1665 4453 
Q 1597 4516 1545 4545 
Q 1494 4575 1453 4575 
Q 1334 4575 1278 4461 
Q 1222 4347 1215 4091 
L 825 4091 
Q 831 4513 990 4742 
Q 1150 4972 1434 4972 
Q 1553 4972 1653 4928 
Q 1753 4884 1869 4781 
L 2047 4609 
Q 2115 4547 2167 4517 
Q 2219 4488 2259 4488 
Q 2378 4488 2434 4602 
Q 2490 4716 2497 4972 
L 2887 4972 
Q 2881 4550 2721 4320 
Q 2562 4091 2278 4091 
Q 2159 4091 2059 4134 
Q 1959 4178 1844 4281 
z
" transform="scale(0.015625)"/>
      <path id="DejaVuSans-2014" d="M 313 1978 
L 6088 1978 
L 6088 1528 
L 313 1528 
L 313 1978 
z
" transform="scale(0.015625)"/>
      <path id="DejaVuSans-31" d="M 794 531 
L 1825 531 
L 1825 4091 
L 703 3866 
L 703 4441 
L 1819 4666 
L 2450 4666 
L 2450 531 
L 3481 531 
L 3481 0 
L 794 0 
L 794 531 
z
" transform="scale(0.015625)"/>
     </defs>
     <use xlink:href="#DejaVuSans-48"/>
     <use xlink:href="#DejaVuSans-69" transform="translate(75.195312 0)"/>
     <use xlink:href="#DejaVuSans-73" transform="translate(102.978516 0)"/>
     <use xlink:href="#DejaVuSans-74" transform="translate(155.078125 0)"/>
     <use xlink:href="#DejaVuSans-f3" transform="translate(194.287109 0)"/>
     <use xlink:href="#DejaVuSans-72" transform="translate(255.46875 0)"/>
     <use xlink:href="#DejaVuSans-69" transform="translate(296.582031 0)"/>
     <use xlink:href="#DejaVuSans-61" transform="translate(324.365234 0)"/>
     <use xlink:href="#DejaVuSans-20" transform="translate(385.644531 0)"/>
     <use xlink:href="#DejaVuSans-64" transform="translate(417.431641 0)"/>
     <use xlink:href="#DejaVuSans-61" transform="translate(480.908203 0)"/>
     <use xlink:href="#DejaVuSans-20" transform="translate(542.1875 0)"/>
     <use xlink:href="#DejaVuSans-43" transform="translate(573.974609 0)"/>
     <use xlink:href="#DejaVuSans-6f" transform="translate(643.798828 0)"/>
     <use xlink:href="#DejaVuSans-6d" transform="translate(704.980469 0)"/>
     <use xlink:href="#DejaVuSans-70" transform="translate(802.392578 0)"/>
     <use xlink:href="#DejaVuSans-75" transform="translate(865.869141 0)"/>
     <use xlink:href="#DejaVuSans-74" transform="translate(929.248047 0)"/>
     <use xlink:href="#DejaVuSans-61" transform="translate(968.457031 0)"/>
     <use xlink:href="#DejaVuSans-e7" transform="translate(1029.736328 0)"/>
     <use xlink:href="#DejaVuSans-e3" transform="translate(1084.716797 0)"/>
     <use xlink:href="#DejaVuSans-6f" transform="translate(1145.996094 0)"/>
     <use xlink:href="#DejaVuSans-20" transform="translate(1207.177734 0)"/>
     <use xlink:href="#DejaVuSans-2014" transform="translate(1238.964844 0)"/>
     <use xlink:href="#DejaVuSans-20" transform="translate(1338.964844 0)"/>
     <use xlink:href="#DejaVuSans-50" transform="translate(1370.751953 0)"/>
     <use xlink:href="#DejaVuSans-61" transform="translate(1426.554688 0)"/>
     <use xlink:href="#DejaVuSans-72" transform="translate(1487.833984 0)"/>
     <use xlink:href="#DejaVuSans-74" transform="translate(1528.947266 0)"/>
     <use xlink:href="#DejaVuSans-65" transform="translate(1568.15625 0)"/>
     <use xlink:href="#DejaVuSans-20" transform="translate(1629.679688 0)"/>
     <use xlink:href="#DejaVuSans-31" transform="translate(1661.466797 0)"/>
    </g>
   </g>
  </g>
 </g>
 <defs>
  <clipPath id="p7812a2e915">
   <rect x="7.2" y="7.2" width="446.4" height="859.32"/>
  </clipPath>
 </defs>
</svg>
